<svg width="51" height="50" viewBox="0 0 51 50" fill="none" xmlns="http://www.w3.org/2000/svg">
<g clip-path="url(#clip0_6493_15557)">
<rect x="0.748047" width="50" height="50" rx="5" fill="#DCFFF7"/>
<path d="M17.0814 3H15.748V4.33333H17.0814V3Z" fill="black"/>
<path d="M21.0814 3H19.748V4.33333H21.0814V3Z" fill="black"/>
<path d="M22.4173 3H21.084V4.33333H22.4173V3Z" fill="black"/>
<path d="M23.7454 3H22.4121V4.33333H23.7454V3Z" fill="black"/>
<path d="M25.0814 3H23.748V4.33333H25.0814V3Z" fill="black"/>
<path d="M26.4173 3H25.084V4.33333H26.4173V3Z" fill="black"/>
<path d="M29.0814 3H27.748V4.33333H29.0814V3Z" fill="black"/>
<path d="M30.4173 3H29.084V4.33333H30.4173V3Z" fill="black"/>
<path d="M34.4173 3H33.084V4.33333H34.4173V3Z" fill="black"/>
<path d="M35.7454 3H34.4121V4.33333H35.7454V3Z" fill="black"/>
<path d="M15.7454 4.3335H14.4121V5.66683H15.7454V4.3335Z" fill="black"/>
<path d="M17.0814 4.33331H15.748V5.66665H17.0814V4.33331Z" fill="black"/>
<path d="M18.4173 4.3335H17.084V5.66683H18.4173V4.3335Z" fill="black"/>
<path d="M19.7454 4.3335H18.4121V5.66683H19.7454V4.3335Z" fill="black"/>
<path d="M21.0814 4.33331H19.748V5.66665H21.0814V4.33331Z" fill="black"/>
<path d="M23.7454 4.3335H22.4121V5.66683H23.7454V4.3335Z" fill="black"/>
<path d="M25.0814 4.33331H23.748V5.66665H25.0814V4.33331Z" fill="black"/>
<path d="M29.0814 4.33331H27.748V5.66665H29.0814V4.33331Z" fill="black"/>
<path d="M30.4173 4.3335H29.084V5.66683H30.4173V4.3335Z" fill="black"/>
<path d="M31.7454 4.3335H30.4121V5.66683H31.7454V4.3335Z" fill="black"/>
<path d="M34.4173 4.3335H33.084V5.66683H34.4173V4.3335Z" fill="black"/>
<path d="M35.7454 4.3335H34.4121V5.66683H35.7454V4.3335Z" fill="black"/>
<path d="M17.0814 5.66669H15.748V7.00002H17.0814V5.66669Z" fill="black"/>
<path d="M18.4173 5.6665H17.084V6.99984H18.4173V5.6665Z" fill="black"/>
<path d="M19.7454 5.6665H18.4121V6.99984H19.7454V5.6665Z" fill="black"/>
<path d="M21.0814 5.66669H19.748V7.00002H21.0814V5.66669Z" fill="black"/>
<path d="M22.4173 5.6665H21.084V6.99984H22.4173V5.6665Z" fill="black"/>
<path d="M23.7454 5.6665H22.4121V6.99984H23.7454V5.6665Z" fill="black"/>
<path d="M26.4173 5.6665H25.084V6.99984H26.4173V5.6665Z" fill="black"/>
<path d="M29.0814 5.66669H27.748V7.00002H29.0814V5.66669Z" fill="black"/>
<path d="M30.4173 5.6665H29.084V6.99984H30.4173V5.6665Z" fill="black"/>
<path d="M34.4173 5.6665H33.084V6.99984H34.4173V5.6665Z" fill="black"/>
<path d="M35.7454 5.6665H34.4121V6.99984H35.7454V5.6665Z" fill="black"/>
<path d="M17.0814 7H15.748V8.33333H17.0814V7Z" fill="black"/>
<path d="M18.4173 7H17.084V8.33333H18.4173V7Z" fill="black"/>
<path d="M21.0814 7H19.748V8.33333H21.0814V7Z" fill="black"/>
<path d="M22.4173 7H21.084V8.33333H22.4173V7Z" fill="black"/>
<path d="M23.7454 7H22.4121V8.33333H23.7454V7Z" fill="black"/>
<path d="M25.0814 7H23.748V8.33333H25.0814V7Z" fill="black"/>
<path d="M26.4173 7H25.084V8.33333H26.4173V7Z" fill="black"/>
<path d="M31.7454 7H30.4121V8.33333H31.7454V7Z" fill="black"/>
<path d="M37.0814 7H35.748V8.33333H37.0814V7Z" fill="black"/>
<path d="M15.7454 8.3335H14.4121V9.66683H15.7454V8.3335Z" fill="black"/>
<path d="M17.0814 8.33331H15.748V9.66665H17.0814V8.33331Z" fill="black"/>
<path d="M18.4173 8.3335H17.084V9.66683H18.4173V8.3335Z" fill="black"/>
<path d="M19.7454 8.3335H18.4121V9.66683H19.7454V8.3335Z" fill="black"/>
<path d="M21.0814 8.33331H19.748V9.66665H21.0814V8.33331Z" fill="black"/>
<path d="M22.4173 8.3335H21.084V9.66683H22.4173V8.3335Z" fill="black"/>
<path d="M23.7454 8.3335H22.4121V9.66683H23.7454V8.3335Z" fill="black"/>
<path d="M26.4173 8.3335H25.084V9.66683H26.4173V8.3335Z" fill="black"/>
<path d="M27.7454 8.3335H26.4121V9.66683H27.7454V8.3335Z" fill="black"/>
<path d="M30.4173 8.3335H29.084V9.66683H30.4173V8.3335Z" fill="black"/>
<path d="M31.7454 8.3335H30.4121V9.66683H31.7454V8.3335Z" fill="black"/>
<path d="M35.7454 8.3335H34.4121V9.66683H35.7454V8.3335Z" fill="black"/>
<path d="M37.0814 8.33331H35.748V9.66665H37.0814V8.33331Z" fill="black"/>
<path d="M17.0814 9.66669H15.748V11H17.0814V9.66669Z" fill="black"/>
<path d="M19.7454 9.6665H18.4121V10.9998H19.7454V9.6665Z" fill="black"/>
<path d="M23.7454 9.6665H22.4121V10.9998H23.7454V9.6665Z" fill="black"/>
<path d="M25.0814 9.66669H23.748V11H25.0814V9.66669Z" fill="black"/>
<path d="M26.4173 9.6665H25.084V10.9998H26.4173V9.6665Z" fill="black"/>
<path d="M27.7454 9.6665H26.4121V10.9998H27.7454V9.6665Z" fill="black"/>
<path d="M29.0814 9.66669H27.748V11H29.0814V9.66669Z" fill="black"/>
<path d="M30.4173 9.6665H29.084V10.9998H30.4173V9.6665Z" fill="black"/>
<path d="M31.7454 9.6665H30.4121V10.9998H31.7454V9.6665Z" fill="black"/>
<path d="M33.0814 9.66669H31.748V11H33.0814V9.66669Z" fill="black"/>
<path d="M35.7454 9.6665H34.4121V10.9998H35.7454V9.6665Z" fill="black"/>
<path d="M15.7454 11H14.4121V12.3333H15.7454V11Z" fill="black"/>
<path d="M18.4173 11H17.084V12.3333H18.4173V11Z" fill="black"/>
<path d="M21.0814 11H19.748V12.3333H21.0814V11Z" fill="black"/>
<path d="M23.7454 11H22.4121V12.3333H23.7454V11Z" fill="black"/>
<path d="M26.4173 11H25.084V12.3333H26.4173V11Z" fill="black"/>
<path d="M29.0814 11H27.748V12.3333H29.0814V11Z" fill="black"/>
<path d="M31.7454 11H30.4121V12.3333H31.7454V11Z" fill="black"/>
<path d="M34.4173 11H33.084V12.3333H34.4173V11Z" fill="black"/>
<path d="M37.0814 11H35.748V12.3333H37.0814V11Z" fill="black"/>
<path d="M17.0814 12.3333H15.748V13.6666H17.0814V12.3333Z" fill="black"/>
<path d="M21.0814 12.3333H19.748V13.6666H21.0814V12.3333Z" fill="black"/>
<path d="M22.4173 12.3335H21.084V13.6668H22.4173V12.3335Z" fill="black"/>
<path d="M23.7454 12.3335H22.4121V13.6668H23.7454V12.3335Z" fill="black"/>
<path d="M25.0814 12.3333H23.748V13.6666H25.0814V12.3333Z" fill="black"/>
<path d="M27.7454 12.3335H26.4121V13.6668H27.7454V12.3335Z" fill="black"/>
<path d="M29.0814 12.3333H27.748V13.6666H29.0814V12.3333Z" fill="black"/>
<path d="M31.7454 12.3335H30.4121V13.6668H31.7454V12.3335Z" fill="black"/>
<path d="M33.0814 12.3333H31.748V13.6666H33.0814V12.3333Z" fill="black"/>
<path d="M34.4173 12.3335H33.084V13.6668H34.4173V12.3335Z" fill="black"/>
<path d="M35.7454 12.3335H34.4121V13.6668H35.7454V12.3335Z" fill="black"/>
<path d="M37.0814 12.3333H35.748V13.6666H37.0814V12.3333Z" fill="black"/>
<path d="M5.08138 13.6667H3.74805V15H5.08138V13.6667Z" fill="black"/>
<path d="M7.74544 13.6665H6.41211V14.9998H7.74544V13.6665Z" fill="black"/>
<path d="M10.4173 13.6665H9.08398V14.9998H10.4173V13.6665Z" fill="black"/>
<path d="M13.0814 13.6667H11.748V15H13.0814V13.6667Z" fill="black"/>
<path d="M21.0814 13.6667H19.748V15H21.0814V13.6667Z" fill="black"/>
<path d="M22.4173 13.6665H21.084V14.9998H22.4173V13.6665Z" fill="black"/>
<path d="M27.7454 13.6665H26.4121V14.9998H27.7454V13.6665Z" fill="black"/>
<path d="M29.0814 13.6667H27.748V15H29.0814V13.6667Z" fill="black"/>
<path d="M31.7454 13.6665H30.4121V14.9998H31.7454V13.6665Z" fill="black"/>
<path d="M33.0814 13.6667H31.748V15H33.0814V13.6667Z" fill="black"/>
<path d="M37.0814 13.6667H35.748V15H37.0814V13.6667Z" fill="black"/>
<path d="M42.4173 13.6665H41.084V14.9998H42.4173V13.6665Z" fill="black"/>
<path d="M46.4173 13.6665H45.084V14.9998H46.4173V13.6665Z" fill="black"/>
<path d="M5.08138 15H3.74805V16.3333H5.08138V15Z" fill="black"/>
<path d="M6.41732 15H5.08398V16.3333H6.41732V15Z" fill="black"/>
<path d="M7.74544 15H6.41211V16.3333H7.74544V15Z" fill="black"/>
<path d="M11.7454 15H10.4121V16.3333H11.7454V15Z" fill="black"/>
<path d="M14.4173 15H13.084V16.3333H14.4173V15Z" fill="black"/>
<path d="M17.0814 15H15.748V16.3333H17.0814V15Z" fill="black"/>
<path d="M18.4173 15H17.084V16.3333H18.4173V15Z" fill="black"/>
<path d="M21.0814 15H19.748V16.3333H21.0814V15Z" fill="black"/>
<path d="M22.4173 15H21.084V16.3333H22.4173V15Z" fill="black"/>
<path d="M26.4173 15H25.084V16.3333H26.4173V15Z" fill="black"/>
<path d="M31.7454 15H30.4121V16.3333H31.7454V15Z" fill="black"/>
<path d="M33.0814 15H31.748V16.3333H33.0814V15Z" fill="black"/>
<path d="M34.4173 15H33.084V16.3333H34.4173V15Z" fill="black"/>
<path d="M38.4173 15H37.084V16.3333H38.4173V15Z" fill="black"/>
<path d="M39.7454 15H38.4121V16.3333H39.7454V15Z" fill="black"/>
<path d="M41.0814 15H39.748V16.3333H41.0814V15Z" fill="black"/>
<path d="M46.4173 15H45.084V16.3333H46.4173V15Z" fill="black"/>
<path d="M47.7454 15H46.4121V16.3333H47.7454V15Z" fill="black"/>
<path d="M5.08138 16.3333H3.74805V17.6666H5.08138V16.3333Z" fill="black"/>
<path d="M7.74544 16.3335H6.41211V17.6668H7.74544V16.3335Z" fill="black"/>
<path d="M9.08138 16.3333H7.74805V17.6666H9.08138V16.3333Z" fill="black"/>
<path d="M10.4173 16.3335H9.08398V17.6668H10.4173V16.3335Z" fill="black"/>
<path d="M13.0814 16.3333H11.748V17.6666H13.0814V16.3333Z" fill="black"/>
<path d="M17.0814 16.3333H15.748V17.6666H17.0814V16.3333Z" fill="black"/>
<path d="M18.4173 16.3335H17.084V17.6668H18.4173V16.3335Z" fill="black"/>
<path d="M19.7454 16.3335H18.4121V17.6668H19.7454V16.3335Z" fill="black"/>
<path d="M21.0814 16.3333H19.748V17.6666H21.0814V16.3333Z" fill="black"/>
<path d="M23.7454 16.3335H22.4121V17.6668H23.7454V16.3335Z" fill="black"/>
<path d="M26.4173 16.3335H25.084V17.6668H26.4173V16.3335Z" fill="black"/>
<path d="M29.0814 16.3333H27.748V17.6666H29.0814V16.3333Z" fill="black"/>
<path d="M33.0814 16.3333H31.748V17.6666H33.0814V16.3333Z" fill="black"/>
<path d="M39.7454 16.3335H38.4121V17.6668H39.7454V16.3335Z" fill="black"/>
<path d="M41.0814 16.3333H39.748V17.6666H41.0814V16.3333Z" fill="black"/>
<path d="M45.0814 16.3333H43.748V17.6666H45.0814V16.3333Z" fill="black"/>
<path d="M46.4173 16.3335H45.084V17.6668H46.4173V16.3335Z" fill="black"/>
<path d="M47.7454 16.3335H46.4121V17.6668H47.7454V16.3335Z" fill="black"/>
<path d="M6.41732 17.6665H5.08398V18.9998H6.41732V17.6665Z" fill="black"/>
<path d="M11.7454 17.6665H10.4121V18.9998H11.7454V17.6665Z" fill="black"/>
<path d="M22.4173 17.6665H21.084V18.9998H22.4173V17.6665Z" fill="black"/>
<path d="M23.7454 17.6665H22.4121V18.9998H23.7454V17.6665Z" fill="black"/>
<path d="M25.0814 17.6667H23.748V19H25.0814V17.6667Z" fill="black"/>
<path d="M27.7454 17.6665H26.4121V18.9998H27.7454V17.6665Z" fill="black"/>
<path d="M29.0814 17.6667H27.748V19H29.0814V17.6667Z" fill="black"/>
<path d="M33.0814 17.6667H31.748V19H33.0814V17.6667Z" fill="black"/>
<path d="M34.4173 17.6665H33.084V18.9998H34.4173V17.6665Z" fill="black"/>
<path d="M42.4173 17.6665H41.084V18.9998H42.4173V17.6665Z" fill="black"/>
<path d="M6.41732 19H5.08398V20.3333H6.41732V19Z" fill="black"/>
<path d="M9.08138 19H7.74805V20.3333H9.08138V19Z" fill="black"/>
<path d="M10.4173 19H9.08398V20.3333H10.4173V19Z" fill="black"/>
<path d="M11.7454 19H10.4121V20.3333H11.7454V19Z" fill="black"/>
<path d="M13.0814 19H11.748V20.3333H13.0814V19Z" fill="black"/>
<path d="M14.4173 19H13.084V20.3333H14.4173V19Z" fill="black"/>
<path d="M15.7454 19H14.4121V20.3333H15.7454V19Z" fill="black"/>
<path d="M17.0814 19H15.748V20.3333H17.0814V19Z" fill="black"/>
<path d="M18.4173 19H17.084V20.3333H18.4173V19Z" fill="black"/>
<path d="M19.7454 19H18.4121V20.3333H19.7454V19Z" fill="black"/>
<path d="M23.7454 19H22.4121V20.3333H23.7454V19Z" fill="black"/>
<path d="M26.4173 19H25.084V20.3333H26.4173V19Z" fill="black"/>
<path d="M29.0814 19H27.748V20.3333H29.0814V19Z" fill="black"/>
<path d="M33.0814 19H31.748V20.3333H33.0814V19Z" fill="black"/>
<path d="M34.4173 19H33.084V20.3333H34.4173V19Z" fill="black"/>
<path d="M37.0814 19H35.748V20.3333H37.0814V19Z" fill="black"/>
<path d="M38.4173 19H37.084V20.3333H38.4173V19Z" fill="black"/>
<path d="M39.7454 19H38.4121V20.3333H39.7454V19Z" fill="black"/>
<path d="M43.7454 19H42.4121V20.3333H43.7454V19Z" fill="black"/>
<path d="M46.4173 19H45.084V20.3333H46.4173V19Z" fill="black"/>
<path d="M47.7454 19H46.4121V20.3333H47.7454V19Z" fill="black"/>
<path d="M5.08138 20.3333H3.74805V21.6666H5.08138V20.3333Z" fill="black"/>
<path d="M6.41732 20.3335H5.08398V21.6668H6.41732V20.3335Z" fill="black"/>
<path d="M7.74544 20.3335H6.41211V21.6668H7.74544V20.3335Z" fill="black"/>
<path d="M11.7454 20.3335H10.4121V21.6668H11.7454V20.3335Z" fill="black"/>
<path d="M14.4173 20.3335H13.084V21.6668H14.4173V20.3335Z" fill="black"/>
<path d="M18.4173 20.3335H17.084V21.6668H18.4173V20.3335Z" fill="black"/>
<path d="M22.4173 20.3335H21.084V21.6668H22.4173V20.3335Z" fill="black"/>
<path d="M23.7454 20.3335H22.4121V21.6668H23.7454V20.3335Z" fill="black"/>
<path d="M25.0814 20.3333H23.748V21.6666H25.0814V20.3333Z" fill="black"/>
<path d="M26.4173 20.3335H25.084V21.6668H26.4173V20.3335Z" fill="black"/>
<path d="M33.0814 20.3333H31.748V21.6666H33.0814V20.3333Z" fill="black"/>
<path d="M34.4173 20.3335H33.084V21.6668H34.4173V20.3335Z" fill="black"/>
<path d="M37.0814 20.3333H35.748V21.6666H37.0814V20.3333Z" fill="black"/>
<path d="M39.7454 20.3335H38.4121V21.6668H39.7454V20.3335Z" fill="black"/>
<path d="M47.7454 20.3335H46.4121V21.6668H47.7454V20.3335Z" fill="black"/>
<path d="M10.4173 21.6665H9.08398V22.9998H10.4173V21.6665Z" fill="black"/>
<path d="M11.7454 21.6665H10.4121V22.9998H11.7454V21.6665Z" fill="black"/>
<path d="M13.0814 21.6667H11.748V23H13.0814V21.6667Z" fill="black"/>
<path d="M15.7454 21.6665H14.4121V22.9998H15.7454V21.6665Z" fill="black"/>
<path d="M17.0814 21.6667H15.748V23H17.0814V21.6667Z" fill="black"/>
<path d="M21.0814 21.6667H19.748V23H21.0814V21.6667Z" fill="black"/>
<path d="M22.4173 21.6665H21.084V22.9998H22.4173V21.6665Z" fill="black"/>
<path d="M23.7454 21.6665H22.4121V22.9998H23.7454V21.6665Z" fill="black"/>
<path d="M25.0814 21.6667H23.748V23H25.0814V21.6667Z" fill="black"/>
<path d="M26.4173 21.6665H25.084V22.9998H26.4173V21.6665Z" fill="black"/>
<path d="M27.7454 21.6665H26.4121V22.9998H27.7454V21.6665Z" fill="black"/>
<path d="M34.4173 21.6665H33.084V22.9998H34.4173V21.6665Z" fill="black"/>
<path d="M38.4173 21.6665H37.084V22.9998H38.4173V21.6665Z" fill="black"/>
<path d="M41.0814 21.6667H39.748V23H41.0814V21.6667Z" fill="black"/>
<path d="M42.4173 21.6665H41.084V22.9998H42.4173V21.6665Z" fill="black"/>
<path d="M45.0814 21.6667H43.748V23H45.0814V21.6667Z" fill="black"/>
<path d="M46.4173 21.6665H45.084V22.9998H46.4173V21.6665Z" fill="black"/>
<path d="M47.7454 21.6665H46.4121V22.9998H47.7454V21.6665Z" fill="black"/>
<path d="M7.74544 23H6.41211V24.3333H7.74544V23Z" fill="black"/>
<path d="M9.08138 23H7.74805V24.3333H9.08138V23Z" fill="black"/>
<path d="M11.7454 23H10.4121V24.3333H11.7454V23Z" fill="black"/>
<path d="M14.4173 23H13.084V24.3333H14.4173V23Z" fill="black"/>
<path d="M15.7454 23H14.4121V24.3333H15.7454V23Z" fill="black"/>
<path d="M18.4173 23H17.084V24.3333H18.4173V23Z" fill="black"/>
<path d="M19.7454 23H18.4121V24.3333H19.7454V23Z" fill="black"/>
<path d="M21.0814 23H19.748V24.3333H21.0814V23Z" fill="black"/>
<path d="M22.4173 23H21.084V24.3333H22.4173V23Z" fill="black"/>
<path d="M23.7454 23H22.4121V24.3333H23.7454V23Z" fill="black"/>
<path d="M26.4173 23H25.084V24.3333H26.4173V23Z" fill="black"/>
<path d="M27.7454 23H26.4121V24.3333H27.7454V23Z" fill="black"/>
<path d="M29.0814 23H27.748V24.3333H29.0814V23Z" fill="black"/>
<path d="M30.4173 23H29.084V24.3333H30.4173V23Z" fill="black"/>
<path d="M33.0814 23H31.748V24.3333H33.0814V23Z" fill="black"/>
<path d="M35.7454 23H34.4121V24.3333H35.7454V23Z" fill="black"/>
<path d="M39.7454 23H38.4121V24.3333H39.7454V23Z" fill="black"/>
<path d="M42.4173 23H41.084V24.3333H42.4173V23Z" fill="black"/>
<path d="M46.4173 23H45.084V24.3333H46.4173V23Z" fill="black"/>
<path d="M6.41732 24.3335H5.08398V25.6668H6.41732V24.3335Z" fill="black"/>
<path d="M13.0814 24.3333H11.748V25.6666H13.0814V24.3333Z" fill="black"/>
<path d="M17.0814 24.3333H15.748V25.6666H17.0814V24.3333Z" fill="black"/>
<path d="M18.4173 24.3335H17.084V25.6668H18.4173V24.3335Z" fill="black"/>
<path d="M21.0814 24.3333H19.748V25.6666H21.0814V24.3333Z" fill="black"/>
<path d="M23.7454 24.3335H22.4121V25.6668H23.7454V24.3335Z" fill="black"/>
<path d="M25.0814 24.3333H23.748V25.6666H25.0814V24.3333Z" fill="black"/>
<path d="M27.7454 24.3335H26.4121V25.6668H27.7454V24.3335Z" fill="black"/>
<path d="M31.7454 24.3335H30.4121V25.6668H31.7454V24.3335Z" fill="black"/>
<path d="M33.0814 24.3333H31.748V25.6666H33.0814V24.3333Z" fill="black"/>
<path d="M35.7454 24.3335H34.4121V25.6668H35.7454V24.3335Z" fill="black"/>
<path d="M38.4173 24.3335H37.084V25.6668H38.4173V24.3335Z" fill="black"/>
<path d="M39.7454 24.3335H38.4121V25.6668H39.7454V24.3335Z" fill="black"/>
<path d="M5.08138 25.6667H3.74805V27H5.08138V25.6667Z" fill="black"/>
<path d="M7.74544 25.6665H6.41211V26.9998H7.74544V25.6665Z" fill="black"/>
<path d="M9.08138 25.6667H7.74805V27H9.08138V25.6667Z" fill="black"/>
<path d="M11.7454 25.6665H10.4121V26.9998H11.7454V25.6665Z" fill="black"/>
<path d="M15.7454 25.6665H14.4121V26.9998H15.7454V25.6665Z" fill="black"/>
<path d="M19.7454 25.6665H18.4121V26.9998H19.7454V25.6665Z" fill="black"/>
<path d="M21.0814 25.6667H19.748V27H21.0814V25.6667Z" fill="black"/>
<path d="M22.4173 25.6665H21.084V26.9998H22.4173V25.6665Z" fill="black"/>
<path d="M26.4173 25.6665H25.084V26.9998H26.4173V25.6665Z" fill="black"/>
<path d="M31.7454 25.6665H30.4121V26.9998H31.7454V25.6665Z" fill="black"/>
<path d="M33.0814 25.6667H31.748V27H33.0814V25.6667Z" fill="black"/>
<path d="M34.4173 25.6665H33.084V26.9998H34.4173V25.6665Z" fill="black"/>
<path d="M37.0814 25.6667H35.748V27H37.0814V25.6667Z" fill="black"/>
<path d="M38.4173 25.6665H37.084V26.9998H38.4173V25.6665Z" fill="black"/>
<path d="M39.7454 25.6665H38.4121V26.9998H39.7454V25.6665Z" fill="black"/>
<path d="M41.0814 25.6667H39.748V27H41.0814V25.6667Z" fill="black"/>
<path d="M46.4173 25.6665H45.084V26.9998H46.4173V25.6665Z" fill="black"/>
<path d="M47.7454 25.6665H46.4121V26.9998H47.7454V25.6665Z" fill="black"/>
<path d="M5.08138 27H3.74805V28.3333H5.08138V27Z" fill="black"/>
<path d="M6.41732 27H5.08398V28.3333H6.41732V27Z" fill="black"/>
<path d="M9.08138 27H7.74805V28.3333H9.08138V27Z" fill="black"/>
<path d="M10.4173 27H9.08398V28.3333H10.4173V27Z" fill="black"/>
<path d="M13.0814 27H11.748V28.3333H13.0814V27Z" fill="black"/>
<path d="M15.7454 27H14.4121V28.3333H15.7454V27Z" fill="black"/>
<path d="M17.0814 27H15.748V28.3333H17.0814V27Z" fill="black"/>
<path d="M22.4173 27H21.084V28.3333H22.4173V27Z" fill="black"/>
<path d="M27.7454 27H26.4121V28.3333H27.7454V27Z" fill="black"/>
<path d="M31.7454 27H30.4121V28.3333H31.7454V27Z" fill="black"/>
<path d="M33.0814 27H31.748V28.3333H33.0814V27Z" fill="black"/>
<path d="M34.4173 27H33.084V28.3333H34.4173V27Z" fill="black"/>
<path d="M37.0814 27H35.748V28.3333H37.0814V27Z" fill="black"/>
<path d="M39.7454 27H38.4121V28.3333H39.7454V27Z" fill="black"/>
<path d="M45.0814 27H43.748V28.3333H45.0814V27Z" fill="black"/>
<path d="M46.4173 27H45.084V28.3333H46.4173V27Z" fill="black"/>
<path d="M47.7454 27H46.4121V28.3333H47.7454V27Z" fill="black"/>
<path d="M9.08138 28.3333H7.74805V29.6666H9.08138V28.3333Z" fill="black"/>
<path d="M11.7454 28.3335H10.4121V29.6668H11.7454V28.3335Z" fill="black"/>
<path d="M15.7454 28.3335H14.4121V29.6668H15.7454V28.3335Z" fill="black"/>
<path d="M17.0814 28.3333H15.748V29.6666H17.0814V28.3333Z" fill="black"/>
<path d="M25.0814 28.3333H23.748V29.6666H25.0814V28.3333Z" fill="black"/>
<path d="M31.7454 28.3335H30.4121V29.6668H31.7454V28.3335Z" fill="black"/>
<path d="M33.0814 28.3333H31.748V29.6666H33.0814V28.3333Z" fill="black"/>
<path d="M34.4173 28.3335H33.084V29.6668H34.4173V28.3335Z" fill="black"/>
<path d="M35.7454 28.3335H34.4121V29.6668H35.7454V28.3335Z" fill="black"/>
<path d="M38.4173 28.3335H37.084V29.6668H38.4173V28.3335Z" fill="black"/>
<path d="M41.0814 28.3333H39.748V29.6666H41.0814V28.3333Z" fill="black"/>
<path d="M42.4173 28.3335H41.084V29.6668H42.4173V28.3335Z" fill="black"/>
<path d="M6.41732 29.6665H5.08398V30.9998H6.41732V29.6665Z" fill="black"/>
<path d="M9.08138 29.6667H7.74805V31H9.08138V29.6667Z" fill="black"/>
<path d="M11.7454 29.6665H10.4121V30.9998H11.7454V29.6665Z" fill="black"/>
<path d="M13.0814 29.6667H11.748V31H13.0814V29.6667Z" fill="black"/>
<path d="M15.7454 29.6665H14.4121V30.9998H15.7454V29.6665Z" fill="black"/>
<path d="M21.0814 29.6667H19.748V31H21.0814V29.6667Z" fill="black"/>
<path d="M22.4173 29.6665H21.084V30.9998H22.4173V29.6665Z" fill="black"/>
<path d="M23.7454 29.6665H22.4121V30.9998H23.7454V29.6665Z" fill="black"/>
<path d="M30.4173 29.6665H29.084V30.9998H30.4173V29.6665Z" fill="black"/>
<path d="M33.0814 29.6667H31.748V31H33.0814V29.6667Z" fill="black"/>
<path d="M34.4173 29.6665H33.084V30.9998H34.4173V29.6665Z" fill="black"/>
<path d="M37.0814 29.6667H35.748V31H37.0814V29.6667Z" fill="black"/>
<path d="M38.4173 29.6665H37.084V30.9998H38.4173V29.6665Z" fill="black"/>
<path d="M39.7454 29.6665H38.4121V30.9998H39.7454V29.6665Z" fill="black"/>
<path d="M43.7454 29.6665H42.4121V30.9998H43.7454V29.6665Z" fill="black"/>
<path d="M46.4173 29.6665H45.084V30.9998H46.4173V29.6665Z" fill="black"/>
<path d="M47.7454 29.6665H46.4121V30.9998H47.7454V29.6665Z" fill="black"/>
<path d="M7.74544 31H6.41211V32.3333H7.74544V31Z" fill="black"/>
<path d="M11.7454 31H10.4121V32.3333H11.7454V31Z" fill="black"/>
<path d="M17.0814 31H15.748V32.3333H17.0814V31Z" fill="black"/>
<path d="M18.4173 31H17.084V32.3333H18.4173V31Z" fill="black"/>
<path d="M19.7454 31H18.4121V32.3333H19.7454V31Z" fill="black"/>
<path d="M21.0814 31H19.748V32.3333H21.0814V31Z" fill="black"/>
<path d="M22.4173 31H21.084V32.3333H22.4173V31Z" fill="black"/>
<path d="M25.0814 31H23.748V32.3333H25.0814V31Z" fill="black"/>
<path d="M27.7454 31H26.4121V32.3333H27.7454V31Z" fill="black"/>
<path d="M33.0814 31H31.748V32.3333H33.0814V31Z" fill="black"/>
<path d="M34.4173 31H33.084V32.3333H34.4173V31Z" fill="black"/>
<path d="M37.0814 31H35.748V32.3333H37.0814V31Z" fill="black"/>
<path d="M39.7454 31H38.4121V32.3333H39.7454V31Z" fill="black"/>
<path d="M41.0814 31H39.748V32.3333H41.0814V31Z" fill="black"/>
<path d="M46.4173 31H45.084V32.3333H46.4173V31Z" fill="black"/>
<path d="M47.7454 31H46.4121V32.3333H47.7454V31Z" fill="black"/>
<path d="M5.08138 32.3333H3.74805V33.6666H5.08138V32.3333Z" fill="black"/>
<path d="M7.74544 32.3335H6.41211V33.6668H7.74544V32.3335Z" fill="black"/>
<path d="M9.08138 32.3333H7.74805V33.6666H9.08138V32.3333Z" fill="black"/>
<path d="M10.4173 32.3335H9.08398V33.6668H10.4173V32.3335Z" fill="black"/>
<path d="M13.0814 32.3333H11.748V33.6666H13.0814V32.3333Z" fill="black"/>
<path d="M15.7454 32.3335H14.4121V33.6668H15.7454V32.3335Z" fill="black"/>
<path d="M17.0814 32.3333H15.748V33.6666H17.0814V32.3333Z" fill="black"/>
<path d="M18.4173 32.3335H17.084V33.6668H18.4173V32.3335Z" fill="black"/>
<path d="M27.7454 32.3335H26.4121V33.6668H27.7454V32.3335Z" fill="black"/>
<path d="M29.0814 32.3333H27.748V33.6666H29.0814V32.3333Z" fill="black"/>
<path d="M31.7454 32.3335H30.4121V33.6668H31.7454V32.3335Z" fill="black"/>
<path d="M34.4173 32.3335H33.084V33.6668H34.4173V32.3335Z" fill="black"/>
<path d="M39.7454 32.3335H38.4121V33.6668H39.7454V32.3335Z" fill="black"/>
<path d="M42.4173 32.3335H41.084V33.6668H42.4173V32.3335Z" fill="black"/>
<path d="M46.4173 32.3335H45.084V33.6668H46.4173V32.3335Z" fill="black"/>
<path d="M47.7454 32.3335H46.4121V33.6668H47.7454V32.3335Z" fill="black"/>
<path d="M6.41732 33.6665H5.08398V34.9998H6.41732V33.6665Z" fill="black"/>
<path d="M10.4173 33.6665H9.08398V34.9998H10.4173V33.6665Z" fill="black"/>
<path d="M11.7454 33.6665H10.4121V34.9998H11.7454V33.6665Z" fill="black"/>
<path d="M18.4173 33.6665H17.084V34.9998H18.4173V33.6665Z" fill="black"/>
<path d="M22.4173 33.6665H21.084V34.9998H22.4173V33.6665Z" fill="black"/>
<path d="M23.7454 33.6665H22.4121V34.9998H23.7454V33.6665Z" fill="black"/>
<path d="M25.0814 33.6667H23.748V35H25.0814V33.6667Z" fill="black"/>
<path d="M27.7454 33.6665H26.4121V34.9998H27.7454V33.6665Z" fill="black"/>
<path d="M29.0814 33.6667H27.748V35H29.0814V33.6667Z" fill="black"/>
<path d="M33.0814 33.6667H31.748V35H33.0814V33.6667Z" fill="black"/>
<path d="M37.0814 33.6667H35.748V35H37.0814V33.6667Z" fill="black"/>
<path d="M42.4173 33.6665H41.084V34.9998H42.4173V33.6665Z" fill="black"/>
<path d="M46.4173 33.6665H45.084V34.9998H46.4173V33.6665Z" fill="black"/>
<path d="M47.7454 33.6665H46.4121V34.9998H47.7454V33.6665Z" fill="black"/>
<path d="M5.08138 35H3.74805V36.3333H5.08138V35Z" fill="black"/>
<path d="M9.08138 35H7.74805V36.3333H9.08138V35Z" fill="black"/>
<path d="M10.4173 35H9.08398V36.3333H10.4173V35Z" fill="black"/>
<path d="M13.0814 35H11.748V36.3333H13.0814V35Z" fill="black"/>
<path d="M14.4173 35H13.084V36.3333H14.4173V35Z" fill="black"/>
<path d="M18.4173 35H17.084V36.3333H18.4173V35Z" fill="black"/>
<path d="M19.7454 35H18.4121V36.3333H19.7454V35Z" fill="black"/>
<path d="M21.0814 35H19.748V36.3333H21.0814V35Z" fill="black"/>
<path d="M22.4173 35H21.084V36.3333H22.4173V35Z" fill="black"/>
<path d="M23.7454 35H22.4121V36.3333H23.7454V35Z" fill="black"/>
<path d="M26.4173 35H25.084V36.3333H26.4173V35Z" fill="black"/>
<path d="M27.7454 35H26.4121V36.3333H27.7454V35Z" fill="black"/>
<path d="M31.7454 35H30.4121V36.3333H31.7454V35Z" fill="black"/>
<path d="M33.0814 35H31.748V36.3333H33.0814V35Z" fill="black"/>
<path d="M35.7454 35H34.4121V36.3333H35.7454V35Z" fill="black"/>
<path d="M37.0814 35H35.748V36.3333H37.0814V35Z" fill="black"/>
<path d="M38.4173 35H37.084V36.3333H38.4173V35Z" fill="black"/>
<path d="M39.7454 35H38.4121V36.3333H39.7454V35Z" fill="black"/>
<path d="M41.0814 35H39.748V36.3333H41.0814V35Z" fill="black"/>
<path d="M42.4173 35H41.084V36.3333H42.4173V35Z" fill="black"/>
<path d="M43.7454 35H42.4121V36.3333H43.7454V35Z" fill="black"/>
<path d="M46.4173 35H45.084V36.3333H46.4173V35Z" fill="black"/>
<path d="M47.7454 35H46.4121V36.3333H47.7454V35Z" fill="black"/>
<path d="M15.7454 36.3335H14.4121V37.6668H15.7454V36.3335Z" fill="black"/>
<path d="M19.7454 36.3335H18.4121V37.6668H19.7454V36.3335Z" fill="black"/>
<path d="M21.0814 36.3333H19.748V37.6666H21.0814V36.3333Z" fill="black"/>
<path d="M23.7454 36.3335H22.4121V37.6668H23.7454V36.3335Z" fill="black"/>
<path d="M26.4173 36.3335H25.084V37.6668H26.4173V36.3335Z" fill="black"/>
<path d="M27.7454 36.3335H26.4121V37.6668H27.7454V36.3335Z" fill="black"/>
<path d="M33.0814 36.3333H31.748V37.6666H33.0814V36.3333Z" fill="black"/>
<path d="M37.0814 36.3333H35.748V37.6666H37.0814V36.3333Z" fill="black"/>
<path d="M42.4173 36.3335H41.084V37.6668H42.4173V36.3335Z" fill="black"/>
<path d="M43.7454 36.3335H42.4121V37.6668H43.7454V36.3335Z" fill="black"/>
<path d="M46.4173 36.3335H45.084V37.6668H46.4173V36.3335Z" fill="black"/>
<path d="M47.7454 36.3335H46.4121V37.6668H47.7454V36.3335Z" fill="black"/>
<path d="M19.7454 37.6665H18.4121V38.9998H19.7454V37.6665Z" fill="black"/>
<path d="M21.0814 37.6667H19.748V39H21.0814V37.6667Z" fill="black"/>
<path d="M22.4173 37.6665H21.084V38.9998H22.4173V37.6665Z" fill="black"/>
<path d="M29.0814 37.6667H27.748V39H29.0814V37.6667Z" fill="black"/>
<path d="M33.0814 37.6667H31.748V39H33.0814V37.6667Z" fill="black"/>
<path d="M35.7454 37.6665H34.4121V38.9998H35.7454V37.6665Z" fill="black"/>
<path d="M37.0814 37.6667H35.748V39H37.0814V37.6667Z" fill="black"/>
<path d="M39.7454 37.6665H38.4121V38.9998H39.7454V37.6665Z" fill="black"/>
<path d="M42.4173 37.6665H41.084V38.9998H42.4173V37.6665Z" fill="black"/>
<path d="M45.0814 37.6667H43.748V39H45.0814V37.6667Z" fill="black"/>
<path d="M46.4173 37.6665H45.084V38.9998H46.4173V37.6665Z" fill="black"/>
<path d="M47.7454 37.6665H46.4121V38.9998H47.7454V37.6665Z" fill="black"/>
<path d="M17.0814 39H15.748V40.3333H17.0814V39Z" fill="black"/>
<path d="M19.7454 39H18.4121V40.3333H19.7454V39Z" fill="black"/>
<path d="M26.4173 39H25.084V40.3333H26.4173V39Z" fill="black"/>
<path d="M27.7454 39H26.4121V40.3333H27.7454V39Z" fill="black"/>
<path d="M29.0814 39H27.748V40.3333H29.0814V39Z" fill="black"/>
<path d="M30.4173 39H29.084V40.3333H30.4173V39Z" fill="black"/>
<path d="M31.7454 39H30.4121V40.3333H31.7454V39Z" fill="black"/>
<path d="M33.0814 39H31.748V40.3333H33.0814V39Z" fill="black"/>
<path d="M34.4173 39H33.084V40.3333H34.4173V39Z" fill="black"/>
<path d="M37.0814 39H35.748V40.3333H37.0814V39Z" fill="black"/>
<path d="M42.4173 39H41.084V40.3333H42.4173V39Z" fill="black"/>
<path d="M46.4173 39H45.084V40.3333H46.4173V39Z" fill="black"/>
<path d="M47.7454 39H46.4121V40.3333H47.7454V39Z" fill="black"/>
<path d="M15.7454 40.3335H14.4121V41.6668H15.7454V40.3335Z" fill="black"/>
<path d="M18.4173 40.3335H17.084V41.6668H18.4173V40.3335Z" fill="black"/>
<path d="M25.0814 40.3333H23.748V41.6666H25.0814V40.3333Z" fill="black"/>
<path d="M26.4173 40.3335H25.084V41.6668H26.4173V40.3335Z" fill="black"/>
<path d="M29.0814 40.3333H27.748V41.6666H29.0814V40.3333Z" fill="black"/>
<path d="M33.0814 40.3333H31.748V41.6666H33.0814V40.3333Z" fill="black"/>
<path d="M34.4173 40.3335H33.084V41.6668H34.4173V40.3335Z" fill="black"/>
<path d="M37.0814 40.3333H35.748V41.6666H37.0814V40.3333Z" fill="black"/>
<path d="M38.4173 40.3335H37.084V41.6668H38.4173V40.3335Z" fill="black"/>
<path d="M39.7454 40.3335H38.4121V41.6668H39.7454V40.3335Z" fill="black"/>
<path d="M41.0814 40.3333H39.748V41.6666H41.0814V40.3333Z" fill="black"/>
<path d="M42.4173 40.3335H41.084V41.6668H42.4173V40.3335Z" fill="black"/>
<path d="M43.7454 40.3335H42.4121V41.6668H43.7454V40.3335Z" fill="black"/>
<path d="M46.4173 40.3335H45.084V41.6668H46.4173V40.3335Z" fill="black"/>
<path d="M21.0814 41.6667H19.748V43H21.0814V41.6667Z" fill="black"/>
<path d="M23.7454 41.6665H22.4121V42.9998H23.7454V41.6665Z" fill="black"/>
<path d="M25.0814 41.6667H23.748V43H25.0814V41.6667Z" fill="black"/>
<path d="M26.4173 41.6665H25.084V42.9998H26.4173V41.6665Z" fill="black"/>
<path d="M27.7454 41.6665H26.4121V42.9998H27.7454V41.6665Z" fill="black"/>
<path d="M29.0814 41.6667H27.748V43H29.0814V41.6667Z" fill="black"/>
<path d="M34.4173 41.6665H33.084V42.9998H34.4173V41.6665Z" fill="black"/>
<path d="M35.7454 41.6665H34.4121V42.9998H35.7454V41.6665Z" fill="black"/>
<path d="M42.4173 41.6665H41.084V42.9998H42.4173V41.6665Z" fill="black"/>
<path d="M47.7454 41.6665H46.4121V42.9998H47.7454V41.6665Z" fill="black"/>
<path d="M15.7454 43H14.4121V44.3333H15.7454V43Z" fill="black"/>
<path d="M19.7454 43H18.4121V44.3333H19.7454V43Z" fill="black"/>
<path d="M22.4173 43H21.084V44.3333H22.4173V43Z" fill="black"/>
<path d="M25.0814 43H23.748V44.3333H25.0814V43Z" fill="black"/>
<path d="M26.4173 43H25.084V44.3333H26.4173V43Z" fill="black"/>
<path d="M29.0814 43H27.748V44.3333H29.0814V43Z" fill="black"/>
<path d="M37.0814 43H35.748V44.3333H37.0814V43Z" fill="black"/>
<path d="M38.4173 43H37.084V44.3333H38.4173V43Z" fill="black"/>
<path d="M42.4173 43H41.084V44.3333H42.4173V43Z" fill="black"/>
<path d="M43.7454 43H42.4121V44.3333H43.7454V43Z" fill="black"/>
<path d="M45.0814 43H43.748V44.3333H45.0814V43Z" fill="black"/>
<path d="M47.7454 43H46.4121V44.3333H47.7454V43Z" fill="black"/>
<path d="M18.4173 44.3335H17.084V45.6668H18.4173V44.3335Z" fill="black"/>
<path d="M19.7454 44.3335H18.4121V45.6668H19.7454V44.3335Z" fill="black"/>
<path d="M21.0814 44.3333H19.748V45.6666H21.0814V44.3333Z" fill="black"/>
<path d="M23.7454 44.3335H22.4121V45.6668H23.7454V44.3335Z" fill="black"/>
<path d="M26.4173 44.3335H25.084V45.6668H26.4173V44.3335Z" fill="black"/>
<path d="M27.7454 44.3335H26.4121V45.6668H27.7454V44.3335Z" fill="black"/>
<path d="M29.0814 44.3333H27.748V45.6666H29.0814V44.3333Z" fill="black"/>
<path d="M30.4173 44.3335H29.084V45.6668H30.4173V44.3335Z" fill="black"/>
<path d="M33.0814 44.3333H31.748V45.6666H33.0814V44.3333Z" fill="black"/>
<path d="M35.7454 44.3335H34.4121V45.6668H35.7454V44.3335Z" fill="black"/>
<path d="M37.0814 44.3333H35.748V45.6666H37.0814V44.3333Z" fill="black"/>
<path d="M38.4173 44.3335H37.084V45.6668H38.4173V44.3335Z" fill="black"/>
<path d="M42.4173 44.3335H41.084V45.6668H42.4173V44.3335Z" fill="black"/>
<path d="M46.4173 44.3335H45.084V45.6668H46.4173V44.3335Z" fill="black"/>
<path d="M15.7454 45.6665H14.4121V46.9998H15.7454V45.6665Z" fill="black"/>
<path d="M17.0814 45.6667H15.748V47H17.0814V45.6667Z" fill="black"/>
<path d="M21.0814 45.6667H19.748V47H21.0814V45.6667Z" fill="black"/>
<path d="M22.4173 45.6665H21.084V46.9998H22.4173V45.6665Z" fill="black"/>
<path d="M25.0814 45.6667H23.748V47H25.0814V45.6667Z" fill="black"/>
<path d="M26.4173 45.6665H25.084V46.9998H26.4173V45.6665Z" fill="black"/>
<path d="M27.7454 45.6665H26.4121V46.9998H27.7454V45.6665Z" fill="black"/>
<path d="M29.0814 45.6667H27.748V47H29.0814V45.6667Z" fill="black"/>
<path d="M31.7454 45.6665H30.4121V46.9998H31.7454V45.6665Z" fill="black"/>
<path d="M33.0814 45.6667H31.748V47H33.0814V45.6667Z" fill="black"/>
<path d="M37.0814 45.6667H35.748V47H37.0814V45.6667Z" fill="black"/>
<path d="M39.7454 45.6665H38.4121V46.9998H39.7454V45.6665Z" fill="black"/>
<path d="M42.4173 45.6665H41.084V46.9998H42.4173V45.6665Z" fill="black"/>
<path d="M46.4173 45.6665H45.084V46.9998H46.4173V45.6665Z" fill="black"/>
<path d="M47.7454 45.6665H46.4121V46.9998H47.7454V45.6665Z" fill="black"/>
<path d="M9.89489 3.00073H6.93454C5.49179 3.00073 4.2695 3.95395 3.87871 5.25679C3.8383 5.39156 3.80675 5.53007 3.78482 5.67165C3.76065 5.82789 3.74805 5.98787 3.74805 6.15073V9.18136C3.74805 10.9191 5.17791 12.3323 6.93454 12.3323L8.41471 12.3326L9.89489 12.3322C11.6514 12.3322 13.0814 10.919 13.0814 9.18127V6.15073C13.0814 4.4138 11.6515 3.00073 9.89489 3.00073ZM11.6814 9.18136C11.6814 10.1468 10.88 10.9323 9.89451 10.9323L8.41471 10.9326L6.93491 10.9322C5.94941 10.9322 5.14805 10.1467 5.14805 9.18136V6.15073C5.14805 5.84917 5.22626 5.56525 5.36393 5.31717C5.49646 5.07852 5.68397 4.87328 5.90974 4.71788C6.20001 4.51805 6.55346 4.40073 6.93445 4.40073H9.89489C10.88 4.40073 11.6814 5.18576 11.6814 6.15073V9.18136Z" fill="black"/>
<path d="M44.5589 3.00073H41.5986C40.1559 3.00073 38.9336 3.95395 38.5428 5.25679C38.5024 5.39156 38.4708 5.53007 38.4489 5.67165C38.4247 5.82789 38.4121 5.98787 38.4121 6.15073V9.18136C38.4121 10.9191 39.842 12.3323 41.5986 12.3323L43.0788 12.3326L44.5589 12.3322C46.3155 12.3322 47.7454 10.919 47.7454 9.18127V6.15073C47.7454 4.4138 46.3156 3.00073 44.5589 3.00073ZM46.3454 9.18136C46.3454 10.1468 45.5441 10.9323 44.5586 10.9323L43.0788 10.9326L41.599 10.9322C40.6135 10.9322 39.8121 10.1467 39.8121 9.18136V6.15073C39.8121 5.84917 39.8903 5.56525 40.028 5.31717C40.1605 5.07852 40.348 4.87328 40.5738 4.71788C40.8641 4.51805 41.2175 4.40073 41.5985 4.40073H44.5589C45.5441 4.40073 46.3454 5.18576 46.3454 6.15073V9.18136Z" fill="black"/>
<path d="M9.89489 37.6674H6.93454C5.49179 37.6674 4.2695 38.6206 3.87871 39.9235C3.8383 40.0582 3.80675 40.1968 3.78482 40.3383C3.76065 40.4946 3.74805 40.6546 3.74805 40.8174V43.848C3.74805 45.5858 5.17791 46.999 6.93454 46.999L8.41471 46.9993L9.89489 46.9989C11.6514 46.9989 13.0814 45.5857 13.0814 43.848V40.8174C13.0814 39.0805 11.6515 37.6674 9.89489 37.6674ZM11.6814 43.848C11.6814 44.8135 10.88 45.599 9.89451 45.599L8.41471 45.5993L6.93491 45.5989C5.94941 45.5989 5.14805 44.8134 5.14805 43.848V40.8174C5.14805 40.5159 5.22626 40.2319 5.36393 39.9839C5.49646 39.7452 5.68397 39.54 5.90974 39.3846C6.20001 39.1847 6.55346 39.0674 6.93445 39.0674H9.89489C10.88 39.0674 11.6814 39.8524 11.6814 40.8174V43.848Z" fill="black"/>
<path d="M10.4121 5.6665H6.41211V9.6665H10.4121V5.6665Z" fill="black"/>
<path d="M45.084 5.6665H41.084V9.6665H45.084V5.6665Z" fill="black"/>
<path d="M10.4121 40.3335H6.41211V44.3335H10.4121V40.3335Z" fill="black"/>
</g>
<defs>
<clipPath id="clip0_6493_15557">
<rect width="50" height="50" fill="white" transform="translate(0.748047)"/>
</clipPath>
</defs>
</svg>
