<svg width="45" height="44" viewBox="0 0 45 44" fill="none" xmlns="http://www.w3.org/2000/svg">
<path d="M17.4411 0H15.9238V1.51724H17.4411V0Z" fill="black"/>
<path d="M26.5387 0H25.0215V1.51724H26.5387V0Z" fill="black"/>
<path d="M28.0583 0H26.541V1.51724H28.0583V0Z" fill="black"/>
<path d="M29.5778 0H28.0605V1.51724H29.5778V0Z" fill="black"/>
<path d="M31.0934 0H29.5762V1.51724H31.0934V0Z" fill="black"/>
<path d="M32.6129 0H31.0957V1.51724H32.6129V0Z" fill="black"/>
<path d="M18.9528 1.51709H17.4355V3.03433H18.9528V1.51709Z" fill="black"/>
<path d="M23.5036 1.51709H21.9863V3.03433H23.5036V1.51709Z" fill="black"/>
<path d="M25.027 1.51709H23.5098V3.03433H25.027V1.51709Z" fill="black"/>
<path d="M26.5387 1.51709H25.0215V3.03433H26.5387V1.51709Z" fill="black"/>
<path d="M14.4059 3.03467H12.8887V4.55191H14.4059V3.03467Z" fill="black"/>
<path d="M15.9176 3.03461H14.4004V4.55185H15.9176V3.03461Z" fill="black"/>
<path d="M18.9528 3.03467H17.4355V4.55191H18.9528V3.03467Z" fill="black"/>
<path d="M20.4723 3.03448H18.9551V4.55173H20.4723V3.03448Z" fill="black"/>
<path d="M25.027 3.03467H23.5098V4.55191H25.027V3.03467Z" fill="black"/>
<path d="M29.5778 3.03467H28.0605V4.55191H29.5778V3.03467Z" fill="black"/>
<path d="M14.4059 4.55151H12.8887V6.06876H14.4059V4.55151Z" fill="black"/>
<path d="M15.9176 4.55164H14.4004V6.06888H15.9176V4.55164Z" fill="black"/>
<path d="M17.4411 4.55151H15.9238V6.06876H17.4411V4.55151Z" fill="black"/>
<path d="M18.9528 4.55151H17.4355V6.06876H18.9528V4.55151Z" fill="black"/>
<path d="M23.5036 4.55151H21.9863V6.06876H23.5036V4.55151Z" fill="black"/>
<path d="M26.5387 4.55151H25.0215V6.06876H26.5387V4.55151Z" fill="black"/>
<path d="M28.0583 4.55151H26.541V6.06876H28.0583V4.55151Z" fill="black"/>
<path d="M32.6129 4.55151H31.0957V6.06876H32.6129V4.55151Z" fill="black"/>
<path d="M14.4059 6.06885H12.8887V7.58609H14.4059V6.06885Z" fill="black"/>
<path d="M15.9176 6.06873H14.4004V7.58597H15.9176V6.06873Z" fill="black"/>
<path d="M17.4411 6.06885H15.9238V7.58609H17.4411V6.06885Z" fill="black"/>
<path d="M18.9528 6.06885H17.4355V7.58609H18.9528V6.06885Z" fill="black"/>
<path d="M20.4723 6.06897H18.9551V7.58621H20.4723V6.06897Z" fill="black"/>
<path d="M26.5387 6.06885H25.0215V7.58609H26.5387V6.06885Z" fill="black"/>
<path d="M29.5778 6.06885H28.0605V7.58609H29.5778V6.06885Z" fill="black"/>
<path d="M31.0934 6.06885H29.5762V7.58609H31.0934V6.06885Z" fill="black"/>
<path d="M32.6129 6.06885H31.0957V7.58609H32.6129V6.06885Z" fill="black"/>
<path d="M14.4059 7.58618H12.8887V9.10342H14.4059V7.58618Z" fill="black"/>
<path d="M17.4411 7.58618H15.9238V9.10342H17.4411V7.58618Z" fill="black"/>
<path d="M18.9528 7.58618H17.4355V9.10342H18.9528V7.58618Z" fill="black"/>
<path d="M20.4723 7.58618H18.9551V9.10342H20.4723V7.58618Z" fill="black"/>
<path d="M21.9919 7.58618H20.4746V9.10342H21.9919V7.58618Z" fill="black"/>
<path d="M23.5036 7.58618H21.9863V9.10342H23.5036V7.58618Z" fill="black"/>
<path d="M25.027 7.58618H23.5098V9.10342H25.027V7.58618Z" fill="black"/>
<path d="M26.5387 7.58618H25.0215V9.10342H26.5387V7.58618Z" fill="black"/>
<path d="M14.4059 9.10327H12.8887V10.6205H14.4059V9.10327Z" fill="black"/>
<path d="M17.4411 9.10327H15.9238V10.6205H17.4411V9.10327Z" fill="black"/>
<path d="M20.4723 9.10345H18.9551V10.6207H20.4723V9.10345Z" fill="black"/>
<path d="M23.5036 9.10327H21.9863V10.6205H23.5036V9.10327Z" fill="black"/>
<path d="M26.5387 9.10327H25.0215V10.6205H26.5387V9.10327Z" fill="black"/>
<path d="M29.5778 9.10327H28.0605V10.6205H29.5778V9.10327Z" fill="black"/>
<path d="M32.6129 9.10327H31.0957V10.6205H32.6129V9.10327Z" fill="black"/>
<path d="M14.4059 10.6208H12.8887V12.1381H14.4059V10.6208Z" fill="black"/>
<path d="M15.9176 10.6208H14.4004V12.1381H15.9176V10.6208Z" fill="black"/>
<path d="M17.4411 10.6208H15.9238V12.1381H17.4411V10.6208Z" fill="black"/>
<path d="M18.9528 10.6208H17.4355V12.1381H18.9528V10.6208Z" fill="black"/>
<path d="M23.5036 10.6208H21.9863V12.1381H23.5036V10.6208Z" fill="black"/>
<path d="M26.5387 10.6208H25.0215V12.1381H26.5387V10.6208Z" fill="black"/>
<path d="M2.26529 12.1379H0.748047V13.6552H2.26529V12.1379Z" fill="black"/>
<path d="M5.29654 12.1379H3.7793V13.6552H5.29654V12.1379Z" fill="black"/>
<path d="M6.81998 12.1379H5.30273V13.6552H6.81998V12.1379Z" fill="black"/>
<path d="M8.33169 12.1379H6.81445V13.6552H8.33169V12.1379Z" fill="black"/>
<path d="M9.85123 12.1379H8.33398V13.6552H9.85123V12.1379Z" fill="black"/>
<path d="M11.3708 12.1379H9.85352V13.6552H11.3708V12.1379Z" fill="black"/>
<path d="M15.9176 12.1379H14.4004V13.6551H15.9176V12.1379Z" fill="black"/>
<path d="M17.4411 12.1379H15.9238V13.6552H17.4411V12.1379Z" fill="black"/>
<path d="M18.9528 12.1379H17.4355V13.6552H18.9528V12.1379Z" fill="black"/>
<path d="M21.9919 12.1379H20.4746V13.6552H21.9919V12.1379Z" fill="black"/>
<path d="M23.5036 12.1379H21.9863V13.6552H23.5036V12.1379Z" fill="black"/>
<path d="M25.027 12.1379H23.5098V13.6552H25.027V12.1379Z" fill="black"/>
<path d="M26.5387 12.1379H25.0215V13.6552H26.5387V12.1379Z" fill="black"/>
<path d="M28.0583 12.1379H26.541V13.6552H28.0583V12.1379Z" fill="black"/>
<path d="M29.5778 12.1379H28.0605V13.6552H29.5778V12.1379Z" fill="black"/>
<path d="M32.6129 12.1379H31.0957V13.6552H32.6129V12.1379Z" fill="black"/>
<path d="M35.6442 12.1379H34.127V13.6552H35.6442V12.1379Z" fill="black"/>
<path d="M37.1637 12.1379H35.6465V13.6552H37.1637V12.1379Z" fill="black"/>
<path d="M38.6794 12.1379H37.1621V13.6552H38.6794V12.1379Z" fill="black"/>
<path d="M40.1989 12.1379H38.6816V13.6552H40.1989V12.1379Z" fill="black"/>
<path d="M41.7106 12.1379H40.1934V13.6552H41.7106V12.1379Z" fill="black"/>
<path d="M12.8864 13.655H11.3691V15.1723H12.8864V13.655Z" fill="black"/>
<path d="M14.4059 13.655H12.8887V15.1723H14.4059V13.655Z" fill="black"/>
<path d="M21.9919 13.655H20.4746V15.1723H21.9919V13.655Z" fill="black"/>
<path d="M23.5036 13.655H21.9863V15.1723H23.5036V13.655Z" fill="black"/>
<path d="M25.027 13.655H23.5098V15.1723H25.027V13.655Z" fill="black"/>
<path d="M26.5387 13.655H25.0215V15.1723H26.5387V13.655Z" fill="black"/>
<path d="M28.0583 13.655H26.541V15.1723H28.0583V13.655Z" fill="black"/>
<path d="M29.5778 13.655H28.0605V15.1723H29.5778V13.655Z" fill="black"/>
<path d="M31.0934 13.655H29.5762V15.1723H31.0934V13.655Z" fill="black"/>
<path d="M32.6129 13.655H31.0957V15.1723H32.6129V13.655Z" fill="black"/>
<path d="M34.1247 13.655H32.6074V15.1722H34.1247V13.655Z" fill="black"/>
<path d="M35.6442 13.655H34.127V15.1723H35.6442V13.655Z" fill="black"/>
<path d="M37.1637 13.655H35.6465V15.1723H37.1637V13.655Z" fill="black"/>
<path d="M38.6794 13.6552H37.1621V15.1724H38.6794V13.6552Z" fill="black"/>
<path d="M44.7458 13.655H43.2285V15.1723H44.7458V13.655Z" fill="black"/>
<path d="M2.26529 15.1724H0.748047V16.6897H2.26529V15.1724Z" fill="black"/>
<path d="M3.78482 15.1726H2.26758V16.6898H3.78482V15.1726Z" fill="black"/>
<path d="M5.29654 15.1726H3.7793V16.6898H5.29654V15.1726Z" fill="black"/>
<path d="M9.85123 15.1726H8.33398V16.6898H9.85123V15.1726Z" fill="black"/>
<path d="M11.3708 15.1726H9.85352V16.6898H11.3708V15.1726Z" fill="black"/>
<path d="M12.8864 15.1726H11.3691V16.6898H12.8864V15.1726Z" fill="black"/>
<path d="M15.9176 15.1725H14.4004V16.6897H15.9176V15.1725Z" fill="black"/>
<path d="M20.4723 15.1724H18.9551V16.6897H20.4723V15.1724Z" fill="black"/>
<path d="M21.9919 15.1726H20.4746V16.6898H21.9919V15.1726Z" fill="black"/>
<path d="M25.027 15.1726H23.5098V16.6898H25.027V15.1726Z" fill="black"/>
<path d="M26.5387 15.1726H25.0215V16.6898H26.5387V15.1726Z" fill="black"/>
<path d="M28.0583 15.1726H26.541V16.6898H28.0583V15.1726Z" fill="black"/>
<path d="M32.6129 15.1726H31.0957V16.6898H32.6129V15.1726Z" fill="black"/>
<path d="M38.6794 15.1724H37.1621V16.6897H38.6794V15.1724Z" fill="black"/>
<path d="M2.26529 16.6896H0.748047V18.2069H2.26529V16.6896Z" fill="black"/>
<path d="M5.29654 16.6897H3.7793V18.2069H5.29654V16.6897Z" fill="black"/>
<path d="M9.85123 16.6897H8.33398V18.2069H9.85123V16.6897Z" fill="black"/>
<path d="M14.4059 16.6897H12.8887V18.2069H14.4059V16.6897Z" fill="black"/>
<path d="M17.4411 16.6897H15.9238V18.2069H17.4411V16.6897Z" fill="black"/>
<path d="M18.9528 16.6897H17.4355V18.2069H18.9528V16.6897Z" fill="black"/>
<path d="M26.5387 16.6897H25.0215V18.2069H26.5387V16.6897Z" fill="black"/>
<path d="M29.5778 16.6897H28.0605V18.2069H29.5778V16.6897Z" fill="black"/>
<path d="M34.1247 16.6896H32.6074V18.2068H34.1247V16.6896Z" fill="black"/>
<path d="M35.6442 16.6897H34.127V18.2069H35.6442V16.6897Z" fill="black"/>
<path d="M37.1637 16.6897H35.6465V18.2069H37.1637V16.6897Z" fill="black"/>
<path d="M38.6794 16.6896H37.1621V18.2069H38.6794V16.6896Z" fill="black"/>
<path d="M40.1989 16.6897H38.6816V18.2069H40.1989V16.6897Z" fill="black"/>
<path d="M43.2301 16.6897H41.7129V18.2069H43.2301V16.6897Z" fill="black"/>
<path d="M3.78482 18.207H2.26758V19.7243H3.78482V18.207Z" fill="black"/>
<path d="M5.29654 18.207H3.7793V19.7243H5.29654V18.207Z" fill="black"/>
<path d="M6.81998 18.207H5.30273V19.7243H6.81998V18.207Z" fill="black"/>
<path d="M8.33169 18.207H6.81445V19.7243H8.33169V18.207Z" fill="black"/>
<path d="M11.3708 18.207H9.85352V19.7243H11.3708V18.207Z" fill="black"/>
<path d="M14.4059 18.207H12.8887V19.7243H14.4059V18.207Z" fill="black"/>
<path d="M18.9528 18.207H17.4355V19.7243H18.9528V18.207Z" fill="black"/>
<path d="M23.5036 18.207H21.9863V19.7243H23.5036V18.207Z" fill="black"/>
<path d="M28.0583 18.207H26.541V19.7243H28.0583V18.207Z" fill="black"/>
<path d="M37.1637 18.207H35.6465V19.7243H37.1637V18.207Z" fill="black"/>
<path d="M40.1989 18.207H38.6816V19.7243H40.1989V18.207Z" fill="black"/>
<path d="M41.7106 18.207H40.1934V19.7243H41.7106V18.207Z" fill="black"/>
<path d="M5.29654 19.7241H3.7793V21.2414H5.29654V19.7241Z" fill="black"/>
<path d="M6.81998 19.7241H5.30273V21.2414H6.81998V19.7241Z" fill="black"/>
<path d="M8.33169 19.7241H6.81445V21.2414H8.33169V19.7241Z" fill="black"/>
<path d="M9.85123 19.7241H8.33398V21.2414H9.85123V19.7241Z" fill="black"/>
<path d="M12.8864 19.7241H11.3691V21.2414H12.8864V19.7241Z" fill="black"/>
<path d="M14.4059 19.7241H12.8887V21.2414H14.4059V19.7241Z" fill="black"/>
<path d="M17.4411 19.7241H15.9238V21.2414H17.4411V19.7241Z" fill="black"/>
<path d="M18.9528 19.7241H17.4355V21.2414H18.9528V19.7241Z" fill="black"/>
<path d="M21.9919 19.7241H20.4746V21.2414H21.9919V19.7241Z" fill="black"/>
<path d="M29.5778 19.7241H28.0605V21.2414H29.5778V19.7241Z" fill="black"/>
<path d="M31.0934 19.7241H29.5762V21.2414H31.0934V19.7241Z" fill="black"/>
<path d="M32.6129 19.7241H31.0957V21.2414H32.6129V19.7241Z" fill="black"/>
<path d="M34.1247 19.7241H32.6074V21.2414H34.1247V19.7241Z" fill="black"/>
<path d="M35.6442 19.7241H34.127V21.2414H35.6442V19.7241Z" fill="black"/>
<path d="M37.1637 19.7241H35.6465V21.2414H37.1637V19.7241Z" fill="black"/>
<path d="M38.6794 19.7241H37.1621V21.2414H38.6794V19.7241Z" fill="black"/>
<path d="M44.7458 19.7241H43.2285V21.2414H44.7458V19.7241Z" fill="black"/>
<path d="M2.26529 21.2414H0.748047V22.7586H2.26529V21.2414Z" fill="black"/>
<path d="M3.78482 21.2412H2.26758V22.7585H3.78482V21.2412Z" fill="black"/>
<path d="M9.85123 21.2412H8.33398V22.7585H9.85123V21.2412Z" fill="black"/>
<path d="M11.3708 21.2412H9.85352V22.7585H11.3708V21.2412Z" fill="black"/>
<path d="M12.8864 21.2412H11.3691V22.7585H12.8864V21.2412Z" fill="black"/>
<path d="M15.9176 21.2412H14.4004V22.7585H15.9176V21.2412Z" fill="black"/>
<path d="M18.9528 21.2412H17.4355V22.7585H18.9528V21.2412Z" fill="black"/>
<path d="M21.9919 21.2412H20.4746V22.7585H21.9919V21.2412Z" fill="black"/>
<path d="M25.027 21.2412H23.5098V22.7585H25.027V21.2412Z" fill="black"/>
<path d="M28.0583 21.2412H26.541V22.7585H28.0583V21.2412Z" fill="black"/>
<path d="M29.5778 21.2412H28.0605V22.7585H29.5778V21.2412Z" fill="black"/>
<path d="M35.6442 21.2412H34.127V22.7585H35.6442V21.2412Z" fill="black"/>
<path d="M37.1637 21.2412H35.6465V22.7585H37.1637V21.2412Z" fill="black"/>
<path d="M40.1989 21.2412H38.6816V22.7585H40.1989V21.2412Z" fill="black"/>
<path d="M41.7106 21.2412H40.1934V22.7585H41.7106V21.2412Z" fill="black"/>
<path d="M2.26529 22.7586H0.748047V24.2758H2.26529V22.7586Z" fill="black"/>
<path d="M6.81998 22.7588H5.30273V24.276H6.81998V22.7588Z" fill="black"/>
<path d="M8.33169 22.7588H6.81445V24.276H8.33169V22.7588Z" fill="black"/>
<path d="M9.85123 22.7588H8.33398V24.276H9.85123V22.7588Z" fill="black"/>
<path d="M15.9176 22.7587H14.4004V24.276H15.9176V22.7587Z" fill="black"/>
<path d="M18.9528 22.7588H17.4355V24.276H18.9528V22.7588Z" fill="black"/>
<path d="M20.4723 22.7586H18.9551V24.2758H20.4723V22.7586Z" fill="black"/>
<path d="M26.5387 22.7588H25.0215V24.276H26.5387V22.7588Z" fill="black"/>
<path d="M31.0934 22.7588H29.5762V24.276H31.0934V22.7588Z" fill="black"/>
<path d="M32.6129 22.7588H31.0957V24.276H32.6129V22.7588Z" fill="black"/>
<path d="M34.1247 22.7587H32.6074V24.276H34.1247V22.7587Z" fill="black"/>
<path d="M38.6794 22.7586H37.1621V24.2758H38.6794V22.7586Z" fill="black"/>
<path d="M43.2301 22.7588H41.7129V24.276H43.2301V22.7588Z" fill="black"/>
<path d="M2.26529 24.2759H0.748047V25.7931H2.26529V24.2759Z" fill="black"/>
<path d="M5.29654 24.2759H3.7793V25.7931H5.29654V24.2759Z" fill="black"/>
<path d="M8.33169 24.2759H6.81445V25.7931H8.33169V24.2759Z" fill="black"/>
<path d="M9.85123 24.2759H8.33398V25.7931H9.85123V24.2759Z" fill="black"/>
<path d="M11.3708 24.2759H9.85352V25.7931H11.3708V24.2759Z" fill="black"/>
<path d="M12.8864 24.2759H11.3691V25.7931H12.8864V24.2759Z" fill="black"/>
<path d="M15.9176 24.2759H14.4004V25.7931H15.9176V24.2759Z" fill="black"/>
<path d="M17.4411 24.2759H15.9238V25.7931H17.4411V24.2759Z" fill="black"/>
<path d="M18.9528 24.2759H17.4355V25.7931H18.9528V24.2759Z" fill="black"/>
<path d="M20.4723 24.2759H18.9551V25.7931H20.4723V24.2759Z" fill="black"/>
<path d="M21.9919 24.2759H20.4746V25.7931H21.9919V24.2759Z" fill="black"/>
<path d="M28.0583 24.2759H26.541V25.7931H28.0583V24.2759Z" fill="black"/>
<path d="M31.0934 24.2759H29.5762V25.7931H31.0934V24.2759Z" fill="black"/>
<path d="M37.1637 24.2759H35.6465V25.7931H37.1637V24.2759Z" fill="black"/>
<path d="M40.1989 24.2759H38.6816V25.7931H40.1989V24.2759Z" fill="black"/>
<path d="M41.7106 24.2759H40.1934V25.7931H41.7106V24.2759Z" fill="black"/>
<path d="M2.26529 25.7931H0.748047V27.3103H2.26529V25.7931Z" fill="black"/>
<path d="M5.29654 25.793H3.7793V27.3102H5.29654V25.793Z" fill="black"/>
<path d="M8.33169 25.793H6.81445V27.3102H8.33169V25.793Z" fill="black"/>
<path d="M9.85123 25.793H8.33398V27.3102H9.85123V25.793Z" fill="black"/>
<path d="M14.4059 25.793H12.8887V27.3102H14.4059V25.793Z" fill="black"/>
<path d="M17.4411 25.793H15.9238V27.3102H17.4411V25.793Z" fill="black"/>
<path d="M18.9528 25.793H17.4355V27.3102H18.9528V25.793Z" fill="black"/>
<path d="M23.5036 25.793H21.9863V27.3102H23.5036V25.793Z" fill="black"/>
<path d="M26.5387 25.793H25.0215V27.3102H26.5387V25.793Z" fill="black"/>
<path d="M28.0583 25.793H26.541V27.3102H28.0583V25.793Z" fill="black"/>
<path d="M29.5778 25.793H28.0605V27.3102H29.5778V25.793Z" fill="black"/>
<path d="M31.0934 25.793H29.5762V27.3102H31.0934V25.793Z" fill="black"/>
<path d="M34.1247 25.7928H32.6074V27.3101H34.1247V25.7928Z" fill="black"/>
<path d="M35.6442 25.793H34.127V27.3102H35.6442V25.793Z" fill="black"/>
<path d="M37.1637 25.793H35.6465V27.3102H37.1637V25.793Z" fill="black"/>
<path d="M38.6794 25.7931H37.1621V27.3103H38.6794V25.7931Z" fill="black"/>
<path d="M41.7106 25.793H40.1934V27.3102H41.7106V25.793Z" fill="black"/>
<path d="M44.7458 25.793H43.2285V27.3102H44.7458V25.793Z" fill="black"/>
<path d="M2.26529 27.3104H0.748047V28.8276H2.26529V27.3104Z" fill="black"/>
<path d="M5.29654 27.3105H3.7793V28.8278H5.29654V27.3105Z" fill="black"/>
<path d="M6.81998 27.3105H5.30273V28.8278H6.81998V27.3105Z" fill="black"/>
<path d="M11.3708 27.3105H9.85352V28.8278H11.3708V27.3105Z" fill="black"/>
<path d="M15.9176 27.3105H14.4004V28.8277H15.9176V27.3105Z" fill="black"/>
<path d="M18.9528 27.3105H17.4355V28.8278H18.9528V27.3105Z" fill="black"/>
<path d="M23.5036 27.3105H21.9863V28.8278H23.5036V27.3105Z" fill="black"/>
<path d="M25.027 27.3105H23.5098V28.8278H25.027V27.3105Z" fill="black"/>
<path d="M26.5387 27.3105H25.0215V28.8278H26.5387V27.3105Z" fill="black"/>
<path d="M28.0583 27.3105H26.541V28.8278H28.0583V27.3105Z" fill="black"/>
<path d="M34.1247 27.3105H32.6074V28.8277H34.1247V27.3105Z" fill="black"/>
<path d="M35.6442 27.3105H34.127V28.8278H35.6442V27.3105Z" fill="black"/>
<path d="M37.1637 27.3105H35.6465V28.8278H37.1637V27.3105Z" fill="black"/>
<path d="M38.6794 27.3104H37.1621V28.8276H38.6794V27.3104Z" fill="black"/>
<path d="M41.7106 27.3105H40.1934V28.8278H41.7106V27.3105Z" fill="black"/>
<path d="M2.26529 28.8276H0.748047V30.3448H2.26529V28.8276Z" fill="black"/>
<path d="M5.29654 28.8274H3.7793V30.3446H5.29654V28.8274Z" fill="black"/>
<path d="M8.33169 28.8274H6.81445V30.3446H8.33169V28.8274Z" fill="black"/>
<path d="M9.85123 28.8274H8.33398V30.3446H9.85123V28.8274Z" fill="black"/>
<path d="M12.8864 28.8274H11.3691V30.3446H12.8864V28.8274Z" fill="black"/>
<path d="M14.4059 28.8274H12.8887V30.3446H14.4059V28.8274Z" fill="black"/>
<path d="M15.9176 28.8275H14.4004V30.3447H15.9176V28.8275Z" fill="black"/>
<path d="M18.9528 28.8274H17.4355V30.3446H18.9528V28.8274Z" fill="black"/>
<path d="M25.027 28.8274H23.5098V30.3446H25.027V28.8274Z" fill="black"/>
<path d="M32.6129 28.8274H31.0957V30.3446H32.6129V28.8274Z" fill="black"/>
<path d="M37.1637 28.8274H35.6465V30.3446H37.1637V28.8274Z" fill="black"/>
<path d="M38.6794 28.8276H37.1621V30.3448H38.6794V28.8276Z" fill="black"/>
<path d="M43.2301 28.8274H41.7129V30.3446H43.2301V28.8274Z" fill="black"/>
<path d="M2.26529 30.3448H0.748047V31.8621H2.26529V30.3448Z" fill="black"/>
<path d="M11.3708 30.345H9.85352V31.8622H11.3708V30.345Z" fill="black"/>
<path d="M17.4411 30.345H15.9238V31.8622H17.4411V30.345Z" fill="black"/>
<path d="M18.9528 30.345H17.4355V31.8622H18.9528V30.345Z" fill="black"/>
<path d="M21.9919 30.345H20.4746V31.8622H21.9919V30.345Z" fill="black"/>
<path d="M23.5036 30.345H21.9863V31.8622H23.5036V30.345Z" fill="black"/>
<path d="M28.0583 30.345H26.541V31.8622H28.0583V30.345Z" fill="black"/>
<path d="M32.6129 30.345H31.0957V31.8622H32.6129V30.345Z" fill="black"/>
<path d="M34.1247 30.3451H32.6074V31.8623H34.1247V30.3451Z" fill="black"/>
<path d="M35.6442 30.345H34.127V31.8622H35.6442V30.345Z" fill="black"/>
<path d="M37.1637 30.345H35.6465V31.8622H37.1637V30.345Z" fill="black"/>
<path d="M38.6794 30.3448H37.1621V31.8621H38.6794V30.3448Z" fill="black"/>
<path d="M41.7106 30.345H40.1934V31.8622H41.7106V30.345Z" fill="black"/>
<path d="M43.2301 30.345H41.7129V31.8622H43.2301V30.345Z" fill="black"/>
<path d="M44.7458 30.345H43.2285V31.8622H44.7458V30.345Z" fill="black"/>
<path d="M14.4059 31.8621H12.8887V33.3793H14.4059V31.8621Z" fill="black"/>
<path d="M15.9176 31.8621H14.4004V33.3794H15.9176V31.8621Z" fill="black"/>
<path d="M17.4411 31.8621H15.9238V33.3793H17.4411V31.8621Z" fill="black"/>
<path d="M20.4723 31.8621H18.9551V33.3793H20.4723V31.8621Z" fill="black"/>
<path d="M26.5387 31.8621H25.0215V33.3793H26.5387V31.8621Z" fill="black"/>
<path d="M28.0583 31.8621H26.541V33.3793H28.0583V31.8621Z" fill="black"/>
<path d="M29.5778 31.8621H28.0605V33.3793H29.5778V31.8621Z" fill="black"/>
<path d="M31.0934 31.8621H29.5762V33.3793H31.0934V31.8621Z" fill="black"/>
<path d="M32.6129 31.8621H31.0957V33.3793H32.6129V31.8621Z" fill="black"/>
<path d="M38.6794 31.8621H37.1621V33.3793H38.6794V31.8621Z" fill="black"/>
<path d="M40.1989 31.8621H38.6816V33.3793H40.1989V31.8621Z" fill="black"/>
<path d="M41.7106 31.8621H40.1934V33.3793H41.7106V31.8621Z" fill="black"/>
<path d="M43.2301 31.8621H41.7129V33.3793H43.2301V31.8621Z" fill="black"/>
<path d="M44.7458 31.8621H43.2285V33.3793H44.7458V31.8621Z" fill="black"/>
<path d="M15.9176 33.3792H14.4004V34.8964H15.9176V33.3792Z" fill="black"/>
<path d="M21.9919 33.3792H20.4746V34.8964H21.9919V33.3792Z" fill="black"/>
<path d="M23.5036 33.3792H21.9863V34.8964H23.5036V33.3792Z" fill="black"/>
<path d="M25.027 33.3792H23.5098V34.8964H25.027V33.3792Z" fill="black"/>
<path d="M26.5387 33.3792H25.0215V34.8964H26.5387V33.3792Z" fill="black"/>
<path d="M31.0934 33.3792H29.5762V34.8964H31.0934V33.3792Z" fill="black"/>
<path d="M32.6129 33.3792H31.0957V34.8964H32.6129V33.3792Z" fill="black"/>
<path d="M35.6442 33.3792H34.127V34.8964H35.6442V33.3792Z" fill="black"/>
<path d="M38.6794 33.3793H37.1621V34.8965H38.6794V33.3793Z" fill="black"/>
<path d="M40.1989 33.3792H38.6816V34.8964H40.1989V33.3792Z" fill="black"/>
<path d="M41.7106 33.3792H40.1934V34.8964H41.7106V33.3792Z" fill="black"/>
<path d="M14.4059 34.8967H12.8887V36.414H14.4059V34.8967Z" fill="black"/>
<path d="M15.9176 34.8967H14.4004V36.414H15.9176V34.8967Z" fill="black"/>
<path d="M17.4411 34.8967H15.9238V36.414H17.4411V34.8967Z" fill="black"/>
<path d="M18.9528 34.8967H17.4355V36.414H18.9528V34.8967Z" fill="black"/>
<path d="M20.4723 34.8965H18.9551V36.4138H20.4723V34.8965Z" fill="black"/>
<path d="M23.5036 34.8967H21.9863V36.414H23.5036V34.8967Z" fill="black"/>
<path d="M26.5387 34.8967H25.0215V36.414H26.5387V34.8967Z" fill="black"/>
<path d="M31.0934 34.8967H29.5762V36.414H31.0934V34.8967Z" fill="black"/>
<path d="M32.6129 34.8967H31.0957V36.414H32.6129V34.8967Z" fill="black"/>
<path d="M38.6794 34.8965H37.1621V36.4138H38.6794V34.8965Z" fill="black"/>
<path d="M43.2301 34.8967H41.7129V36.414H43.2301V34.8967Z" fill="black"/>
<path d="M44.7458 34.8967H43.2285V36.414H44.7458V34.8967Z" fill="black"/>
<path d="M14.4059 36.4138H12.8887V37.9311H14.4059V36.4138Z" fill="black"/>
<path d="M18.9528 36.4138H17.4355V37.9311H18.9528V36.4138Z" fill="black"/>
<path d="M28.0583 36.4138H26.541V37.9311H28.0583V36.4138Z" fill="black"/>
<path d="M29.5778 36.4138H28.0605V37.9311H29.5778V36.4138Z" fill="black"/>
<path d="M32.6129 36.4138H31.0957V37.9311H32.6129V36.4138Z" fill="black"/>
<path d="M34.1247 36.4138H32.6074V37.931H34.1247V36.4138Z" fill="black"/>
<path d="M35.6442 36.4138H34.127V37.9311H35.6442V36.4138Z" fill="black"/>
<path d="M37.1637 36.4138H35.6465V37.9311H37.1637V36.4138Z" fill="black"/>
<path d="M38.6794 36.4138H37.1621V37.9311H38.6794V36.4138Z" fill="black"/>
<path d="M41.7106 36.4138H40.1934V37.9311H41.7106V36.4138Z" fill="black"/>
<path d="M43.2301 36.4138H41.7129V37.9311H43.2301V36.4138Z" fill="black"/>
<path d="M44.7458 36.4138H43.2285V37.9311H44.7458V36.4138Z" fill="black"/>
<path d="M14.4059 37.9309H12.8887V39.4481H14.4059V37.9309Z" fill="black"/>
<path d="M15.9176 37.9308H14.4004V39.4481H15.9176V37.9308Z" fill="black"/>
<path d="M17.4411 37.9309H15.9238V39.4481H17.4411V37.9309Z" fill="black"/>
<path d="M21.9919 37.9309H20.4746V39.4481H21.9919V37.9309Z" fill="black"/>
<path d="M26.5387 37.9309H25.0215V39.4481H26.5387V37.9309Z" fill="black"/>
<path d="M28.0583 37.9309H26.541V39.4481H28.0583V37.9309Z" fill="black"/>
<path d="M29.5778 37.9309H28.0605V39.4481H29.5778V37.9309Z" fill="black"/>
<path d="M40.1989 37.9309H38.6816V39.4481H40.1989V37.9309Z" fill="black"/>
<path d="M41.7106 37.9309H40.1934V39.4481H41.7106V37.9309Z" fill="black"/>
<path d="M43.2301 37.9309H41.7129V39.4481H43.2301V37.9309Z" fill="black"/>
<path d="M44.7458 37.9309H43.2285V39.4481H44.7458V37.9309Z" fill="black"/>
<path d="M14.4059 39.4482H12.8887V40.9655H14.4059V39.4482Z" fill="black"/>
<path d="M15.9176 39.4484H14.4004V40.9656H15.9176V39.4484Z" fill="black"/>
<path d="M20.4723 39.4483H18.9551V40.9655H20.4723V39.4483Z" fill="black"/>
<path d="M21.9919 39.4482H20.4746V40.9655H21.9919V39.4482Z" fill="black"/>
<path d="M25.027 39.4482H23.5098V40.9655H25.027V39.4482Z" fill="black"/>
<path d="M28.0583 39.4482H26.541V40.9655H28.0583V39.4482Z" fill="black"/>
<path d="M32.6129 39.4482H31.0957V40.9655H32.6129V39.4482Z" fill="black"/>
<path d="M34.1247 39.4484H32.6074V40.9656H34.1247V39.4484Z" fill="black"/>
<path d="M35.6442 39.4482H34.127V40.9655H35.6442V39.4482Z" fill="black"/>
<path d="M37.1637 39.4482H35.6465V40.9655H37.1637V39.4482Z" fill="black"/>
<path d="M38.6794 39.4483H37.1621V40.9655H38.6794V39.4483Z" fill="black"/>
<path d="M40.1989 39.4482H38.6816V40.9655H40.1989V39.4482Z" fill="black"/>
<path d="M41.7106 39.4482H40.1934V40.9655H41.7106V39.4482Z" fill="black"/>
<path d="M43.2301 39.4482H41.7129V40.9655H43.2301V39.4482Z" fill="black"/>
<path d="M17.4411 40.9653H15.9238V42.4826H17.4411V40.9653Z" fill="black"/>
<path d="M23.5036 40.9653H21.9863V42.4826H23.5036V40.9653Z" fill="black"/>
<path d="M32.6129 40.9653H31.0957V42.4826H32.6129V40.9653Z" fill="black"/>
<path d="M38.6794 40.9655H37.1621V42.4828H38.6794V40.9655Z" fill="black"/>
<path d="M40.1989 40.9653H38.6816V42.4826H40.1989V40.9653Z" fill="black"/>
<path d="M43.2301 40.9653H41.7129V42.4826H43.2301V40.9653Z" fill="black"/>
<path d="M14.4059 42.4829H12.8887V44.0002H14.4059V42.4829Z" fill="black"/>
<path d="M17.4411 42.4829H15.9238V44.0002H17.4411V42.4829Z" fill="black"/>
<path d="M23.5036 42.4829H21.9863V44.0002H23.5036V42.4829Z" fill="black"/>
<path d="M28.0583 42.4829H26.541V44.0002H28.0583V42.4829Z" fill="black"/>
<path d="M31.0934 42.4829H29.5762V44.0002H31.0934V42.4829Z" fill="black"/>
<path d="M35.6442 42.4829H34.127V44.0002H35.6442V42.4829Z" fill="black"/>
<path d="M37.1637 42.4829H35.6465V44.0002H37.1637V42.4829Z" fill="black"/>
<path d="M38.6794 42.4828H37.1621V44H38.6794V42.4828Z" fill="black"/>
<path d="M40.1989 42.4829H38.6816V44.0002H40.1989V42.4829Z" fill="black"/>
<path d="M41.7106 42.4829H40.1934V44.0002H41.7106V42.4829Z" fill="black"/>
<path d="M7.74273 0.000854492H4.37406C2.73231 0.000854492 1.34142 1.08555 0.896737 2.56809C0.850749 2.72145 0.814851 2.87906 0.789892 3.04018C0.762385 3.21797 0.748047 3.40001 0.748047 3.58534V7.03398C0.748047 9.01145 2.37514 10.6195 4.37406 10.6195L6.05839 10.6198L7.74273 10.6194C9.74154 10.6194 11.3687 9.01134 11.3687 7.03387V3.58534C11.3687 1.60883 9.74165 0.000854492 7.74273 0.000854492ZM9.77563 7.03398C9.77563 8.13259 8.86374 9.02642 7.7423 9.02642L6.05839 9.02674L4.37448 9.02632C3.25304 9.02632 2.34115 8.13248 2.34115 7.03398V3.58534C2.34115 3.24218 2.43015 2.9191 2.58681 2.6368C2.73762 2.36523 2.95099 2.13168 3.2079 1.95485C3.53821 1.72746 3.94041 1.59396 4.37395 1.59396H7.74273C8.86374 1.59396 9.77563 2.48726 9.77563 3.58534V7.03398Z" fill="black"/>
<path d="M41.1216 0.0012207H37.753C36.1112 0.0012207 34.7203 1.08591 34.2756 2.56845C34.2297 2.72182 34.1938 2.87943 34.1688 3.04054C34.1413 3.21833 34.127 3.40037 34.127 3.5857V7.03435C34.127 9.01181 35.754 10.6199 37.753 10.6199L39.4373 10.6202L41.1216 10.6198C43.1204 10.6198 44.7476 9.01171 44.7476 7.03424V3.5857C44.7476 1.60919 43.1206 0.0012207 41.1216 0.0012207ZM43.1545 7.03435C43.1545 8.13295 42.2426 9.02679 41.1212 9.02679L39.4373 9.02711L37.7534 9.02668C36.6319 9.02668 35.7201 8.13284 35.7201 7.03435V3.5857C35.7201 3.24255 35.8091 2.91947 35.9657 2.63717C36.1165 2.3656 36.3299 2.13205 36.5868 1.95522C36.9171 1.72783 37.3193 1.59432 37.7529 1.59432H41.1216C42.2426 1.59432 43.1545 2.48763 43.1545 3.5857V7.03435Z" fill="black"/>
<path d="M7.74273 33.3802H4.37406C2.73231 33.3802 1.34142 34.4649 0.896737 35.9474C0.850749 36.1008 0.814851 36.2584 0.789892 36.4195C0.762385 36.5973 0.748047 36.7793 0.748047 36.9647V40.4133C0.748047 42.3908 2.37514 43.9989 4.37406 43.9989L6.05839 43.9992L7.74273 43.9988C9.74154 43.9988 11.3687 42.3907 11.3687 40.4132V36.9647C11.3687 34.9882 9.74165 33.3802 7.74273 33.3802ZM9.77563 40.4133C9.77563 41.5119 8.86374 42.4058 7.7423 42.4058L6.05839 42.4061L4.37448 42.4057C3.25304 42.4057 2.34115 41.5118 2.34115 40.4133V36.9647C2.34115 36.6215 2.43015 36.2984 2.58681 36.0161C2.73762 35.7446 2.95099 35.511 3.2079 35.3342C3.53821 35.1068 3.94041 34.9733 4.37395 34.9733H7.74273C8.86374 34.9733 9.77563 35.8666 9.77563 36.9647V40.4133Z" fill="black"/>
<path d="M8.33102 3.03467H3.7793V7.58639H8.33102V3.03467Z" fill="black"/>
<path d="M41.7138 3.03448H37.1621V7.58621H41.7138V3.03448Z" fill="black"/>
<path d="M8.33102 36.4138H3.7793V40.9655H8.33102V36.4138Z" fill="black"/>
</svg>
