<svg width="51" height="50" viewBox="0 0 51 50" fill="none" xmlns="http://www.w3.org/2000/svg">
<g clip-path="url(#clip0_6113_5897)">
<rect x="0.748047" width="50" height="50" rx="5" fill="#DCFFF7"/>
<path d="M17.0814 3H15.748V4.33334H17.0814V3Z" fill="black"/>
<path d="M18.4134 3H17.0801V4.33334H18.4134V3Z" fill="black"/>
<path d="M19.7454 3H18.4121V4.33334H19.7454V3Z" fill="black"/>
<path d="M21.0814 3H19.748V4.33334H21.0814V3Z" fill="black"/>
<path d="M25.0814 3H23.748V4.33334H25.0814V3Z" fill="black"/>
<path d="M26.4134 3H25.0801V4.33334H26.4134V3Z" fill="black"/>
<path d="M29.0814 3H27.748V4.33334H29.0814V3Z" fill="black"/>
<path d="M30.4134 3H29.0801V4.33334H30.4134V3Z" fill="black"/>
<path d="M34.4173 3H33.084V4.33334H34.4173V3Z" fill="black"/>
<path d="M35.7494 3H34.416V4.33334H35.7494V3Z" fill="black"/>
<path d="M18.4134 4.33325H17.0801V5.66659H18.4134V4.33325Z" fill="black"/>
<path d="M25.0814 4.33325H23.748V5.66659H25.0814V4.33325Z" fill="black"/>
<path d="M26.4134 4.33325H25.0801V5.66659H26.4134V4.33325Z" fill="black"/>
<path d="M27.7454 4.33325H26.4121V5.66659H27.7454V4.33325Z" fill="black"/>
<path d="M31.7494 4.33325H30.416V5.66659H31.7494V4.33325Z" fill="black"/>
<path d="M33.0814 4.33325H31.748V5.66659H33.0814V4.33325Z" fill="black"/>
<path d="M34.4173 4.33325H33.084V5.66659H34.4173V4.33325Z" fill="black"/>
<path d="M35.7494 4.33325H34.416V5.66659H35.7494V4.33325Z" fill="black"/>
<path d="M37.0853 4.33325H35.752V5.66659H37.0853V4.33325Z" fill="black"/>
<path d="M17.0814 5.66675H15.748V7.00008H17.0814V5.66675Z" fill="black"/>
<path d="M18.4134 5.66675H17.0801V7.00008H18.4134V5.66675Z" fill="black"/>
<path d="M23.7494 5.66675H22.416V7.00008H23.7494V5.66675Z" fill="black"/>
<path d="M26.4134 5.66675H25.0801V7.00008H26.4134V5.66675Z" fill="black"/>
<path d="M27.7454 5.66675H26.4121V7.00008H27.7454V5.66675Z" fill="black"/>
<path d="M30.4134 5.66675H29.0801V7.00008H30.4134V5.66675Z" fill="black"/>
<path d="M35.7494 5.66675H34.416V7.00008H35.7494V5.66675Z" fill="black"/>
<path d="M37.0853 5.66675H35.752V7.00008H37.0853V5.66675Z" fill="black"/>
<path d="M17.0814 6.99976H15.748V8.33309H17.0814V6.99976Z" fill="black"/>
<path d="M18.4134 6.99976H17.0801V8.33309H18.4134V6.99976Z" fill="black"/>
<path d="M19.7454 6.99976H18.4121V8.33309H19.7454V6.99976Z" fill="black"/>
<path d="M21.0814 6.99976H19.748V8.33309H21.0814V6.99976Z" fill="black"/>
<path d="M22.4134 6.99976H21.0801V8.33309H22.4134V6.99976Z" fill="black"/>
<path d="M27.7454 6.99976H26.4121V8.33309H27.7454V6.99976Z" fill="black"/>
<path d="M30.4134 6.99976H29.0801V8.33309H30.4134V6.99976Z" fill="black"/>
<path d="M33.0814 6.99976H31.748V8.33309H33.0814V6.99976Z" fill="black"/>
<path d="M17.0814 8.3335H15.748V9.66683H17.0814V8.3335Z" fill="black"/>
<path d="M19.7454 8.3335H18.4121V9.66683H19.7454V8.3335Z" fill="black"/>
<path d="M26.4134 8.3335H25.0801V9.66683H26.4134V8.3335Z" fill="black"/>
<path d="M27.7454 8.3335H26.4121V9.66683H27.7454V8.3335Z" fill="black"/>
<path d="M30.4134 8.3335H29.0801V9.66683H30.4134V8.3335Z" fill="black"/>
<path d="M33.0814 8.3335H31.748V9.66683H33.0814V8.3335Z" fill="black"/>
<path d="M34.4173 8.3335H33.084V9.66683H34.4173V8.3335Z" fill="black"/>
<path d="M15.7494 9.66675H14.416V11.0001H15.7494V9.66675Z" fill="black"/>
<path d="M18.4134 9.66675H17.0801V11.0001H18.4134V9.66675Z" fill="black"/>
<path d="M27.7454 9.66675H26.4121V11.0001H27.7454V9.66675Z" fill="black"/>
<path d="M29.0814 9.66675H27.748V11.0001H29.0814V9.66675Z" fill="black"/>
<path d="M31.7494 9.66675H30.416V11.0001H31.7494V9.66675Z" fill="black"/>
<path d="M34.4173 9.66675H33.084V11.0001H34.4173V9.66675Z" fill="black"/>
<path d="M35.7494 9.66675H34.416V11.0001H35.7494V9.66675Z" fill="black"/>
<path d="M15.7494 11.0002H14.416V12.3336H15.7494V11.0002Z" fill="black"/>
<path d="M18.4134 11.0002H17.0801V12.3336H18.4134V11.0002Z" fill="black"/>
<path d="M21.0814 11.0002H19.748V12.3336H21.0814V11.0002Z" fill="black"/>
<path d="M23.7494 11.0002H22.416V12.3336H23.7494V11.0002Z" fill="black"/>
<path d="M26.4134 11.0002H25.0801V12.3336H26.4134V11.0002Z" fill="black"/>
<path d="M29.0814 11.0002H27.748V12.3336H29.0814V11.0002Z" fill="black"/>
<path d="M31.7494 11.0002H30.416V12.3336H31.7494V11.0002Z" fill="black"/>
<path d="M34.4173 11.0002H33.084V12.3336H34.4173V11.0002Z" fill="black"/>
<path d="M37.0853 11.0002H35.752V12.3336H37.0853V11.0002Z" fill="black"/>
<path d="M19.7454 12.3333H18.4121V13.6666H19.7454V12.3333Z" fill="black"/>
<path d="M23.7494 12.3333H22.416V13.6666H23.7494V12.3333Z" fill="black"/>
<path d="M27.7454 12.3333H26.4121V13.6666H27.7454V12.3333Z" fill="black"/>
<path d="M29.0814 12.3333H27.748V13.6666H29.0814V12.3333Z" fill="black"/>
<path d="M30.4134 12.3333H29.0801V13.6666H30.4134V12.3333Z" fill="black"/>
<path d="M31.7494 12.3333H30.416V13.6666H31.7494V12.3333Z" fill="black"/>
<path d="M33.0814 12.3333H31.748V13.6666H33.0814V12.3333Z" fill="black"/>
<path d="M37.0853 12.3333H35.752V13.6666H37.0853V12.3333Z" fill="black"/>
<path d="M5.08138 13.6667H3.74805V15.0001H5.08138V13.6667Z" fill="black"/>
<path d="M9.08138 13.6667H7.74805V15.0001H9.08138V13.6667Z" fill="black"/>
<path d="M11.7494 13.6667H10.416V15.0001H11.7494V13.6667Z" fill="black"/>
<path d="M13.0814 13.6667H11.748V15.0001H13.0814V13.6667Z" fill="black"/>
<path d="M15.7494 13.6667H14.416V15.0001H15.7494V13.6667Z" fill="black"/>
<path d="M21.0814 13.6667H19.748V15.0001H21.0814V13.6667Z" fill="black"/>
<path d="M22.4134 13.6667H21.0801V15.0001H22.4134V13.6667Z" fill="black"/>
<path d="M23.7494 13.6667H22.416V15.0001H23.7494V13.6667Z" fill="black"/>
<path d="M25.0814 13.6667H23.748V15.0001H25.0814V13.6667Z" fill="black"/>
<path d="M26.4134 13.6667H25.0801V15.0001H26.4134V13.6667Z" fill="black"/>
<path d="M30.4134 13.6667H29.0801V15.0001H30.4134V13.6667Z" fill="black"/>
<path d="M33.0814 13.6667H31.748V15.0001H33.0814V13.6667Z" fill="black"/>
<path d="M38.4173 13.6667H37.084V15.0001H38.4173V13.6667Z" fill="black"/>
<path d="M41.0814 13.6667H39.748V15.0001H41.0814V13.6667Z" fill="black"/>
<path d="M5.08138 15H3.74805V16.3333H5.08138V15Z" fill="black"/>
<path d="M6.41341 15H5.08008V16.3333H6.41341V15Z" fill="black"/>
<path d="M7.74935 15H6.41602V16.3333H7.74935V15Z" fill="black"/>
<path d="M9.08138 15H7.74805V16.3333H9.08138V15Z" fill="black"/>
<path d="M10.4173 15H9.08398V16.3333H10.4173V15Z" fill="black"/>
<path d="M14.4134 15H13.0801V16.3333H14.4134V15Z" fill="black"/>
<path d="M15.7494 15H14.416V16.3333H15.7494V15Z" fill="black"/>
<path d="M17.0814 15H15.748V16.3333H17.0814V15Z" fill="black"/>
<path d="M18.4134 15H17.0801V16.3333H18.4134V15Z" fill="black"/>
<path d="M21.0814 15H19.748V16.3333H21.0814V15Z" fill="black"/>
<path d="M23.7494 15H22.416V16.3333H23.7494V15Z" fill="black"/>
<path d="M26.4134 15H25.0801V16.3333H26.4134V15Z" fill="black"/>
<path d="M31.7494 15H30.416V16.3333H31.7494V15Z" fill="black"/>
<path d="M34.4173 15H33.084V16.3333H34.4173V15Z" fill="black"/>
<path d="M37.0853 15H35.752V16.3333H37.0853V15Z" fill="black"/>
<path d="M38.4173 15H37.084V16.3333H38.4173V15Z" fill="black"/>
<path d="M39.7494 15H38.416V16.3333H39.7494V15Z" fill="black"/>
<path d="M41.0814 15H39.748V16.3333H41.0814V15Z" fill="black"/>
<path d="M46.4134 15H45.0801V16.3333H46.4134V15Z" fill="black"/>
<path d="M47.7494 15H46.416V16.3333H47.7494V15Z" fill="black"/>
<path d="M5.08138 16.3332H3.74805V17.6665H5.08138V16.3332Z" fill="black"/>
<path d="M9.08138 16.3333H7.74805V17.6666H9.08138V16.3333Z" fill="black"/>
<path d="M10.4173 16.3333H9.08398V17.6666H10.4173V16.3333Z" fill="black"/>
<path d="M11.7494 16.3333H10.416V17.6666H11.7494V16.3333Z" fill="black"/>
<path d="M13.0814 16.3333H11.748V17.6666H13.0814V16.3333Z" fill="black"/>
<path d="M17.0814 16.3333H15.748V17.6666H17.0814V16.3333Z" fill="black"/>
<path d="M18.4134 16.3333H17.0801V17.6666H18.4134V16.3333Z" fill="black"/>
<path d="M19.7454 16.3333H18.4121V17.6666H19.7454V16.3333Z" fill="black"/>
<path d="M21.0814 16.3333H19.748V17.6666H21.0814V16.3333Z" fill="black"/>
<path d="M26.4134 16.3333H25.0801V17.6666H26.4134V16.3333Z" fill="black"/>
<path d="M27.7454 16.3333H26.4121V17.6666H27.7454V16.3333Z" fill="black"/>
<path d="M30.4134 16.3333H29.0801V17.6666H30.4134V16.3333Z" fill="black"/>
<path d="M31.7494 16.3333H30.416V17.6666H31.7494V16.3333Z" fill="black"/>
<path d="M33.0814 16.3333H31.748V17.6666H33.0814V16.3333Z" fill="black"/>
<path d="M34.4173 16.3333H33.084V17.6666H34.4173V16.3333Z" fill="black"/>
<path d="M37.0853 16.3333H35.752V17.6666H37.0853V16.3333Z" fill="black"/>
<path d="M39.7494 16.3333H38.416V17.6666H39.7494V16.3333Z" fill="black"/>
<path d="M41.0814 16.3333H39.748V17.6666H41.0814V16.3333Z" fill="black"/>
<path d="M42.4134 16.3333H41.0801V17.6666H42.4134V16.3333Z" fill="black"/>
<path d="M45.0814 16.3333H43.748V17.6666H45.0814V16.3333Z" fill="black"/>
<path d="M47.7494 16.3333H46.416V17.6666H47.7494V16.3333Z" fill="black"/>
<path d="M11.7494 17.6665H10.416V18.9998H11.7494V17.6665Z" fill="black"/>
<path d="M15.7494 17.6665H14.416V18.9998H15.7494V17.6665Z" fill="black"/>
<path d="M19.7454 17.6665H18.4121V18.9998H19.7454V17.6665Z" fill="black"/>
<path d="M21.0814 17.6665H19.748V18.9998H21.0814V17.6665Z" fill="black"/>
<path d="M23.7494 17.6665H22.416V18.9998H23.7494V17.6665Z" fill="black"/>
<path d="M27.7454 17.6665H26.4121V18.9998H27.7454V17.6665Z" fill="black"/>
<path d="M35.7494 17.6665H34.416V18.9998H35.7494V17.6665Z" fill="black"/>
<path d="M37.0853 17.6665H35.752V18.9998H37.0853V17.6665Z" fill="black"/>
<path d="M39.7494 17.6665H38.416V18.9998H39.7494V17.6665Z" fill="black"/>
<path d="M42.4134 17.6665H41.0801V18.9998H42.4134V17.6665Z" fill="black"/>
<path d="M43.7454 17.6665H42.4121V18.9998H43.7454V17.6665Z" fill="black"/>
<path d="M46.4134 17.6666H45.0801V19H46.4134V17.6666Z" fill="black"/>
<path d="M47.7494 17.6665H46.416V18.9998H47.7494V17.6665Z" fill="black"/>
<path d="M6.41341 19H5.08008V20.3333H6.41341V19Z" fill="black"/>
<path d="M7.74935 19.0001H6.41602V20.3334H7.74935V19.0001Z" fill="black"/>
<path d="M11.7494 19H10.416V20.3333H11.7494V19Z" fill="black"/>
<path d="M13.0814 19H11.748V20.3333H13.0814V19Z" fill="black"/>
<path d="M14.4134 19H13.0801V20.3333H14.4134V19Z" fill="black"/>
<path d="M21.0814 19H19.748V20.3333H21.0814V19Z" fill="black"/>
<path d="M30.4134 19H29.0801V20.3333H30.4134V19Z" fill="black"/>
<path d="M35.7494 19H34.416V20.3333H35.7494V19Z" fill="black"/>
<path d="M37.0853 19H35.752V20.3333H37.0853V19Z" fill="black"/>
<path d="M38.4173 19H37.084V20.3333H38.4173V19Z" fill="black"/>
<path d="M39.7494 19H38.416V20.3333H39.7494V19Z" fill="black"/>
<path d="M41.0814 19H39.748V20.3333H41.0814V19Z" fill="black"/>
<path d="M43.7454 19H42.4121V20.3333H43.7454V19Z" fill="black"/>
<path d="M15.7494 20.3335H14.416V21.6668H15.7494V20.3335Z" fill="black"/>
<path d="M17.0814 20.3335H15.748V21.6668H17.0814V20.3335Z" fill="black"/>
<path d="M18.4134 20.3335H17.0801V21.6668H18.4134V20.3335Z" fill="black"/>
<path d="M19.7454 20.3335H18.4121V21.6668H19.7454V20.3335Z" fill="black"/>
<path d="M21.0814 20.3335H19.748V21.6668H21.0814V20.3335Z" fill="black"/>
<path d="M22.4134 20.3335H21.0801V21.6668H22.4134V20.3335Z" fill="black"/>
<path d="M25.0814 20.3335H23.748V21.6668H25.0814V20.3335Z" fill="black"/>
<path d="M26.4134 20.3335H25.0801V21.6668H26.4134V20.3335Z" fill="black"/>
<path d="M33.0814 20.3335H31.748V21.6668H33.0814V20.3335Z" fill="black"/>
<path d="M34.4173 20.3335H33.084V21.6668H34.4173V20.3335Z" fill="black"/>
<path d="M35.7494 20.3335H34.416V21.6668H35.7494V20.3335Z" fill="black"/>
<path d="M39.7494 20.3335H38.416V21.6668H39.7494V20.3335Z" fill="black"/>
<path d="M41.0814 20.3335H39.748V21.6668H41.0814V20.3335Z" fill="black"/>
<path d="M42.4134 20.3335H41.0801V21.6668H42.4134V20.3335Z" fill="black"/>
<path d="M46.4134 20.3335H45.0801V21.6668H46.4134V20.3335Z" fill="black"/>
<path d="M47.7494 20.3335H46.416V21.6668H47.7494V20.3335Z" fill="black"/>
<path d="M5.08138 21.6667H3.74805V23H5.08138V21.6667Z" fill="black"/>
<path d="M7.74935 21.6667H6.41602V23H7.74935V21.6667Z" fill="black"/>
<path d="M10.4173 21.6667H9.08398V23.0001H10.4173V21.6667Z" fill="black"/>
<path d="M11.7494 21.6667H10.416V23.0001H11.7494V21.6667Z" fill="black"/>
<path d="M13.0814 21.6667H11.748V23.0001H13.0814V21.6667Z" fill="black"/>
<path d="M14.4134 21.6667H13.0801V23.0001H14.4134V21.6667Z" fill="black"/>
<path d="M15.7494 21.6667H14.416V23.0001H15.7494V21.6667Z" fill="black"/>
<path d="M17.0814 21.6667H15.748V23.0001H17.0814V21.6667Z" fill="black"/>
<path d="M18.4134 21.6667H17.0801V23.0001H18.4134V21.6667Z" fill="black"/>
<path d="M21.0814 21.6667H19.748V23.0001H21.0814V21.6667Z" fill="black"/>
<path d="M23.7494 21.6667H22.416V23.0001H23.7494V21.6667Z" fill="black"/>
<path d="M27.7454 21.6667H26.4121V23.0001H27.7454V21.6667Z" fill="black"/>
<path d="M31.7494 21.6667H30.416V23.0001H31.7494V21.6667Z" fill="black"/>
<path d="M35.7494 21.6667H34.416V23.0001H35.7494V21.6667Z" fill="black"/>
<path d="M38.4173 21.6667H37.084V23.0001H38.4173V21.6667Z" fill="black"/>
<path d="M39.7494 21.6667H38.416V23.0001H39.7494V21.6667Z" fill="black"/>
<path d="M41.0814 21.6667H39.748V23.0001H41.0814V21.6667Z" fill="black"/>
<path d="M43.7454 21.6667H42.4121V23.0001H43.7454V21.6667Z" fill="black"/>
<path d="M45.0814 21.6667H43.748V23.0001H45.0814V21.6667Z" fill="black"/>
<path d="M46.4134 21.6667H45.0801V23H46.4134V21.6667Z" fill="black"/>
<path d="M5.08138 23.0001H3.74805V24.3335H5.08138V23.0001Z" fill="black"/>
<path d="M15.7494 23H14.416V24.3333H15.7494V23Z" fill="black"/>
<path d="M19.7454 23H18.4121V24.3333H19.7454V23Z" fill="black"/>
<path d="M23.7494 23H22.416V24.3333H23.7494V23Z" fill="black"/>
<path d="M25.0814 23H23.748V24.3333H25.0814V23Z" fill="black"/>
<path d="M27.7454 23H26.4121V24.3333H27.7454V23Z" fill="black"/>
<path d="M29.0814 23H27.748V24.3333H29.0814V23Z" fill="black"/>
<path d="M30.4134 23H29.0801V24.3333H30.4134V23Z" fill="black"/>
<path d="M33.0814 23H31.748V24.3333H33.0814V23Z" fill="black"/>
<path d="M34.4173 23H33.084V24.3333H34.4173V23Z" fill="black"/>
<path d="M37.0853 23H35.752V24.3333H37.0853V23Z" fill="black"/>
<path d="M39.7494 23H38.416V24.3333H39.7494V23Z" fill="black"/>
<path d="M46.4134 23.0001H45.0801V24.3335H46.4134V23.0001Z" fill="black"/>
<path d="M5.08138 24.3333H3.74805V25.6666H5.08138V24.3333Z" fill="black"/>
<path d="M6.41341 24.3333H5.08008V25.6666H6.41341V24.3333Z" fill="black"/>
<path d="M7.74935 24.3333H6.41602V25.6666H7.74935V24.3333Z" fill="black"/>
<path d="M9.08138 24.3333H7.74805V25.6666H9.08138V24.3333Z" fill="black"/>
<path d="M10.4173 24.3333H9.08398V25.6666H10.4173V24.3333Z" fill="black"/>
<path d="M11.7494 24.3333H10.416V25.6666H11.7494V24.3333Z" fill="black"/>
<path d="M13.0814 24.3333H11.748V25.6666H13.0814V24.3333Z" fill="black"/>
<path d="M15.7494 24.3333H14.416V25.6666H15.7494V24.3333Z" fill="black"/>
<path d="M17.0814 24.3333H15.748V25.6666H17.0814V24.3333Z" fill="black"/>
<path d="M19.7454 24.3333H18.4121V25.6666H19.7454V24.3333Z" fill="black"/>
<path d="M21.0814 24.3333H19.748V25.6666H21.0814V24.3333Z" fill="black"/>
<path d="M27.7454 24.3333H26.4121V25.6666H27.7454V24.3333Z" fill="black"/>
<path d="M29.0814 24.3333H27.748V25.6666H29.0814V24.3333Z" fill="black"/>
<path d="M30.4134 24.3333H29.0801V25.6666H30.4134V24.3333Z" fill="black"/>
<path d="M31.7494 24.3333H30.416V25.6666H31.7494V24.3333Z" fill="black"/>
<path d="M33.0814 24.3333H31.748V25.6666H33.0814V24.3333Z" fill="black"/>
<path d="M34.4173 24.3333H33.084V25.6666H34.4173V24.3333Z" fill="black"/>
<path d="M37.0853 24.3333H35.752V25.6666H37.0853V24.3333Z" fill="black"/>
<path d="M39.7494 24.3333H38.416V25.6666H39.7494V24.3333Z" fill="black"/>
<path d="M42.4134 24.3333H41.0801V25.6666H42.4134V24.3333Z" fill="black"/>
<path d="M46.4134 24.3333H45.0801V25.6666H46.4134V24.3333Z" fill="black"/>
<path d="M5.08138 25.6665H3.74805V26.9998H5.08138V25.6665Z" fill="black"/>
<path d="M6.41341 25.6665H5.08008V26.9998H6.41341V25.6665Z" fill="black"/>
<path d="M9.08138 25.6665H7.74805V26.9998H9.08138V25.6665Z" fill="black"/>
<path d="M10.4173 25.6665H9.08398V26.9998H10.4173V25.6665Z" fill="black"/>
<path d="M11.7494 25.6665H10.416V26.9998H11.7494V25.6665Z" fill="black"/>
<path d="M14.4134 25.6665H13.0801V26.9998H14.4134V25.6665Z" fill="black"/>
<path d="M15.7494 25.6665H14.416V26.9998H15.7494V25.6665Z" fill="black"/>
<path d="M18.4134 25.6665H17.0801V26.9998H18.4134V25.6665Z" fill="black"/>
<path d="M21.0814 25.6665H19.748V26.9998H21.0814V25.6665Z" fill="black"/>
<path d="M22.4134 25.6665H21.0801V26.9998H22.4134V25.6665Z" fill="black"/>
<path d="M26.4134 25.6665H25.0801V26.9998H26.4134V25.6665Z" fill="black"/>
<path d="M31.7494 25.6665H30.416V26.9998H31.7494V25.6665Z" fill="black"/>
<path d="M33.0814 25.6665H31.748V26.9998H33.0814V25.6665Z" fill="black"/>
<path d="M34.4173 25.6665H33.084V26.9998H34.4173V25.6665Z" fill="black"/>
<path d="M35.7494 25.6665H34.416V26.9998H35.7494V25.6665Z" fill="black"/>
<path d="M41.0814 25.6665H39.748V26.9998H41.0814V25.6665Z" fill="black"/>
<path d="M43.7454 25.6665H42.4121V26.9998H43.7454V25.6665Z" fill="black"/>
<path d="M47.7494 25.6665H46.416V26.9998H47.7494V25.6665Z" fill="black"/>
<path d="M5.08138 26.9999H3.74805V28.3333H5.08138V26.9999Z" fill="black"/>
<path d="M6.41341 27H5.08008V28.3333H6.41341V27Z" fill="black"/>
<path d="M13.0814 27H11.748V28.3333H13.0814V27Z" fill="black"/>
<path d="M14.4134 27H13.0801V28.3333H14.4134V27Z" fill="black"/>
<path d="M15.7494 27H14.416V28.3333H15.7494V27Z" fill="black"/>
<path d="M17.0814 27H15.748V28.3333H17.0814V27Z" fill="black"/>
<path d="M18.4134 27H17.0801V28.3333H18.4134V27Z" fill="black"/>
<path d="M19.7454 27H18.4121V28.3333H19.7454V27Z" fill="black"/>
<path d="M26.4134 27H25.0801V28.3333H26.4134V27Z" fill="black"/>
<path d="M29.0814 27H27.748V28.3333H29.0814V27Z" fill="black"/>
<path d="M34.4173 27H33.084V28.3333H34.4173V27Z" fill="black"/>
<path d="M45.0814 27H43.748V28.3333H45.0814V27Z" fill="black"/>
<path d="M46.4134 26.9999H45.0801V28.3333H46.4134V26.9999Z" fill="black"/>
<path d="M47.7494 27H46.416V28.3333H47.7494V27Z" fill="black"/>
<path d="M7.74935 28.3334H6.41602V29.6667H7.74935V28.3334Z" fill="black"/>
<path d="M10.4173 28.3335H9.08398V29.6668H10.4173V28.3335Z" fill="black"/>
<path d="M14.4134 28.3335H13.0801V29.6668H14.4134V28.3335Z" fill="black"/>
<path d="M17.0814 28.3335H15.748V29.6668H17.0814V28.3335Z" fill="black"/>
<path d="M21.0814 28.3335H19.748V29.6668H21.0814V28.3335Z" fill="black"/>
<path d="M22.4134 28.3335H21.0801V29.6668H22.4134V28.3335Z" fill="black"/>
<path d="M25.0814 28.3335H23.748V29.6668H25.0814V28.3335Z" fill="black"/>
<path d="M27.7454 28.3335H26.4121V29.6668H27.7454V28.3335Z" fill="black"/>
<path d="M29.0814 28.3335H27.748V29.6668H29.0814V28.3335Z" fill="black"/>
<path d="M31.7494 28.3335H30.416V29.6668H31.7494V28.3335Z" fill="black"/>
<path d="M33.0814 28.3335H31.748V29.6668H33.0814V28.3335Z" fill="black"/>
<path d="M37.0853 28.3335H35.752V29.6668H37.0853V28.3335Z" fill="black"/>
<path d="M38.4173 28.3335H37.084V29.6668H38.4173V28.3335Z" fill="black"/>
<path d="M41.0814 28.3335H39.748V29.6668H41.0814V28.3335Z" fill="black"/>
<path d="M46.4134 28.3334H45.0801V29.6667H46.4134V28.3334Z" fill="black"/>
<path d="M10.4173 29.6667H9.08398V31.0001H10.4173V29.6667Z" fill="black"/>
<path d="M13.0814 29.6667H11.748V31.0001H13.0814V29.6667Z" fill="black"/>
<path d="M15.7494 29.6667H14.416V31.0001H15.7494V29.6667Z" fill="black"/>
<path d="M18.4134 29.6667H17.0801V31.0001H18.4134V29.6667Z" fill="black"/>
<path d="M26.4134 29.6667H25.0801V31.0001H26.4134V29.6667Z" fill="black"/>
<path d="M27.7454 29.6667H26.4121V31.0001H27.7454V29.6667Z" fill="black"/>
<path d="M29.0814 29.6667H27.748V31.0001H29.0814V29.6667Z" fill="black"/>
<path d="M34.4173 29.6667H33.084V31.0001H34.4173V29.6667Z" fill="black"/>
<path d="M35.7494 29.6667H34.416V31.0001H35.7494V29.6667Z" fill="black"/>
<path d="M38.4173 29.6667H37.084V31.0001H38.4173V29.6667Z" fill="black"/>
<path d="M42.4134 29.6667H41.0801V31.0001H42.4134V29.6667Z" fill="black"/>
<path d="M46.4134 29.6668H45.0801V31.0001H46.4134V29.6668Z" fill="black"/>
<path d="M47.7494 29.6667H46.416V31.0001H47.7494V29.6667Z" fill="black"/>
<path d="M6.41341 31H5.08008V32.3333H6.41341V31Z" fill="black"/>
<path d="M9.08138 31H7.74805V32.3333H9.08138V31Z" fill="black"/>
<path d="M14.4134 31H13.0801V32.3333H14.4134V31Z" fill="black"/>
<path d="M15.7494 31H14.416V32.3333H15.7494V31Z" fill="black"/>
<path d="M17.0814 31H15.748V32.3333H17.0814V31Z" fill="black"/>
<path d="M18.4134 31H17.0801V32.3333H18.4134V31Z" fill="black"/>
<path d="M21.0814 31H19.748V32.3333H21.0814V31Z" fill="black"/>
<path d="M25.0814 31H23.748V32.3333H25.0814V31Z" fill="black"/>
<path d="M26.4134 31H25.0801V32.3333H26.4134V31Z" fill="black"/>
<path d="M29.0814 31H27.748V32.3333H29.0814V31Z" fill="black"/>
<path d="M30.4134 31H29.0801V32.3333H30.4134V31Z" fill="black"/>
<path d="M31.7494 31H30.416V32.3333H31.7494V31Z" fill="black"/>
<path d="M33.0814 31H31.748V32.3333H33.0814V31Z" fill="black"/>
<path d="M34.4173 31H33.084V32.3333H34.4173V31Z" fill="black"/>
<path d="M37.0853 31H35.752V32.3333H37.0853V31Z" fill="black"/>
<path d="M38.4173 31H37.084V32.3333H38.4173V31Z" fill="black"/>
<path d="M39.7494 31H38.416V32.3333H39.7494V31Z" fill="black"/>
<path d="M45.0814 31H43.748V32.3333H45.0814V31Z" fill="black"/>
<path d="M46.4134 31H45.0801V32.3333H46.4134V31Z" fill="black"/>
<path d="M47.7494 31H46.416V32.3333H47.7494V31Z" fill="black"/>
<path d="M5.08138 32.3334H3.74805V33.6668H5.08138V32.3334Z" fill="black"/>
<path d="M6.41341 32.3335H5.08008V33.6668H6.41341V32.3335Z" fill="black"/>
<path d="M13.0814 32.3335H11.748V33.6668H13.0814V32.3335Z" fill="black"/>
<path d="M17.0814 32.3335H15.748V33.6668H17.0814V32.3335Z" fill="black"/>
<path d="M18.4134 32.3335H17.0801V33.6668H18.4134V32.3335Z" fill="black"/>
<path d="M19.7454 32.3335H18.4121V33.6668H19.7454V32.3335Z" fill="black"/>
<path d="M22.4134 32.3335H21.0801V33.6668H22.4134V32.3335Z" fill="black"/>
<path d="M25.0814 32.3335H23.748V33.6668H25.0814V32.3335Z" fill="black"/>
<path d="M27.7454 32.3335H26.4121V33.6668H27.7454V32.3335Z" fill="black"/>
<path d="M31.7494 32.3335H30.416V33.6668H31.7494V32.3335Z" fill="black"/>
<path d="M34.4173 32.3335H33.084V33.6668H34.4173V32.3335Z" fill="black"/>
<path d="M37.0853 32.3335H35.752V33.6668H37.0853V32.3335Z" fill="black"/>
<path d="M39.7494 32.3335H38.416V33.6668H39.7494V32.3335Z" fill="black"/>
<path d="M41.0814 32.3335H39.748V33.6668H41.0814V32.3335Z" fill="black"/>
<path d="M42.4134 32.3335H41.0801V33.6668H42.4134V32.3335Z" fill="black"/>
<path d="M45.0814 32.3335H43.748V33.6668H45.0814V32.3335Z" fill="black"/>
<path d="M47.7494 32.3335H46.416V33.6668H47.7494V32.3335Z" fill="black"/>
<path d="M6.41341 33.6667H5.08008V35.0001H6.41341V33.6667Z" fill="black"/>
<path d="M7.74935 33.6667H6.41602V35H7.74935V33.6667Z" fill="black"/>
<path d="M15.7494 33.6667H14.416V35.0001H15.7494V33.6667Z" fill="black"/>
<path d="M19.7454 33.6667H18.4121V35.0001H19.7454V33.6667Z" fill="black"/>
<path d="M21.0814 33.6667H19.748V35.0001H21.0814V33.6667Z" fill="black"/>
<path d="M23.7494 33.6667H22.416V35.0001H23.7494V33.6667Z" fill="black"/>
<path d="M26.4134 33.6667H25.0801V35.0001H26.4134V33.6667Z" fill="black"/>
<path d="M29.0814 33.6667H27.748V35.0001H29.0814V33.6667Z" fill="black"/>
<path d="M33.0814 33.6667H31.748V35.0001H33.0814V33.6667Z" fill="black"/>
<path d="M35.7494 33.6667H34.416V35.0001H35.7494V33.6667Z" fill="black"/>
<path d="M41.0814 33.6667H39.748V35.0001H41.0814V33.6667Z" fill="black"/>
<path d="M43.7454 33.6667H42.4121V35.0001H43.7454V33.6667Z" fill="black"/>
<path d="M5.08138 35.0001H3.74805V36.3335H5.08138V35.0001Z" fill="black"/>
<path d="M13.0814 35H11.748V36.3333H13.0814V35Z" fill="black"/>
<path d="M14.4134 35H13.0801V36.3333H14.4134V35Z" fill="black"/>
<path d="M19.7454 35H18.4121V36.3333H19.7454V35Z" fill="black"/>
<path d="M23.7494 35H22.416V36.3333H23.7494V35Z" fill="black"/>
<path d="M25.0814 35H23.748V36.3333H25.0814V35Z" fill="black"/>
<path d="M27.7454 35H26.4121V36.3333H27.7454V35Z" fill="black"/>
<path d="M30.4134 35H29.0801V36.3333H30.4134V35Z" fill="black"/>
<path d="M31.7494 35H30.416V36.3333H31.7494V35Z" fill="black"/>
<path d="M33.0814 35H31.748V36.3333H33.0814V35Z" fill="black"/>
<path d="M35.7494 35H34.416V36.3333H35.7494V35Z" fill="black"/>
<path d="M37.0853 35H35.752V36.3333H37.0853V35Z" fill="black"/>
<path d="M38.4173 35H37.084V36.3333H38.4173V35Z" fill="black"/>
<path d="M39.7494 35H38.416V36.3333H39.7494V35Z" fill="black"/>
<path d="M41.0814 35H39.748V36.3333H41.0814V35Z" fill="black"/>
<path d="M42.4134 35H41.0801V36.3333H42.4134V35Z" fill="black"/>
<path d="M15.7494 36.3333H14.416V37.6666H15.7494V36.3333Z" fill="black"/>
<path d="M17.0814 36.3333H15.748V37.6666H17.0814V36.3333Z" fill="black"/>
<path d="M21.0814 36.3333H19.748V37.6666H21.0814V36.3333Z" fill="black"/>
<path d="M22.4134 36.3333H21.0801V37.6666H22.4134V36.3333Z" fill="black"/>
<path d="M29.0814 36.3333H27.748V37.6666H29.0814V36.3333Z" fill="black"/>
<path d="M30.4134 36.3333H29.0801V37.6666H30.4134V36.3333Z" fill="black"/>
<path d="M31.7494 36.3333H30.416V37.6666H31.7494V36.3333Z" fill="black"/>
<path d="M37.0853 36.3333H35.752V37.6666H37.0853V36.3333Z" fill="black"/>
<path d="M42.4134 36.3333H41.0801V37.6666H42.4134V36.3333Z" fill="black"/>
<path d="M43.7454 36.3333H42.4121V37.6666H43.7454V36.3333Z" fill="black"/>
<path d="M46.4134 36.3333H45.0801V37.6666H46.4134V36.3333Z" fill="black"/>
<path d="M47.7494 36.3333H46.416V37.6666H47.7494V36.3333Z" fill="black"/>
<path d="M21.0814 37.6667H19.748V39.0001H21.0814V37.6667Z" fill="black"/>
<path d="M22.4134 37.6667H21.0801V39.0001H22.4134V37.6667Z" fill="black"/>
<path d="M23.7494 37.6667H22.416V39.0001H23.7494V37.6667Z" fill="black"/>
<path d="M33.0814 37.6667H31.748V39.0001H33.0814V37.6667Z" fill="black"/>
<path d="M37.0853 37.6667H35.752V39.0001H37.0853V37.6667Z" fill="black"/>
<path d="M39.7494 37.6667H38.416V39.0001H39.7494V37.6667Z" fill="black"/>
<path d="M42.4134 37.6667H41.0801V39.0001H42.4134V37.6667Z" fill="black"/>
<path d="M43.7454 37.6667H42.4121V39.0001H43.7454V37.6667Z" fill="black"/>
<path d="M45.0814 37.6667H43.748V39.0001H45.0814V37.6667Z" fill="black"/>
<path d="M15.7494 39.0002H14.416V40.3336H15.7494V39.0002Z" fill="black"/>
<path d="M19.7454 39.0002H18.4121V40.3336H19.7454V39.0002Z" fill="black"/>
<path d="M25.0814 39.0002H23.748V40.3336H25.0814V39.0002Z" fill="black"/>
<path d="M37.0853 39.0002H35.752V40.3336H37.0853V39.0002Z" fill="black"/>
<path d="M42.4134 39.0002H41.0801V40.3336H42.4134V39.0002Z" fill="black"/>
<path d="M46.4134 39.0002H45.0801V40.3335H46.4134V39.0002Z" fill="black"/>
<path d="M47.7494 39.0002H46.416V40.3336H47.7494V39.0002Z" fill="black"/>
<path d="M17.0814 40.3333H15.748V41.6666H17.0814V40.3333Z" fill="black"/>
<path d="M18.4134 40.3333H17.0801V41.6666H18.4134V40.3333Z" fill="black"/>
<path d="M19.7454 40.3333H18.4121V41.6666H19.7454V40.3333Z" fill="black"/>
<path d="M21.0814 40.3333H19.748V41.6666H21.0814V40.3333Z" fill="black"/>
<path d="M22.4134 40.3333H21.0801V41.6666H22.4134V40.3333Z" fill="black"/>
<path d="M23.7494 40.3333H22.416V41.6666H23.7494V40.3333Z" fill="black"/>
<path d="M26.4134 40.3333H25.0801V41.6666H26.4134V40.3333Z" fill="black"/>
<path d="M30.4134 40.3333H29.0801V41.6666H30.4134V40.3333Z" fill="black"/>
<path d="M34.4173 40.3333H33.084V41.6666H34.4173V40.3333Z" fill="black"/>
<path d="M37.0853 40.3333H35.752V41.6666H37.0853V40.3333Z" fill="black"/>
<path d="M38.4173 40.3333H37.084V41.6666H38.4173V40.3333Z" fill="black"/>
<path d="M39.7494 40.3333H38.416V41.6666H39.7494V40.3333Z" fill="black"/>
<path d="M41.0814 40.3333H39.748V41.6666H41.0814V40.3333Z" fill="black"/>
<path d="M42.4134 40.3333H41.0801V41.6666H42.4134V40.3333Z" fill="black"/>
<path d="M43.7454 40.3333H42.4121V41.6666H43.7454V40.3333Z" fill="black"/>
<path d="M47.7494 40.3333H46.416V41.6666H47.7494V40.3333Z" fill="black"/>
<path d="M15.7494 41.6667H14.416V43.0001H15.7494V41.6667Z" fill="black"/>
<path d="M18.4134 41.6667H17.0801V43.0001H18.4134V41.6667Z" fill="black"/>
<path d="M19.7454 41.6667H18.4121V43.0001H19.7454V41.6667Z" fill="black"/>
<path d="M22.4134 41.6667H21.0801V43.0001H22.4134V41.6667Z" fill="black"/>
<path d="M25.0814 41.6667H23.748V43.0001H25.0814V41.6667Z" fill="black"/>
<path d="M30.4134 41.6667H29.0801V43.0001H30.4134V41.6667Z" fill="black"/>
<path d="M31.7494 41.6667H30.416V43.0001H31.7494V41.6667Z" fill="black"/>
<path d="M33.0814 41.6667H31.748V43.0001H33.0814V41.6667Z" fill="black"/>
<path d="M35.7494 41.6667H34.416V43.0001H35.7494V41.6667Z" fill="black"/>
<path d="M37.0853 41.6667H35.752V43.0001H37.0853V41.6667Z" fill="black"/>
<path d="M39.7494 41.6667H38.416V43.0001H39.7494V41.6667Z" fill="black"/>
<path d="M42.4134 41.6667H41.0801V43.0001H42.4134V41.6667Z" fill="black"/>
<path d="M43.7454 41.6667H42.4121V43.0001H43.7454V41.6667Z" fill="black"/>
<path d="M45.0814 41.6667H43.748V43.0001H45.0814V41.6667Z" fill="black"/>
<path d="M46.4134 41.6668H45.0801V43.0001H46.4134V41.6668Z" fill="black"/>
<path d="M19.7454 43H18.4121V44.3333H19.7454V43Z" fill="black"/>
<path d="M21.0814 43H19.748V44.3333H21.0814V43Z" fill="black"/>
<path d="M27.7454 43H26.4121V44.3333H27.7454V43Z" fill="black"/>
<path d="M35.7494 43H34.416V44.3333H35.7494V43Z" fill="black"/>
<path d="M37.0853 43H35.752V44.3333H37.0853V43Z" fill="black"/>
<path d="M38.4173 43H37.084V44.3333H38.4173V43Z" fill="black"/>
<path d="M42.4134 43H41.0801V44.3333H42.4134V43Z" fill="black"/>
<path d="M45.0814 43H43.748V44.3333H45.0814V43Z" fill="black"/>
<path d="M47.7494 43H46.416V44.3333H47.7494V43Z" fill="black"/>
<path d="M21.0814 44.3335H19.748V45.6668H21.0814V44.3335Z" fill="black"/>
<path d="M22.4134 44.3335H21.0801V45.6668H22.4134V44.3335Z" fill="black"/>
<path d="M25.0814 44.3335H23.748V45.6668H25.0814V44.3335Z" fill="black"/>
<path d="M26.4134 44.3335H25.0801V45.6668H26.4134V44.3335Z" fill="black"/>
<path d="M27.7454 44.3335H26.4121V45.6668H27.7454V44.3335Z" fill="black"/>
<path d="M29.0814 44.3335H27.748V45.6668H29.0814V44.3335Z" fill="black"/>
<path d="M33.0814 44.3335H31.748V45.6668H33.0814V44.3335Z" fill="black"/>
<path d="M35.7494 44.3335H34.416V45.6668H35.7494V44.3335Z" fill="black"/>
<path d="M15.7494 45.6667H14.416V47.0001H15.7494V45.6667Z" fill="black"/>
<path d="M22.4134 45.6667H21.0801V47.0001H22.4134V45.6667Z" fill="black"/>
<path d="M23.7494 45.6667H22.416V47.0001H23.7494V45.6667Z" fill="black"/>
<path d="M26.4134 45.6667H25.0801V47.0001H26.4134V45.6667Z" fill="black"/>
<path d="M33.0814 45.6667H31.748V47.0001H33.0814V45.6667Z" fill="black"/>
<path d="M37.0853 45.6667H35.752V47.0001H37.0853V45.6667Z" fill="black"/>
<path d="M39.7494 45.6667H38.416V47.0001H39.7494V45.6667Z" fill="black"/>
<path d="M42.4134 45.6667H41.0801V47.0001H42.4134V45.6667Z" fill="black"/>
<path d="M43.7454 45.6667H42.4121V47.0001H43.7454V45.6667Z" fill="black"/>
<path d="M46.4134 45.6666H45.0801V47H46.4134V45.6666Z" fill="black"/>
<path d="M9.89472 3.00079H6.93429C5.49171 3.00079 4.26934 3.95391 3.87837 5.25671C3.83794 5.39134 3.80654 5.52983 3.78461 5.67177C3.76052 5.8279 3.74805 5.9879 3.74805 6.15091V9.18145C3.74805 10.9191 5.17773 12.3324 6.93472 12.3324H8.41472H9.89472C11.6513 12.3324 13.0814 10.9191 13.0814 9.18145V6.15091C13.0814 4.41413 11.6517 3.00079 9.89472 3.00079ZM11.6814 9.18145C11.6814 10.147 10.8801 10.9324 9.89472 10.9324H8.41472H6.93472C5.94934 10.9324 5.14805 10.147 5.14805 9.18145V6.15091C5.14805 5.8494 5.22633 5.56553 5.36396 5.31736C5.49644 5.07865 5.68396 4.87349 5.90977 4.71822C6.20009 4.51822 6.55364 4.40123 6.93429 4.40123H9.89472C10.8797 4.40123 11.6814 5.18617 11.6814 6.15134V9.18188V9.18145Z" fill="black"/>
<path d="M44.5627 3.00098H41.6023C40.1597 3.00098 38.9373 3.9541 38.5463 5.2569C38.5059 5.39152 38.4745 5.53001 38.4526 5.67195C38.4285 5.82808 38.416 5.98808 38.416 6.15109V9.18163C38.416 10.9193 39.8457 12.3326 41.6027 12.3326H43.0827H44.5627C46.3193 12.3326 47.7494 10.9193 47.7494 9.18163V6.15109C47.7494 4.41431 46.3197 3.00098 44.5627 3.00098ZM46.3494 9.18163C46.3494 10.1472 45.5481 10.9326 44.5627 10.9326H43.0827H41.6027C40.6173 10.9326 39.816 10.1472 39.816 9.18163V6.15109C39.816 5.84958 39.8943 5.56571 40.0319 5.31754C40.1644 5.07883 40.3519 4.87367 40.5777 4.7184C40.8681 4.5184 41.2216 4.40141 41.6023 4.40141H44.5627C45.5476 4.40141 46.3494 5.18636 46.3494 6.15152V9.18206V9.18163Z" fill="black"/>
<path d="M9.89472 37.6677H6.93429C5.49171 37.6677 4.26934 38.6208 3.87837 39.9236C3.83794 40.0582 3.80654 40.1967 3.78461 40.3386C3.76052 40.4948 3.74805 40.6548 3.74805 40.8178V43.8483C3.74805 45.586 5.17773 46.9993 6.93472 46.9993H8.41472H9.89472C11.6513 46.9993 13.0814 45.586 13.0814 43.8483V40.8178C13.0814 39.081 11.6517 37.6677 9.89472 37.6677ZM11.6814 43.8483C11.6814 44.8139 10.8801 45.5993 9.89472 45.5993H8.41472H6.93472C5.94934 45.5993 5.14805 44.8139 5.14805 43.8483V40.8178C5.14805 40.5163 5.22633 40.2324 5.36396 39.9842C5.49644 39.7455 5.68396 39.5404 5.90977 39.3851C6.20009 39.1851 6.55364 39.0681 6.93429 39.0681H9.89472C10.8797 39.0681 11.6814 39.853 11.6814 40.8182V43.8487V43.8483Z" fill="black"/>
<path d="M10.416 5.66663H6.41602V9.66663H10.416V5.66663Z" fill="black"/>
<path d="M45.0801 5.66675H41.0801V9.66676H45.0801V5.66675Z" fill="black"/>
<path d="M10.416 40.3334H6.41602V44.3334H10.416V40.3334Z" fill="black"/>
</g>
<defs>
<clipPath id="clip0_6113_5897">
<rect width="50" height="50" fill="white" transform="translate(0.748047)"/>
</clipPath>
</defs>
</svg>
