<svg width="94" height="94" viewBox="0 0 94 94" fill="none" xmlns="http://www.w3.org/2000/svg">
<g clip-path="url(#clip0_2147_2328)">
<path d="M2 53.2599H29.44L75.98 11.6599" stroke="#005442" stroke-width="4" stroke-linecap="round" stroke-linejoin="round"/>
<path d="M85.12 3.32C85.1 3.51 84.94 4.07 84.94 4.07L81.72 17.16V17.18L81.58 17.77C81.35 18.23 80.87 18.55 80.33 18.55C80.06 18.55 79.78 18.46 79.55 18.32C79.44 18.25 79.35 18.16 79.28 18.04L69.7 8.24C69.7 8.24 69.31 7.85 69.31 7.83C69.17 7.62 69.08 7.35 69.08 7.08C69.08 6.49 69.42 6.01 69.92 5.8C70.03 5.76 70.15 5.71 70.26 5.71L83.14 2.13L83.16 2.11L83.55 2.02C83.55 2.02 83.66 2 83.71 2C84.46 2 85.17 2.57 85.1 3.32H85.12Z" fill="#80D4C2" stroke="#005442" stroke-width="4" stroke-linecap="round" stroke-linejoin="round"/>
<path d="M83.0899 30.9099H74.2399C73.1078 30.9099 72.1899 31.8277 72.1899 32.9599V89.7999C72.1899 90.9321 73.1078 91.8499 74.2399 91.8499H83.0899C84.2221 91.8499 85.1399 90.9321 85.1399 89.7999V32.9599C85.1399 31.8277 84.2221 30.9099 83.0899 30.9099Z" fill="#80D4C2" stroke="#005442" stroke-width="4" stroke-linecap="round" stroke-linejoin="round"/>
<path d="M62.51 44.1399H53.66C52.5278 44.1399 51.61 45.0577 51.61 46.1899V89.8099C51.61 90.9421 52.5278 91.8599 53.66 91.8599H62.51C63.6422 91.8599 64.56 90.9421 64.56 89.8099V46.1899C64.56 45.0577 63.6422 44.1399 62.51 44.1399Z" fill="#8CB1E8" stroke="#0C3269" stroke-width="4" stroke-linejoin="round"/>
<path d="M42.82 62.0901H33.97C32.8379 62.0901 31.92 63.0079 31.92 64.1401V89.8001C31.92 90.9323 32.8379 91.8501 33.97 91.8501H42.82C43.9522 91.8501 44.87 90.9323 44.87 89.8001V64.1401C44.87 63.0079 43.9522 62.0901 42.82 62.0901Z" fill="#FFEB81" stroke="#806B02" stroke-width="4" stroke-linecap="round" stroke-linejoin="round"/>
<path d="M23.13 67.99H14.28C13.1478 67.99 12.23 68.9078 12.23 70.04V89.8C12.23 90.9322 13.1478 91.85 14.28 91.85H23.13C24.2622 91.85 25.18 90.9322 25.18 89.8V70.04C25.18 68.9078 24.2622 67.99 23.13 67.99Z" fill="#CD82A4" stroke="#4E0224" stroke-width="4" stroke-linejoin="round"/>
<path d="M92 91.8501H2" stroke="#005442" stroke-width="4" stroke-linecap="round" stroke-linejoin="round"/>
</g>
<defs>
<clipPath id="clip0_2147_2328">
<rect width="94" height="93.85" fill="white"/>
</clipPath>
</defs>
</svg>
