<svg width="111" height="150" viewBox="0 0 111 150" fill="none" xmlns="http://www.w3.org/2000/svg">
<path d="M9.79116 16.3057H0V150H111V143.473V16.3057H9.79116Z" fill="white"/>
<path d="M22.8526 78.2568H16.3252V97.8226H35.9142V91.3029V78.2568H22.8526Z" fill="#FFD603"/>
<path d="M22.8526 114.128H16.3252V133.694H35.9142V127.174V114.128H22.8526Z" fill="#FFD603"/>
<path d="M94.6747 61.9572H52.233C50.4302 61.9572 48.9692 60.498 48.9692 58.6974C48.9692 56.8967 50.4302 55.4375 52.233 55.4375H94.6747C96.4775 55.4375 97.9384 56.8967 97.9384 58.6974C97.9384 60.498 96.4775 61.9572 94.6747 61.9572Z" fill="#9B0448"/>
<path d="M94.6747 48.9113H52.233C50.4302 48.9113 48.9692 47.4521 48.9692 45.6514C48.9692 43.8508 50.4302 42.3916 52.233 42.3916H94.6747C96.4775 42.3916 97.9384 43.8508 97.9384 45.6514C97.9384 47.4521 96.4775 48.9113 94.6747 48.9113Z" fill="#9B0448"/>
<path d="M94.6747 97.8224H52.233C50.4302 97.8224 48.9692 96.3632 48.9692 94.5626C48.9692 92.762 50.4302 91.3027 52.233 91.3027H94.6747C96.4775 91.3027 97.9384 92.762 97.9384 94.5626C97.9384 96.3632 96.4775 97.8224 94.6747 97.8224Z" fill="#9B0448"/>
<path d="M94.6747 84.7834H52.233C50.4302 84.7834 48.9692 83.3241 48.9692 81.5235C48.9692 79.7229 50.4302 78.2637 52.233 78.2637H94.6747C96.4775 78.2637 97.9384 79.7229 97.9384 81.5235C97.9384 83.3241 96.4775 84.7834 94.6747 84.7834Z" fill="#9B0448"/>
<path d="M94.6747 133.695H52.233C50.4302 133.695 48.9692 132.235 48.9692 130.435C48.9692 128.634 50.4302 127.175 52.233 127.175H94.6747C96.4775 127.175 97.9384 128.634 97.9384 130.435C97.9384 132.235 96.4775 133.695 94.6747 133.695Z" fill="#9B0448"/>
<path d="M94.6747 120.648H52.233C50.4302 120.648 48.9692 119.188 48.9692 117.388C48.9692 115.587 50.4302 114.128 52.233 114.128H94.6747C96.4775 114.128 97.9384 115.587 97.9384 117.388C97.9384 119.188 96.4775 120.648 94.6747 120.648Z" fill="#9B0448"/>
<path d="M22.8526 61.9568C21.9881 61.9568 21.1504 61.6222 20.5338 61.013L14.0064 54.4933C12.7264 53.2148 12.7264 51.1398 14.0064 49.8612C15.2864 48.5827 17.3639 48.5827 18.644 49.8612L22.8526 54.0984L33.5954 43.3349C34.8754 42.0564 36.953 42.0564 38.233 43.3349C39.513 44.6134 39.513 46.6884 38.233 47.9669L25.1714 61.013C24.5549 61.6222 23.7238 61.9635 22.8526 61.9568Z" fill="#1863D1"/>
<path d="M65.2945 9.77955C65.2945 4.37771 60.9116 0 55.5034 0C50.0951 0 45.7122 4.37771 45.7122 9.77955H32.6506V22.8256H78.3561V9.77955H65.2945Z" fill="#187460"/>
</svg>
