<svg width="99" height="99" viewBox="0 0 99 99" fill="none" xmlns="http://www.w3.org/2000/svg">
<g clip-path="url(#clip0_2147_2393)">
<path d="M97 37.89C97 49.63 87.5 59.14 75.78 59.14H23.22C11.5 59.14 2 49.64 2 37.89C2 26.14 11.09 17.07 22.47 16.69C25.21 8.16001 33.22 2.01001 42.66 2.01001C53.43 2.01001 62.35 10.02 63.71 20.43C67.14 18.05 71.31 16.67 75.78 16.67C87.5 16.67 97 26.17 97 37.89Z" fill="#8CB1E8" stroke="#0C3269" stroke-width="4" stroke-miterlimit="10"/>
<path d="M17.27 89.34C17.27 93.56 13.85 96.98 9.62999 96.98C5.40999 96.98 1.98999 93.56 1.98999 89.34C1.98999 85.12 5.40999 81.71 9.62999 81.71C13.85 81.71 17.27 85.13 17.27 89.34Z" fill="#8CB1E8" stroke="#0C3269" stroke-width="4" stroke-miterlimit="10"/>
<path d="M57.1401 89.34C57.1401 93.56 53.7201 96.98 49.5001 96.98C45.2801 96.98 41.8601 93.56 41.8601 89.34C41.8601 85.12 45.2801 81.71 49.5001 81.71C53.7201 81.71 57.1401 85.13 57.1401 89.34Z" fill="#CD82A4" stroke="#4E0224" stroke-width="4" stroke-miterlimit="10"/>
<path d="M96.9199 89.34C96.9199 93.56 93.4999 96.98 89.2799 96.98C85.0599 96.98 81.6399 93.56 81.6399 89.34C81.6399 85.12 85.0599 81.71 89.2799 81.71C93.4999 81.71 96.9199 85.13 96.9199 89.34Z" fill="#80D4C2" stroke="#005442" stroke-width="4" stroke-linecap="round" stroke-linejoin="round"/>
<path d="M30.02 48.1499V67.5599" stroke="#4E0224" stroke-width="4" stroke-miterlimit="10"/>
<path d="M69.5801 48.1499V67.5599" stroke="#005442" stroke-width="4" stroke-linecap="round" stroke-linejoin="round"/>
<path d="M30.6901 32.77C30.8201 32.93 31.1201 33.46 31.1201 33.46L38.6201 45.55L38.6401 45.57L38.9901 46.11C39.1701 46.62 39.0501 47.21 38.6501 47.63C38.4501 47.84 38.1701 47.98 37.9001 48.05C37.7701 48.08 37.6301 48.09 37.4901 48.05H23.0201C23.0201 48.05 22.4401 48.05 22.4301 48.02C22.1801 47.97 21.9001 47.84 21.7001 47.64C21.2501 47.2 21.1401 46.59 21.3601 46.06C21.4101 45.94 21.4601 45.82 21.5401 45.74L28.3501 33.38V33.35L28.5701 32.99C28.5901 32.94 28.6401 32.89 28.6701 32.85C29.2301 32.28 30.1801 32.17 30.6901 32.77Z" fill="#CD82A4" stroke="#4E0224" stroke-width="4" stroke-miterlimit="10"/>
<path d="M68.6001 47.76C68.4701 47.6 68.1701 47.06 68.1701 47.06L60.6701 34.97L60.6501 34.95L60.3001 34.41C60.1201 33.9 60.2401 33.31 60.6401 32.89C60.8401 32.68 61.1101 32.54 61.3901 32.48C61.5201 32.45 61.6601 32.44 61.8001 32.48H76.2601C76.2601 32.48 76.8401 32.48 76.8601 32.5C77.1101 32.55 77.3901 32.68 77.5901 32.88C78.0401 33.31 78.1501 33.93 77.9301 34.46C77.8801 34.58 77.8301 34.7 77.7401 34.79L70.9301 47.15V47.18L70.7101 47.54C70.6901 47.59 70.6401 47.65 70.6101 47.68C70.0501 48.25 69.1001 48.36 68.5801 47.76H68.6001Z" fill="#80D4C2" stroke="#005442" stroke-width="4" stroke-linecap="round" stroke-linejoin="round"/>
<path d="M22.71 77.3401L15.8 84.8501" stroke="#0C3269" stroke-width="4" stroke-linecap="round" stroke-linejoin="round"/>
<path d="M37.6599 77.3401L45.6499 82.7601" stroke="#4E0224" stroke-width="4" stroke-linecap="round" stroke-linejoin="round"/>
<path d="M53.3601 82.7601L61.9401 77.3401" stroke="#4E0224" stroke-width="4" stroke-linecap="round" stroke-linejoin="round"/>
<path d="M76.8799 77.3401L85.4299 82.7601" stroke="#005442" stroke-width="4" stroke-linecap="round" stroke-linejoin="round"/>
<path d="M37.6599 75.13C37.6599 79.35 34.2399 82.77 30.0199 82.77C25.7999 82.77 22.3799 79.35 22.3799 75.13C22.3799 70.91 25.7999 67.49 30.0199 67.49C34.2399 67.49 37.6599 70.91 37.6599 75.13Z" fill="#80D4C2" stroke="#005442" stroke-width="4" stroke-linecap="round" stroke-linejoin="round"/>
<path d="M77.2099 75.13C77.2099 79.35 73.7899 82.77 69.5699 82.77C65.3499 82.77 61.9299 79.35 61.9299 75.13C61.9299 70.91 65.3499 67.49 69.5699 67.49C73.7899 67.49 77.2099 70.91 77.2099 75.13Z" fill="#FFEB81" stroke="#806B02" stroke-width="4" stroke-linecap="round" stroke-linejoin="round"/>
</g>
<defs>
<clipPath id="clip0_2147_2393">
<rect width="99" height="98.98" fill="white"/>
</clipPath>
</defs>
</svg>
