<svg width="440" height="350" viewBox="0 0 440 350" fill="none" xmlns="http://www.w3.org/2000/svg">
<circle cx="220" cy="175" r="175" fill="#CCEEE6"/>
<circle cx="220" cy="175" r="150" fill="#99DCCE"/>
<circle cx="220" cy="175" r="125" fill="#66CBB5"/>
<circle cx="220" cy="175" r="100" fill="#33B99D"/>
<circle cx="220" cy="175" r="75" fill="#00A884"/>
<g filter="url(#filter0_dd_2173_3332)">
<rect x="58.8809" y="210.842" width="201.169" height="101.11" rx="4" fill="#FFF7CD" stroke="#806B02" stroke-width="4"/>
<rect x="198" y="130.522" width="219.653" height="54.1978" rx="4" fill="#CBE0FF" stroke="#0C3269" stroke-width="4"/>
<circle cx="196" cy="129" r="25" fill="#1863D1"/>
<path d="M196 115.459C194.506 115.459 193.073 116.053 192.017 117.111C190.96 118.169 190.367 119.605 190.367 121.101V129C190.367 130.497 190.96 131.932 192.017 132.99C193.073 134.048 194.506 134.643 196 134.643C197.494 134.643 198.926 134.048 199.983 132.99C201.039 131.932 201.632 130.497 201.632 129V121.101C201.632 119.605 201.039 118.169 199.983 117.111C198.926 116.053 197.494 115.459 196 115.459ZM186.987 127.872C187.286 127.872 187.573 127.991 187.784 128.202C187.995 128.414 188.114 128.701 188.114 129C188.114 131.095 188.945 133.105 190.424 134.586C191.903 136.067 193.908 136.9 196 136.9C198.091 136.9 200.097 136.067 201.576 134.586C203.055 133.105 203.886 131.095 203.886 129C203.886 128.701 204.004 128.414 204.215 128.202C204.427 127.991 204.713 127.872 205.012 127.872C205.311 127.872 205.597 127.991 205.809 128.202C206.02 128.414 206.139 128.701 206.139 129C206.139 131.499 205.22 133.91 203.557 135.772C201.895 137.635 199.605 138.818 197.126 139.096V141.414C197.126 141.713 197.008 142 196.796 142.212C196.585 142.423 196.299 142.542 196 142.542C195.701 142.542 195.414 142.423 195.203 142.212C194.992 142 194.873 141.713 194.873 141.414V139.096C192.394 138.818 190.105 137.635 188.442 135.772C186.779 133.91 185.86 131.499 185.861 129C185.861 128.701 185.98 128.414 186.191 128.202C186.402 127.991 186.689 127.872 186.987 127.872Z" fill="white"/>
<path d="M222.544 163.077V153.628C222.544 153.158 222.357 152.708 222.025 152.375C221.693 152.043 221.242 151.856 220.772 151.856C220.302 151.856 219.851 152.043 219.519 152.375C219.187 152.708 219 153.158 219 153.628V163.077C219 163.547 219.187 163.998 219.519 164.33C219.851 164.662 220.302 164.849 220.772 164.849C221.242 164.849 221.693 164.662 222.025 164.33C222.357 163.998 222.544 163.547 222.544 163.077ZM226.679 174.298C226.209 174.298 225.758 174.111 225.426 173.779C225.094 173.447 224.907 172.996 224.907 172.526V144.179C224.907 143.709 225.094 143.258 225.426 142.926C225.758 142.594 226.209 142.407 226.679 142.407C227.149 142.407 227.6 142.594 227.932 142.926C228.264 143.258 228.451 143.709 228.451 144.179V172.526C228.451 172.996 228.264 173.447 227.932 173.779C227.6 174.111 227.149 174.298 226.679 174.298ZM232.586 169.574C232.116 169.574 231.665 169.387 231.333 169.055C231 168.722 230.814 168.272 230.814 167.802V148.904C230.814 148.434 231 147.983 231.333 147.651C231.665 147.319 232.116 147.132 232.586 147.132C233.056 147.132 233.506 147.319 233.839 147.651C234.171 147.983 234.358 148.434 234.358 148.904V167.802C234.358 168.272 234.171 168.722 233.839 169.055C233.506 169.387 233.056 169.574 232.586 169.574ZM238.493 164.849C238.023 164.849 237.572 164.662 237.24 164.33C236.907 163.998 236.721 163.547 236.721 163.077V153.628C236.721 153.158 236.907 152.708 237.24 152.375C237.572 152.043 238.023 151.856 238.493 151.856C238.963 151.856 239.413 152.043 239.746 152.375C240.078 152.708 240.265 153.158 240.265 153.628V163.077C240.265 163.547 240.078 163.998 239.746 164.33C239.413 164.662 238.963 164.849 238.493 164.849ZM244.399 167.211C243.93 167.211 243.479 167.025 243.146 166.692C242.814 166.36 242.627 165.909 242.627 165.44V151.266C242.627 150.796 242.814 150.345 243.146 150.013C243.479 149.681 243.93 149.494 244.399 149.494C244.869 149.494 245.32 149.681 245.653 150.013C245.985 150.345 246.172 150.796 246.172 151.266V165.44C246.172 165.909 245.985 166.36 245.653 166.692C245.32 167.025 244.869 167.211 244.399 167.211Z" fill="#0C3269"/>
<path d="M252.564 163.098V153.649C252.564 153.179 252.377 152.728 252.045 152.396C251.712 152.064 251.262 151.877 250.792 151.877C250.322 151.877 249.871 152.064 249.539 152.396C249.206 152.728 249.02 153.179 249.02 153.649V163.098C249.02 163.568 249.206 164.018 249.539 164.351C249.871 164.683 250.322 164.869 250.792 164.869C251.262 164.869 251.712 164.683 252.045 164.351C252.377 164.018 252.564 163.568 252.564 163.098ZM256.698 174.319C256.228 174.319 255.778 174.132 255.445 173.8C255.113 173.467 254.926 173.017 254.926 172.547V144.199C254.926 143.73 255.113 143.279 255.445 142.947C255.778 142.614 256.228 142.428 256.698 142.428C257.168 142.428 257.619 142.614 257.951 142.947C258.284 143.279 258.471 143.73 258.471 144.199V172.547C258.471 173.017 258.284 173.467 257.951 173.8C257.619 174.132 257.168 174.319 256.698 174.319ZM262.605 169.594C262.135 169.594 261.685 169.407 261.352 169.075C261.02 168.743 260.833 168.292 260.833 167.822V148.924C260.833 148.454 261.02 148.004 261.352 147.671C261.685 147.339 262.135 147.152 262.605 147.152C263.075 147.152 263.526 147.339 263.858 147.671C264.191 148.004 264.377 148.454 264.377 148.924V167.822C264.377 168.292 264.191 168.743 263.858 169.075C263.526 169.407 263.075 169.594 262.605 169.594ZM268.512 164.869C268.042 164.869 267.591 164.683 267.259 164.351C266.927 164.018 266.74 163.568 266.74 163.098V153.649C266.74 153.179 266.927 152.728 267.259 152.396C267.591 152.064 268.042 151.877 268.512 151.877C268.982 151.877 269.433 152.064 269.765 152.396C270.098 152.728 270.284 153.179 270.284 153.649V163.098C270.284 163.568 270.098 164.018 269.765 164.351C269.433 164.683 268.982 164.869 268.512 164.869ZM274.419 167.232C273.949 167.232 273.498 167.045 273.166 166.713C272.834 166.381 272.647 165.93 272.647 165.46V151.286C272.647 150.816 272.834 150.366 273.166 150.034C273.498 149.701 273.949 149.515 274.419 149.515C274.889 149.515 275.34 149.701 275.672 150.034C276.004 150.366 276.191 150.816 276.191 151.286V165.46C276.191 165.93 276.004 166.381 275.672 166.713C275.34 167.045 274.889 167.232 274.419 167.232Z" fill="#0C3269"/>
<path d="M282.564 163.098V153.649C282.564 153.179 282.377 152.728 282.045 152.396C281.712 152.064 281.262 151.877 280.792 151.877C280.322 151.877 279.871 152.064 279.539 152.396C279.206 152.728 279.02 153.179 279.02 153.649V163.098C279.02 163.568 279.206 164.018 279.539 164.351C279.871 164.683 280.322 164.869 280.792 164.869C281.262 164.869 281.712 164.683 282.045 164.351C282.377 164.018 282.564 163.568 282.564 163.098ZM286.698 174.319C286.228 174.319 285.778 174.132 285.445 173.8C285.113 173.467 284.926 173.017 284.926 172.547V144.199C284.926 143.73 285.113 143.279 285.445 142.947C285.778 142.614 286.228 142.428 286.698 142.428C287.168 142.428 287.619 142.614 287.951 142.947C288.284 143.279 288.471 143.73 288.471 144.199V172.547C288.471 173.017 288.284 173.467 287.951 173.8C287.619 174.132 287.168 174.319 286.698 174.319ZM292.605 169.594C292.135 169.594 291.685 169.407 291.352 169.075C291.02 168.743 290.833 168.292 290.833 167.822V148.924C290.833 148.454 291.02 148.004 291.352 147.671C291.685 147.339 292.135 147.152 292.605 147.152C293.075 147.152 293.526 147.339 293.858 147.671C294.191 148.004 294.377 148.454 294.377 148.924V167.822C294.377 168.292 294.191 168.743 293.858 169.075C293.526 169.407 293.075 169.594 292.605 169.594ZM298.512 164.869C298.042 164.869 297.591 164.683 297.259 164.351C296.927 164.018 296.74 163.568 296.74 163.098V153.649C296.74 153.179 296.927 152.728 297.259 152.396C297.591 152.064 298.042 151.877 298.512 151.877C298.982 151.877 299.433 152.064 299.765 152.396C300.098 152.728 300.284 153.179 300.284 153.649V163.098C300.284 163.568 300.098 164.018 299.765 164.351C299.433 164.683 298.982 164.869 298.512 164.869ZM304.419 167.232C303.949 167.232 303.498 167.045 303.166 166.713C302.834 166.381 302.647 165.93 302.647 165.46V151.286C302.647 150.816 302.834 150.366 303.166 150.034C303.498 149.701 303.949 149.515 304.419 149.515C304.889 149.515 305.34 149.701 305.672 150.034C306.004 150.366 306.191 150.816 306.191 151.286V165.46C306.191 165.93 306.004 166.381 305.672 166.713C305.34 167.045 304.889 167.232 304.419 167.232Z" fill="#0C3269"/>
<path d="M312.564 163.077V153.628C312.564 153.158 312.377 152.708 312.045 152.375C311.712 152.043 311.262 151.856 310.792 151.856C310.322 151.856 309.871 152.043 309.539 152.375C309.206 152.708 309.02 153.158 309.02 153.628V163.077C309.02 163.547 309.206 163.998 309.539 164.33C309.871 164.662 310.322 164.849 310.792 164.849C311.262 164.849 311.712 164.662 312.045 164.33C312.377 163.998 312.564 163.547 312.564 163.077ZM316.698 174.298C316.228 174.298 315.778 174.111 315.445 173.779C315.113 173.447 314.926 172.996 314.926 172.526V144.179C314.926 143.709 315.113 143.258 315.445 142.926C315.778 142.594 316.228 142.407 316.698 142.407C317.168 142.407 317.619 142.594 317.951 142.926C318.284 143.258 318.471 143.709 318.471 144.179V172.526C318.471 172.996 318.284 173.447 317.951 173.779C317.619 174.111 317.168 174.298 316.698 174.298ZM322.605 169.574C322.135 169.574 321.685 169.387 321.352 169.055C321.02 168.722 320.833 168.272 320.833 167.802V148.904C320.833 148.434 321.02 147.983 321.352 147.651C321.685 147.319 322.135 147.132 322.605 147.132C323.075 147.132 323.526 147.319 323.858 147.651C324.191 147.983 324.377 148.434 324.377 148.904V167.802C324.377 168.272 324.191 168.722 323.858 169.055C323.526 169.387 323.075 169.574 322.605 169.574ZM328.512 164.849C328.042 164.849 327.591 164.662 327.259 164.33C326.927 163.998 326.74 163.547 326.74 163.077V153.628C326.74 153.158 326.927 152.708 327.259 152.375C327.591 152.043 328.042 151.856 328.512 151.856C328.982 151.856 329.433 152.043 329.765 152.375C330.098 152.708 330.284 153.158 330.284 153.628V163.077C330.284 163.547 330.098 163.998 329.765 164.33C329.433 164.662 328.982 164.849 328.512 164.849ZM334.419 167.211C333.949 167.211 333.498 167.025 333.166 166.692C332.834 166.36 332.647 165.909 332.647 165.44V151.266C332.647 150.796 332.834 150.345 333.166 150.013C333.498 149.681 333.949 149.494 334.419 149.494C334.889 149.494 335.34 149.681 335.672 150.013C336.004 150.345 336.191 150.796 336.191 151.266V165.44C336.191 165.909 336.004 166.36 335.672 166.692C335.34 167.025 334.889 167.211 334.419 167.211Z" fill="#0C3269"/>
<path d="M342.564 163.098V153.649C342.564 153.179 342.377 152.728 342.045 152.396C341.712 152.064 341.262 151.877 340.792 151.877C340.322 151.877 339.871 152.064 339.539 152.396C339.206 152.728 339.02 153.179 339.02 153.649V163.098C339.02 163.568 339.206 164.018 339.539 164.351C339.871 164.683 340.322 164.869 340.792 164.869C341.262 164.869 341.712 164.683 342.045 164.351C342.377 164.018 342.564 163.568 342.564 163.098ZM346.698 174.319C346.228 174.319 345.778 174.132 345.445 173.8C345.113 173.467 344.926 173.017 344.926 172.547V144.199C344.926 143.73 345.113 143.279 345.445 142.947C345.778 142.614 346.228 142.428 346.698 142.428C347.168 142.428 347.619 142.614 347.951 142.947C348.284 143.279 348.471 143.73 348.471 144.199V172.547C348.471 173.017 348.284 173.467 347.951 173.8C347.619 174.132 347.168 174.319 346.698 174.319ZM352.605 169.594C352.135 169.594 351.685 169.407 351.352 169.075C351.02 168.743 350.833 168.292 350.833 167.822V148.924C350.833 148.454 351.02 148.004 351.352 147.671C351.685 147.339 352.135 147.152 352.605 147.152C353.075 147.152 353.526 147.339 353.858 147.671C354.191 148.004 354.377 148.454 354.377 148.924V167.822C354.377 168.292 354.191 168.743 353.858 169.075C353.526 169.407 353.075 169.594 352.605 169.594ZM358.512 164.869C358.042 164.869 357.591 164.683 357.259 164.351C356.927 164.018 356.74 163.568 356.74 163.098V153.649C356.74 153.179 356.927 152.728 357.259 152.396C357.591 152.064 358.042 151.877 358.512 151.877C358.982 151.877 359.433 152.064 359.765 152.396C360.098 152.728 360.284 153.179 360.284 153.649V163.098C360.284 163.568 360.098 164.018 359.765 164.351C359.433 164.683 358.982 164.869 358.512 164.869ZM364.419 167.232C363.949 167.232 363.498 167.045 363.166 166.713C362.834 166.381 362.647 165.93 362.647 165.46V151.286C362.647 150.816 362.834 150.366 363.166 150.034C363.498 149.701 363.949 149.515 364.419 149.515C364.889 149.515 365.34 149.701 365.672 150.034C366.004 150.366 366.191 150.816 366.191 151.286V165.46C366.191 165.93 366.004 166.381 365.672 166.713C365.34 167.045 364.889 167.232 364.419 167.232Z" fill="#0C3269"/>
<path d="M372.564 163.098V153.649C372.564 153.179 372.377 152.728 372.045 152.396C371.712 152.064 371.262 151.877 370.792 151.877C370.322 151.877 369.871 152.064 369.539 152.396C369.206 152.728 369.02 153.179 369.02 153.649V163.098C369.02 163.568 369.206 164.018 369.539 164.351C369.871 164.683 370.322 164.869 370.792 164.869C371.262 164.869 371.712 164.683 372.045 164.351C372.377 164.018 372.564 163.568 372.564 163.098ZM376.698 174.319C376.228 174.319 375.778 174.132 375.445 173.8C375.113 173.467 374.926 173.017 374.926 172.547V144.199C374.926 143.73 375.113 143.279 375.445 142.947C375.778 142.614 376.228 142.428 376.698 142.428C377.168 142.428 377.619 142.614 377.951 142.947C378.284 143.279 378.471 143.73 378.471 144.199V172.547C378.471 173.017 378.284 173.467 377.951 173.8C377.619 174.132 377.168 174.319 376.698 174.319ZM382.605 169.594C382.135 169.594 381.685 169.407 381.352 169.075C381.02 168.743 380.833 168.292 380.833 167.822V148.924C380.833 148.454 381.02 148.004 381.352 147.671C381.685 147.339 382.135 147.152 382.605 147.152C383.075 147.152 383.526 147.339 383.858 147.671C384.191 148.004 384.377 148.454 384.377 148.924V167.822C384.377 168.292 384.191 168.743 383.858 169.075C383.526 169.407 383.075 169.594 382.605 169.594ZM388.512 164.869C388.042 164.869 387.591 164.683 387.259 164.351C386.927 164.018 386.74 163.568 386.74 163.098V153.649C386.74 153.179 386.927 152.728 387.259 152.396C387.591 152.064 388.042 151.877 388.512 151.877C388.982 151.877 389.433 152.064 389.765 152.396C390.098 152.728 390.284 153.179 390.284 153.649V163.098C390.284 163.568 390.098 164.018 389.765 164.351C389.433 164.683 388.982 164.869 388.512 164.869ZM394.419 167.232C393.949 167.232 393.498 167.045 393.166 166.713C392.834 166.381 392.647 165.93 392.647 165.46V151.286C392.647 150.816 392.834 150.366 393.166 150.034C393.498 149.701 393.949 149.515 394.419 149.515C394.889 149.515 395.34 149.701 395.672 150.034C396.004 150.366 396.191 150.816 396.191 151.286V165.46C396.191 165.93 396.004 166.381 395.672 166.713C395.34 167.045 394.889 167.232 394.419 167.232Z" fill="#0C3269"/>
<circle cx="90.2206" cy="104.962" r="54.7597" fill="#EBCDDA" stroke="#4E0224" stroke-width="4"/>
<path d="M88.1406 231.229H234.748" stroke="#806B02" stroke-width="4" stroke-linecap="round"/>
<path d="M88.1406 245.971H234.748" stroke="#806B02" stroke-width="4" stroke-linecap="round"/>
<path d="M88.1406 261.397H234.748" stroke="#806B02" stroke-width="4" stroke-linecap="round"/>
<path d="M88.1406 275.457H234.748" stroke="#806B02" stroke-width="4" stroke-linecap="round"/>
<path d="M88.1406 288.835H173.867" stroke="#806B02" stroke-width="4" stroke-linecap="round"/>
<circle cx="45" cy="61" r="25" fill="#9B0448"/>
<path d="M37.317 64.8992C36.8109 63.7552 36.5496 62.5181 36.55 61.2671C36.55 56.4509 40.333 52.5498 45 52.5498C49.667 52.5498 53.45 56.4522 53.45 61.2671C53.4504 62.5181 53.1891 63.7552 52.683 64.8992M45 48V49.2999M58 60.9994H56.7M33.3 60.9994H32M54.191 51.8075L53.2719 52.7266M36.7281 52.7279L35.809 51.8088M48.2721 70.498C49.5851 70.0729 50.1129 68.8705 50.2611 67.6615C50.3053 67.3002 50.0076 66.9999 49.6436 66.9999H40.4201C40.3312 66.9984 40.243 67.0159 40.1614 67.0511C40.0798 67.0863 40.0065 67.1385 39.9466 67.2041C39.8866 67.2697 39.8412 67.3473 39.8135 67.4318C39.7858 67.5162 39.7763 67.6056 39.7857 67.694C39.9313 68.9004 40.2979 69.7817 41.6889 70.4967M48.2721 70.498L41.6889 70.4967M48.2721 70.498C48.1148 73.0264 47.3842 74.0273 45.0091 73.9987C42.4689 74.0455 41.8839 72.8067 41.6889 70.4967" stroke="white" stroke-width="1.5" stroke-linecap="round" stroke-linejoin="round"/>
<circle cx="57" cy="210" r="25" fill="#FFD603"/>
<path d="M47.7762 200.792C47.7762 200.437 47.9173 200.096 48.1684 199.845C48.4196 199.594 48.7601 199.453 49.1153 199.453H65.1835C65.5386 199.453 65.8792 199.594 66.1303 199.845C66.3815 200.096 66.5225 200.437 66.5225 200.792V204.809C66.5225 205.164 66.3815 205.505 66.1303 205.756C65.8792 206.007 65.5386 206.148 65.1835 206.148C64.8284 206.148 64.4878 206.007 64.2367 205.756C63.9856 205.505 63.8445 205.164 63.8445 204.809V202.131H58.4884V218.199H59.8274C60.1826 218.199 60.5231 218.34 60.7743 218.591C61.0254 218.843 61.1664 219.183 61.1664 219.538C61.1664 219.893 61.0254 220.234 60.7743 220.485C60.5231 220.736 60.1826 220.877 59.8274 220.877H54.4713C54.1162 220.877 53.7756 220.736 53.5245 220.485C53.2734 220.234 53.1323 219.893 53.1323 219.538C53.1323 219.183 53.2734 218.843 53.5245 218.591C53.7756 218.34 54.1162 218.199 54.4713 218.199H55.8104V202.131H50.4543V204.809C50.4543 205.164 50.3132 205.505 50.0621 205.756C49.811 206.007 49.4704 206.148 49.1153 206.148C48.7601 206.148 48.4196 206.007 48.1684 205.756C47.9173 205.505 47.7762 205.164 47.7762 204.809V200.792Z" fill="#806B02"/>
</g>
<path d="M105.309 74.852C101.186 70.4333 95.427 68 89.0708 68C82.6807 68 76.903 70.4186 72.799 74.8099C68.6505 79.2496 66.6292 85.2835 67.1038 91.7989C68.0445 104.653 77.8988 115.11 89.0708 115.11C100.243 115.11 110.08 104.655 111.036 91.8031C111.517 85.3465 109.483 79.3253 105.309 74.852ZM126.361 162.22H51.7812C50.805 162.232 49.8382 162.029 48.9513 161.624C48.0643 161.219 47.2795 160.623 46.6538 159.879C45.2766 158.245 44.7215 156.014 45.1326 153.757C46.9208 143.91 52.5015 135.638 61.2731 129.832C69.0658 124.677 78.9369 121.84 89.0708 121.84C99.2047 121.84 109.076 124.679 116.869 129.832C125.64 135.636 131.221 143.908 133.009 153.755C133.42 156.011 132.865 158.243 131.488 159.877C130.862 160.621 130.078 161.218 129.191 161.623C128.304 162.028 127.337 162.232 126.361 162.22Z" fill="#4E0224"/>
<defs>
<filter id="filter0_dd_2173_3332" x="0" y="20" width="439.653" height="317.952" filterUnits="userSpaceOnUse" color-interpolation-filters="sRGB">
<feFlood flood-opacity="0" result="BackgroundImageFix"/>
<feColorMatrix in="SourceAlpha" type="matrix" values="0 0 0 0 0 0 0 0 0 0 0 0 0 0 0 0 0 0 127 0" result="hardAlpha"/>
<feOffset dy="4"/>
<feGaussianBlur stdDeviation="10"/>
<feComposite in2="hardAlpha" operator="out"/>
<feColorMatrix type="matrix" values="0 0 0 0 0 0 0 0 0 0 0 0 0 0 0 0 0 0 0.15 0"/>
<feBlend mode="normal" in2="BackgroundImageFix" result="effect1_dropShadow_2173_3332"/>
<feColorMatrix in="SourceAlpha" type="matrix" values="0 0 0 0 0 0 0 0 0 0 0 0 0 0 0 0 0 0 127 0" result="hardAlpha"/>
<feOffset dy="4"/>
<feGaussianBlur stdDeviation="2.5"/>
<feComposite in2="hardAlpha" operator="out"/>
<feColorMatrix type="matrix" values="0 0 0 0 0 0 0 0 0 0 0 0 0 0 0 0 0 0 0.25 0"/>
<feBlend mode="normal" in2="effect1_dropShadow_2173_3332" result="effect2_dropShadow_2173_3332"/>
<feBlend mode="normal" in="SourceGraphic" in2="effect2_dropShadow_2173_3332" result="shape"/>
</filter>
</defs>
</svg>
