<svg width="44" height="45" viewBox="0 0 44 45" fill="none" xmlns="http://www.w3.org/2000/svg">
<g clip-path="url(#clip0_1174_19150)">
<path d="M9.65432 18.3094C10.5121 15.6552 12.1676 13.3459 14.3845 11.7109C16.6015 10.0758 19.2667 9.19863 22 9.20438C25.0983 9.20438 27.8997 10.3294 30.0997 12.1706L36.5017 5.625C32.6003 2.14687 27.6008 0 22 0C13.3283 0 5.86299 5.05875 2.27332 12.4688L9.65432 18.3094Z" fill="#EA4335"/>
<path d="M29.4067 33.7748C27.4083 35.0929 24.871 35.7961 22 35.7961C19.2776 35.8018 16.6225 34.9316 14.4104 33.3086C12.1984 31.6856 10.5416 29.3922 9.6745 26.7529L2.26783 32.5036C4.08511 36.2654 6.89749 39.4305 10.3855 41.6396C13.8735 43.8486 17.8974 45.013 22 45.0004C27.3772 45.0004 32.5142 43.0448 36.3623 39.3754L29.4085 33.7748H29.4067Z" fill="#34A853"/>
<path d="M36.3623 39.3754C40.3865 35.5354 42.999 29.8204 42.999 22.5004C42.999 21.1692 42.7992 19.7386 42.5003 18.4092H22V27.1036H33.7993C33.2182 30.0267 31.6543 32.2898 29.4085 33.7748L36.3623 39.3754Z" fill="#4A90E2"/>
<path d="M9.6746 26.7525C9.22608 25.3817 8.99823 23.9455 8.99993 22.5C8.99993 21.0337 9.2291 19.6256 9.65443 18.3094L2.27343 12.4688C0.763459 15.5863 -0.0149277 19.021 9.90591e-05 22.5C9.90591e-05 26.1 0.815932 29.4937 2.26793 32.5031L9.6746 26.7525Z" fill="#FBBC05"/>
</g>
<defs>
<clipPath id="clip0_1174_19150">
<rect width="44" height="45" fill="white"/>
</clipPath>
</defs>
</svg>
