<svg width="51" height="50" viewBox="0 0 51 50" fill="none" xmlns="http://www.w3.org/2000/svg">
<g clip-path="url(#clip0_6349_13603)">
<rect x="0.496094" width="50" height="50" rx="5" fill="#DCFFF7"/>
<path d="M14.197 3H13.0078V4.18919H14.197V3Z" fill="black"/>
<path d="M15.3845 3H14.1953V4.18919H15.3845V3Z" fill="black"/>
<path d="M16.572 3H15.3828V4.18919H16.572V3Z" fill="black"/>
<path d="M17.7634 3H16.5742V4.18919H17.7634V3Z" fill="black"/>
<path d="M18.9509 3H17.7617V4.18919H18.9509V3Z" fill="black"/>
<path d="M20.1384 3H18.9492V4.18919H20.1384V3Z" fill="black"/>
<path d="M22.5173 3H21.3281V4.18919H22.5173V3Z" fill="black"/>
<path d="M23.7048 3H22.5156V4.18919H23.7048V3Z" fill="black"/>
<path d="M24.9001 3H23.7109V4.18919H24.9001V3Z" fill="black"/>
<path d="M26.0837 3H24.8945V4.18919H26.0837V3Z" fill="black"/>
<path d="M29.654 3H28.4648V4.18919H29.654V3Z" fill="black"/>
<path d="M30.8454 3H29.6562V4.18919H30.8454V3Z" fill="black"/>
<path d="M35.6032 3H34.4141V4.18919H35.6032V3Z" fill="black"/>
<path d="M14.197 4.18896H13.0078V5.37815H14.197V4.18896Z" fill="black"/>
<path d="M16.572 4.18896H15.3828V5.37815H16.572V4.18896Z" fill="black"/>
<path d="M17.7634 4.18896H16.5742V5.37815H17.7634V4.18896Z" fill="black"/>
<path d="M21.3298 4.18896H20.1406V5.37815H21.3298V4.18896Z" fill="black"/>
<path d="M23.7048 4.18896H22.5156V5.37815H23.7048V4.18896Z" fill="black"/>
<path d="M24.9001 4.18896H23.7109V5.37815H24.9001V4.18896Z" fill="black"/>
<path d="M26.0837 4.18896H24.8945V5.37815H26.0837V4.18896Z" fill="black"/>
<path d="M27.2751 4.18896H26.0859V5.37815H27.2751V4.18896Z" fill="black"/>
<path d="M29.654 4.18915H28.4648V5.37834H29.654V4.18915Z" fill="black"/>
<path d="M33.2243 4.18896H32.0352V5.37815H33.2243V4.18896Z" fill="black"/>
<path d="M37.9782 4.18896H36.7891V5.37815H37.9782V4.18896Z" fill="black"/>
<path d="M14.197 5.37842H13.0078V6.56761H14.197V5.37842Z" fill="black"/>
<path d="M15.3845 5.37842H14.1953V6.56761H15.3845V5.37842Z" fill="black"/>
<path d="M16.572 5.37842H15.3828V6.56761H16.572V5.37842Z" fill="black"/>
<path d="M17.7634 5.37842H16.5742V6.56761H17.7634V5.37842Z" fill="black"/>
<path d="M27.2751 5.37842H26.0859V6.56761H27.2751V5.37842Z" fill="black"/>
<path d="M28.4665 5.37842H27.2773V6.56761H28.4665V5.37842Z" fill="black"/>
<path d="M29.654 5.37842H28.4648V6.56761H29.654V5.37842Z" fill="black"/>
<path d="M33.2243 5.37842H32.0352V6.56761H33.2243V5.37842Z" fill="black"/>
<path d="M34.4079 5.37817H33.2188V6.56736H34.4079V5.37817Z" fill="black"/>
<path d="M35.6032 5.37842H34.4141V6.56761H35.6032V5.37842Z" fill="black"/>
<path d="M15.3845 6.56757H14.1953V7.75675H15.3845V6.56757Z" fill="black"/>
<path d="M18.9509 6.56757H17.7617V7.75675H18.9509V6.56757Z" fill="black"/>
<path d="M22.5173 6.56738H21.3281V7.75657H22.5173V6.56738Z" fill="black"/>
<path d="M24.9001 6.56738H23.7109V7.75657H24.9001V6.56738Z" fill="black"/>
<path d="M26.0837 6.56738H24.8945V7.75657H26.0837V6.56738Z" fill="black"/>
<path d="M29.654 6.56757H28.4648V7.75675H29.654V6.56757Z" fill="black"/>
<path d="M34.4079 6.56738H33.2188V7.75657H34.4079V6.56738Z" fill="black"/>
<path d="M36.7868 6.56738H35.5977V7.75657H36.7868V6.56738Z" fill="black"/>
<path d="M37.9782 6.56738H36.7891V7.75657H37.9782V6.56738Z" fill="black"/>
<path d="M14.197 7.75659H13.0078V8.94578H14.197V7.75659Z" fill="black"/>
<path d="M16.572 7.75659H15.3828V8.94578H16.572V7.75659Z" fill="black"/>
<path d="M17.7634 7.75659H16.5742V8.94578H17.7634V7.75659Z" fill="black"/>
<path d="M18.9509 7.75671H17.7617V8.9459H18.9509V7.75671Z" fill="black"/>
<path d="M20.1384 7.75659H18.9492V8.94578H20.1384V7.75659Z" fill="black"/>
<path d="M24.9001 7.75659H23.7109V8.94578H24.9001V7.75659Z" fill="black"/>
<path d="M26.0837 7.75659H24.8945V8.94578H26.0837V7.75659Z" fill="black"/>
<path d="M27.2751 7.75659H26.0859V8.94578H27.2751V7.75659Z" fill="black"/>
<path d="M29.654 7.75671H28.4648V8.9459H29.654V7.75671Z" fill="black"/>
<path d="M30.8454 7.75647H29.6562V8.94566H30.8454V7.75647Z" fill="black"/>
<path d="M35.6032 7.75659H34.4141V8.94578H35.6032V7.75659Z" fill="black"/>
<path d="M37.9782 7.75659H36.7891V8.94578H37.9782V7.75659Z" fill="black"/>
<path d="M16.572 8.9458H15.3828V10.135H16.572V8.9458Z" fill="black"/>
<path d="M17.7634 8.9458H16.5742V10.135H17.7634V8.9458Z" fill="black"/>
<path d="M18.9509 8.94598H17.7617V10.1352H18.9509V8.94598Z" fill="black"/>
<path d="M22.5173 8.9458H21.3281V10.135H22.5173V8.9458Z" fill="black"/>
<path d="M26.0837 8.9458H24.8945V10.135H26.0837V8.9458Z" fill="black"/>
<path d="M30.8454 8.94586H29.6562V10.1351H30.8454V8.94586Z" fill="black"/>
<path d="M32.0329 8.94604H30.8438V10.1352H32.0329V8.94604Z" fill="black"/>
<path d="M14.197 10.1353H13.0078V11.3244H14.197V10.1353Z" fill="black"/>
<path d="M16.572 10.1353H15.3828V11.3244H16.572V10.1353Z" fill="black"/>
<path d="M18.9509 10.1351H17.7617V11.3243H18.9509V10.1351Z" fill="black"/>
<path d="M21.3298 10.1353H20.1406V11.3244H21.3298V10.1353Z" fill="black"/>
<path d="M23.7048 10.1353H22.5156V11.3244H23.7048V10.1353Z" fill="black"/>
<path d="M26.0837 10.1353H24.8945V11.3244H26.0837V10.1353Z" fill="black"/>
<path d="M28.4665 10.1353H27.2773V11.3244H28.4665V10.1353Z" fill="black"/>
<path d="M30.8454 10.1354H29.6562V11.3246H30.8454V10.1354Z" fill="black"/>
<path d="M33.2243 10.1353H32.0352V11.3244H33.2243V10.1353Z" fill="black"/>
<path d="M35.6032 10.1353H34.4141V11.3244H35.6032V10.1353Z" fill="black"/>
<path d="M37.9782 10.1353H36.7891V11.3244H37.9782V10.1353Z" fill="black"/>
<path d="M16.572 11.3245H15.3828V12.5137H16.572V11.3245Z" fill="black"/>
<path d="M18.9509 11.3243H17.7617V12.5135H18.9509V11.3243Z" fill="black"/>
<path d="M21.3298 11.3245H20.1406V12.5137H21.3298V11.3245Z" fill="black"/>
<path d="M26.0837 11.3245H24.8945V12.5137H26.0837V11.3245Z" fill="black"/>
<path d="M27.2751 11.3245H26.0859V12.5137H27.2751V11.3245Z" fill="black"/>
<path d="M28.4665 11.3245H27.2773V12.5137H28.4665V11.3245Z" fill="black"/>
<path d="M30.8454 11.3244H29.6562V12.5136H30.8454V11.3244Z" fill="black"/>
<path d="M32.0329 11.3245H30.8438V12.5137H32.0329V11.3245Z" fill="black"/>
<path d="M34.4079 11.3245H33.2188V12.5137H34.4079V11.3245Z" fill="black"/>
<path d="M36.7868 11.3245H35.5977V12.5137H36.7868V11.3245Z" fill="black"/>
<path d="M37.9782 11.3245H36.7891V12.5137H37.9782V11.3245Z" fill="black"/>
<path d="M4.68137 12.5135H3.49219V13.7027H4.68137V12.5135Z" fill="black"/>
<path d="M8.25168 12.5137H7.0625V13.7029H8.25168V12.5137Z" fill="black"/>
<path d="M9.43527 12.5137H8.24609V13.7029H9.43527V12.5137Z" fill="black"/>
<path d="M10.6306 12.5137H9.44141V13.7029H10.6306V12.5137Z" fill="black"/>
<path d="M11.8142 12.5137H10.625V13.7029H11.8142V12.5137Z" fill="black"/>
<path d="M13.0056 12.5137H11.8164V13.7029H13.0056V12.5137Z" fill="black"/>
<path d="M14.197 12.5137H13.0078V13.7029H14.197V12.5137Z" fill="black"/>
<path d="M15.3845 12.5135H14.1953V13.7027H15.3845V12.5135Z" fill="black"/>
<path d="M17.7634 12.5137H16.5742V13.7029H17.7634V12.5137Z" fill="black"/>
<path d="M22.5173 12.5137H21.3281V13.7029H22.5173V12.5137Z" fill="black"/>
<path d="M23.7048 12.5137H22.5156V13.7029H23.7048V12.5137Z" fill="black"/>
<path d="M27.2751 12.5137H26.0859V13.7029H27.2751V12.5137Z" fill="black"/>
<path d="M32.0329 12.5137H30.8438V13.7029H32.0329V12.5137Z" fill="black"/>
<path d="M35.6032 12.5137H34.4141V13.7029H35.6032V12.5137Z" fill="black"/>
<path d="M39.1696 12.5137H37.9805V13.7029H39.1696V12.5137Z" fill="black"/>
<path d="M42.7361 12.5137H41.5469V13.7029H42.7361V12.5137Z" fill="black"/>
<path d="M45.1111 12.5137H43.9219V13.7029H45.1111V12.5137Z" fill="black"/>
<path d="M46.3025 12.5137H45.1133V13.7029H46.3025V12.5137Z" fill="black"/>
<path d="M47.49 12.5137H46.3008V13.7029H47.49V12.5137Z" fill="black"/>
<path d="M7.06027 13.7029H5.87109V14.8921H7.06027V13.7029Z" fill="black"/>
<path d="M13.0056 13.7029H11.8164V14.8921H13.0056V13.7029Z" fill="black"/>
<path d="M14.197 13.7029H13.0078V14.8921H14.197V13.7029Z" fill="black"/>
<path d="M20.1384 13.7029H18.9492V14.8921H20.1384V13.7029Z" fill="black"/>
<path d="M21.3298 13.7029H20.1406V14.8921H21.3298V13.7029Z" fill="black"/>
<path d="M24.9001 13.7029H23.7109V14.8921H24.9001V13.7029Z" fill="black"/>
<path d="M27.2751 13.7029H26.0859V14.8921H27.2751V13.7029Z" fill="black"/>
<path d="M30.8454 13.7028H29.6562V14.892H30.8454V13.7028Z" fill="black"/>
<path d="M32.0329 13.7029H30.8438V14.8921H32.0329V13.7029Z" fill="black"/>
<path d="M41.5486 13.7028H40.3594V14.892H41.5486V13.7028Z" fill="black"/>
<path d="M42.7361 13.7029H41.5469V14.8921H42.7361V13.7029Z" fill="black"/>
<path d="M43.9236 13.7027H42.7344V14.8919H43.9236V13.7027Z" fill="black"/>
<path d="M45.1111 13.7029H43.9219V14.8921H45.1111V13.7029Z" fill="black"/>
<path d="M46.3025 13.7029H45.1133V14.8921H46.3025V13.7029Z" fill="black"/>
<path d="M4.68137 14.8919H3.49219V16.0811H4.68137V14.8919Z" fill="black"/>
<path d="M10.6306 14.8918H9.44141V16.081H10.6306V14.8918Z" fill="black"/>
<path d="M11.8142 14.8918H10.625V16.081H11.8142V14.8918Z" fill="black"/>
<path d="M13.0056 14.8918H11.8164V16.081H13.0056V14.8918Z" fill="black"/>
<path d="M16.572 14.8918H15.3828V16.081H16.572V14.8918Z" fill="black"/>
<path d="M29.654 14.8918H28.4648V16.081H29.654V14.8918Z" fill="black"/>
<path d="M30.8454 14.8918H29.6562V16.081H30.8454V14.8918Z" fill="black"/>
<path d="M32.0329 14.8921H30.8438V16.0813H32.0329V14.8921Z" fill="black"/>
<path d="M34.4079 14.8921H33.2188V16.0813H34.4079V14.8921Z" fill="black"/>
<path d="M36.7868 14.8921H35.5977V16.0813H36.7868V14.8921Z" fill="black"/>
<path d="M39.1696 14.8918H37.9805V16.081H39.1696V14.8918Z" fill="black"/>
<path d="M40.3571 14.8918H39.168V16.081H40.3571V14.8918Z" fill="black"/>
<path d="M43.9236 14.8918H42.7344V16.081H43.9236V14.8918Z" fill="black"/>
<path d="M47.49 14.8918H46.3008V16.081H47.49V14.8918Z" fill="black"/>
<path d="M4.68137 16.0811H3.49219V17.2702H4.68137V16.0811Z" fill="black"/>
<path d="M7.06027 16.0811H5.87109V17.2702H7.06027V16.0811Z" fill="black"/>
<path d="M14.197 16.0813H13.0078V17.2705H14.197V16.0813Z" fill="black"/>
<path d="M15.3845 16.0811H14.1953V17.2703H15.3845V16.0811Z" fill="black"/>
<path d="M17.7634 16.0813H16.5742V17.2705H17.7634V16.0813Z" fill="black"/>
<path d="M18.9509 16.0811H17.7617V17.2703H18.9509V16.0811Z" fill="black"/>
<path d="M21.3298 16.0813H20.1406V17.2705H21.3298V16.0813Z" fill="black"/>
<path d="M22.5173 16.0813H21.3281V17.2705H22.5173V16.0813Z" fill="black"/>
<path d="M24.9001 16.0813H23.7109V17.2705H24.9001V16.0813Z" fill="black"/>
<path d="M27.2751 16.0813H26.0859V17.2705H27.2751V16.0813Z" fill="black"/>
<path d="M28.4665 16.0813H27.2773V17.2705H28.4665V16.0813Z" fill="black"/>
<path d="M30.8454 16.0812H29.6562V17.2704H30.8454V16.0812Z" fill="black"/>
<path d="M32.0329 16.0811H30.8438V17.2702H32.0329V16.0811Z" fill="black"/>
<path d="M35.6032 16.0813H34.4141V17.2705H35.6032V16.0813Z" fill="black"/>
<path d="M39.1696 16.0813H37.9805V17.2705H39.1696V16.0813Z" fill="black"/>
<path d="M40.3571 16.0811H39.168V17.2703H40.3571V16.0811Z" fill="black"/>
<path d="M41.5486 16.0812H40.3594V17.2704H41.5486V16.0812Z" fill="black"/>
<path d="M42.7361 16.0813H41.5469V17.2705H42.7361V16.0813Z" fill="black"/>
<path d="M45.1111 16.0813H43.9219V17.2705H45.1111V16.0813Z" fill="black"/>
<path d="M46.3025 16.0813H45.1133V17.2705H46.3025V16.0813Z" fill="black"/>
<path d="M47.49 16.0813H46.3008V17.2705H47.49V16.0813Z" fill="black"/>
<path d="M4.68137 17.2703H3.49219V18.4595H4.68137V17.2703Z" fill="black"/>
<path d="M5.86887 17.2703H4.67969V18.4595H5.86887V17.2703Z" fill="black"/>
<path d="M9.43527 17.2703H8.24609V18.4595H9.43527V17.2703Z" fill="black"/>
<path d="M10.6306 17.2703H9.44141V18.4595H10.6306V17.2703Z" fill="black"/>
<path d="M11.8142 17.2703H10.625V18.4595H11.8142V17.2703Z" fill="black"/>
<path d="M16.572 17.2703H15.3828V18.4595H16.572V17.2703Z" fill="black"/>
<path d="M20.1384 17.2703H18.9492V18.4595H20.1384V17.2703Z" fill="black"/>
<path d="M27.2751 17.2703H26.0859V18.4595H27.2751V17.2703Z" fill="black"/>
<path d="M33.2243 17.2703H32.0352V18.4595H33.2243V17.2703Z" fill="black"/>
<path d="M37.9782 17.2703H36.7891V18.4595H37.9782V17.2703Z" fill="black"/>
<path d="M40.3571 17.2703H39.168V18.4595H40.3571V17.2703Z" fill="black"/>
<path d="M47.49 17.2703H46.3008V18.4595H47.49V17.2703Z" fill="black"/>
<path d="M7.06027 18.4595H5.87109V19.6487H7.06027V18.4595Z" fill="black"/>
<path d="M8.25168 18.4592H7.0625V19.6484H8.25168V18.4592Z" fill="black"/>
<path d="M9.43527 18.4592H8.24609V19.6484H9.43527V18.4592Z" fill="black"/>
<path d="M10.6306 18.4592H9.44141V19.6484H10.6306V18.4592Z" fill="black"/>
<path d="M13.0056 18.4592H11.8164V19.6484H13.0056V18.4592Z" fill="black"/>
<path d="M14.197 18.4592H13.0078V19.6484H14.197V18.4592Z" fill="black"/>
<path d="M16.572 18.4592H15.3828V19.6484H16.572V18.4592Z" fill="black"/>
<path d="M17.7634 18.4592H16.5742V19.6484H17.7634V18.4592Z" fill="black"/>
<path d="M20.1384 18.4592H18.9492V19.6484H20.1384V18.4592Z" fill="black"/>
<path d="M22.5173 18.4592H21.3281V19.6484H22.5173V18.4592Z" fill="black"/>
<path d="M23.7048 18.4592H22.5156V19.6484H23.7048V18.4592Z" fill="black"/>
<path d="M24.9001 18.4592H23.7109V19.6484H24.9001V18.4592Z" fill="black"/>
<path d="M26.0837 18.4592H24.8945V19.6484H26.0837V18.4592Z" fill="black"/>
<path d="M29.654 18.4594H28.4648V19.6486H29.654V18.4594Z" fill="black"/>
<path d="M32.0329 18.4595H30.8438V19.6487H32.0329V18.4595Z" fill="black"/>
<path d="M33.2243 18.4592H32.0352V19.6484H33.2243V18.4592Z" fill="black"/>
<path d="M34.4079 18.4595H33.2188V19.6487H34.4079V18.4595Z" fill="black"/>
<path d="M35.6032 18.4592H34.4141V19.6484H35.6032V18.4592Z" fill="black"/>
<path d="M36.7868 18.4595H35.5977V19.6487H36.7868V18.4595Z" fill="black"/>
<path d="M37.9782 18.4592H36.7891V19.6484H37.9782V18.4592Z" fill="black"/>
<path d="M42.7361 18.4592H41.5469V19.6484H42.7361V18.4592Z" fill="black"/>
<path d="M43.9236 18.4594H42.7344V19.6486H43.9236V18.4594Z" fill="black"/>
<path d="M4.68137 19.6486H3.49219V20.8378H4.68137V19.6486Z" fill="black"/>
<path d="M5.86887 19.6487H4.67969V20.8379H5.86887V19.6487Z" fill="black"/>
<path d="M7.06027 19.6484H5.87109V20.8376H7.06027V19.6484Z" fill="black"/>
<path d="M8.25168 19.6487H7.0625V20.8379H8.25168V19.6487Z" fill="black"/>
<path d="M11.8142 19.6487H10.625V20.8379H11.8142V19.6487Z" fill="black"/>
<path d="M14.197 19.6487H13.0078V20.8379H14.197V19.6487Z" fill="black"/>
<path d="M16.572 19.6487H15.3828V20.8379H16.572V19.6487Z" fill="black"/>
<path d="M17.7634 19.6487H16.5742V20.8379H17.7634V19.6487Z" fill="black"/>
<path d="M18.9509 19.6487H17.7617V20.8379H18.9509V19.6487Z" fill="black"/>
<path d="M20.1384 19.6487H18.9492V20.8379H20.1384V19.6487Z" fill="black"/>
<path d="M22.5173 19.6487H21.3281V20.8379H22.5173V19.6487Z" fill="black"/>
<path d="M23.7048 19.6487H22.5156V20.8379H23.7048V19.6487Z" fill="black"/>
<path d="M24.9001 19.6487H23.7109V20.8379H24.9001V19.6487Z" fill="black"/>
<path d="M27.2751 19.6487H26.0859V20.8379H27.2751V19.6487Z" fill="black"/>
<path d="M29.654 19.6487H28.4648V20.8379H29.654V19.6487Z" fill="black"/>
<path d="M30.8454 19.6486H29.6562V20.8378H30.8454V19.6486Z" fill="black"/>
<path d="M34.4079 19.6484H33.2188V20.8376H34.4079V19.6484Z" fill="black"/>
<path d="M36.7868 19.6484H35.5977V20.8376H36.7868V19.6484Z" fill="black"/>
<path d="M39.1696 19.6487H37.9805V20.8379H39.1696V19.6487Z" fill="black"/>
<path d="M40.3571 19.6487H39.168V20.8379H40.3571V19.6487Z" fill="black"/>
<path d="M42.7361 19.6487H41.5469V20.8379H42.7361V19.6487Z" fill="black"/>
<path d="M43.9236 19.6487H42.7344V20.8379H43.9236V19.6487Z" fill="black"/>
<path d="M45.1111 19.6487H43.9219V20.8379H45.1111V19.6487Z" fill="black"/>
<path d="M46.3025 19.6487H45.1133V20.8379H46.3025V19.6487Z" fill="black"/>
<path d="M47.49 19.6487H46.3008V20.8379H47.49V19.6487Z" fill="black"/>
<path d="M5.86887 20.8376H4.67969V22.0268H5.86887V20.8376Z" fill="black"/>
<path d="M9.43527 20.8376H8.24609V22.0268H9.43527V20.8376Z" fill="black"/>
<path d="M10.6306 20.8376H9.44141V22.0268H10.6306V20.8376Z" fill="black"/>
<path d="M13.0056 20.8376H11.8164V22.0268H13.0056V20.8376Z" fill="black"/>
<path d="M17.7634 20.8376H16.5742V22.0268H17.7634V20.8376Z" fill="black"/>
<path d="M20.1384 20.8376H18.9492V22.0268H20.1384V20.8376Z" fill="black"/>
<path d="M21.3298 20.8376H20.1406V22.0268H21.3298V20.8376Z" fill="black"/>
<path d="M28.4665 20.8376H27.2773V22.0268H28.4665V20.8376Z" fill="black"/>
<path d="M35.6032 20.8376H34.4141V22.0268H35.6032V20.8376Z" fill="black"/>
<path d="M36.7868 20.8376H35.5977V22.0268H36.7868V20.8376Z" fill="black"/>
<path d="M39.1696 20.8376H37.9805V22.0268H39.1696V20.8376Z" fill="black"/>
<path d="M40.3571 20.8378H39.168V22.027H40.3571V20.8378Z" fill="black"/>
<path d="M41.5486 20.8376H40.3594V22.0268H41.5486V20.8376Z" fill="black"/>
<path d="M43.9236 20.8378H42.7344V22.027H43.9236V20.8378Z" fill="black"/>
<path d="M45.1111 20.8376H43.9219V22.0268H45.1111V20.8376Z" fill="black"/>
<path d="M46.3025 20.8376H45.1133V22.0268H46.3025V20.8376Z" fill="black"/>
<path d="M47.49 20.8376H46.3008V22.0268H47.49V20.8376Z" fill="black"/>
<path d="M5.86887 22.0271H4.67969V23.2163H5.86887V22.0271Z" fill="black"/>
<path d="M7.06027 22.0269H5.87109V23.216H7.06027V22.0269Z" fill="black"/>
<path d="M11.8142 22.0271H10.625V23.2163H11.8142V22.0271Z" fill="black"/>
<path d="M15.3845 22.027H14.1953V23.2162H15.3845V22.027Z" fill="black"/>
<path d="M17.7634 22.0271H16.5742V23.2163H17.7634V22.0271Z" fill="black"/>
<path d="M18.9509 22.027H17.7617V23.2162H18.9509V22.027Z" fill="black"/>
<path d="M20.1384 22.0271H18.9492V23.2163H20.1384V22.0271Z" fill="black"/>
<path d="M21.3298 22.0271H20.1406V23.2163H21.3298V22.0271Z" fill="black"/>
<path d="M30.8454 22.0272H29.6562V23.2164H30.8454V22.0272Z" fill="black"/>
<path d="M33.2243 22.0271H32.0352V23.2163H33.2243V22.0271Z" fill="black"/>
<path d="M34.4079 22.0269H33.2188V23.216H34.4079V22.0269Z" fill="black"/>
<path d="M36.7868 22.0269H35.5977V23.216H36.7868V22.0269Z" fill="black"/>
<path d="M40.3571 22.027H39.168V23.2162H40.3571V22.027Z" fill="black"/>
<path d="M45.1111 22.0271H43.9219V23.2163H45.1111V22.0271Z" fill="black"/>
<path d="M46.3025 22.0271H45.1133V23.2163H46.3025V22.0271Z" fill="black"/>
<path d="M4.68137 23.2162H3.49219V24.4054H4.68137V23.2162Z" fill="black"/>
<path d="M7.06027 23.2161H5.87109V24.4053H7.06027V23.2161Z" fill="black"/>
<path d="M14.197 23.2161H13.0078V24.4053H14.197V23.2161Z" fill="black"/>
<path d="M23.7048 23.2161H22.5156V24.4053H23.7048V23.2161Z" fill="black"/>
<path d="M24.9001 23.2161H23.7109V24.4053H24.9001V23.2161Z" fill="black"/>
<path d="M27.2751 23.2161H26.0859V24.4053H27.2751V23.2161Z" fill="black"/>
<path d="M28.4665 23.2161H27.2773V24.4053H28.4665V23.2161Z" fill="black"/>
<path d="M29.654 23.2162H28.4648V24.4054H29.654V23.2162Z" fill="black"/>
<path d="M30.8454 23.2161H29.6562V24.4053H30.8454V23.2161Z" fill="black"/>
<path d="M34.4079 23.2161H33.2188V24.4053H34.4079V23.2161Z" fill="black"/>
<path d="M35.6032 23.2161H34.4141V24.4053H35.6032V23.2161Z" fill="black"/>
<path d="M36.7868 23.2161H35.5977V24.4053H36.7868V23.2161Z" fill="black"/>
<path d="M39.1696 23.2161H37.9805V24.4053H39.1696V23.2161Z" fill="black"/>
<path d="M41.5486 23.2161H40.3594V24.4053H41.5486V23.2161Z" fill="black"/>
<path d="M43.9236 23.2162H42.7344V24.4054H43.9236V23.2162Z" fill="black"/>
<path d="M8.25168 24.4055H7.0625V25.5947H8.25168V24.4055Z" fill="black"/>
<path d="M9.43527 24.4055H8.24609V25.5947H9.43527V24.4055Z" fill="black"/>
<path d="M10.6306 24.4055H9.44141V25.5947H10.6306V24.4055Z" fill="black"/>
<path d="M11.8142 24.4055H10.625V25.5947H11.8142V24.4055Z" fill="black"/>
<path d="M15.3845 24.4054H14.1953V25.5946H15.3845V24.4054Z" fill="black"/>
<path d="M18.9509 24.4054H17.7617V25.5946H18.9509V24.4054Z" fill="black"/>
<path d="M20.1384 24.4055H18.9492V25.5947H20.1384V24.4055Z" fill="black"/>
<path d="M21.3298 24.4055H20.1406V25.5947H21.3298V24.4055Z" fill="black"/>
<path d="M22.5173 24.4055H21.3281V25.5947H22.5173V24.4055Z" fill="black"/>
<path d="M24.9001 24.4055H23.7109V25.5947H24.9001V24.4055Z" fill="black"/>
<path d="M27.2751 24.4055H26.0859V25.5947H27.2751V24.4055Z" fill="black"/>
<path d="M32.0329 24.4055H30.8438V25.5947H32.0329V24.4055Z" fill="black"/>
<path d="M34.4079 24.4055H33.2188V25.5947H34.4079V24.4055Z" fill="black"/>
<path d="M36.7868 24.4055H35.5977V25.5947H36.7868V24.4055Z" fill="black"/>
<path d="M41.5486 24.4056H40.3594V25.5948H41.5486V24.4056Z" fill="black"/>
<path d="M45.1111 24.4055H43.9219V25.5947H45.1111V24.4055Z" fill="black"/>
<path d="M47.49 24.4055H46.3008V25.5947H47.49V24.4055Z" fill="black"/>
<path d="M5.86887 25.5947H4.67969V26.7839H5.86887V25.5947Z" fill="black"/>
<path d="M7.06027 25.5947H5.87109V26.7839H7.06027V25.5947Z" fill="black"/>
<path d="M8.25168 25.5947H7.0625V26.7839H8.25168V25.5947Z" fill="black"/>
<path d="M10.6306 25.5947H9.44141V26.7839H10.6306V25.5947Z" fill="black"/>
<path d="M13.0056 25.5947H11.8164V26.7839H13.0056V25.5947Z" fill="black"/>
<path d="M17.7634 25.5947H16.5742V26.7839H17.7634V25.5947Z" fill="black"/>
<path d="M18.9509 25.5946H17.7617V26.7838H18.9509V25.5946Z" fill="black"/>
<path d="M23.7048 25.5947H22.5156V26.7839H23.7048V25.5947Z" fill="black"/>
<path d="M26.0837 25.5947H24.8945V26.7839H26.0837V25.5947Z" fill="black"/>
<path d="M27.2751 25.5947H26.0859V26.7839H27.2751V25.5947Z" fill="black"/>
<path d="M30.8454 25.5948H29.6562V26.784H30.8454V25.5948Z" fill="black"/>
<path d="M33.2243 25.5947H32.0352V26.7839H33.2243V25.5947Z" fill="black"/>
<path d="M34.4079 25.5947H33.2188V26.7839H34.4079V25.5947Z" fill="black"/>
<path d="M35.6032 25.5947H34.4141V26.7839H35.6032V25.5947Z" fill="black"/>
<path d="M37.9782 25.5947H36.7891V26.7839H37.9782V25.5947Z" fill="black"/>
<path d="M40.3571 25.5946H39.168V26.7838H40.3571V25.5946Z" fill="black"/>
<path d="M43.9236 25.5946H42.7344V26.7838H43.9236V25.5946Z" fill="black"/>
<path d="M47.49 25.5947H46.3008V26.7839H47.49V25.5947Z" fill="black"/>
<path d="M4.68137 26.7838H3.49219V27.9729H4.68137V26.7838Z" fill="black"/>
<path d="M5.86887 26.7839H4.67969V27.9731H5.86887V26.7839Z" fill="black"/>
<path d="M7.06027 26.7839H5.87109V27.9731H7.06027V26.7839Z" fill="black"/>
<path d="M8.25168 26.7839H7.0625V27.9731H8.25168V26.7839Z" fill="black"/>
<path d="M10.6306 26.7839H9.44141V27.9731H10.6306V26.7839Z" fill="black"/>
<path d="M11.8142 26.7839H10.625V27.9731H11.8142V26.7839Z" fill="black"/>
<path d="M13.0056 26.7839H11.8164V27.9731H13.0056V26.7839Z" fill="black"/>
<path d="M14.197 26.7839H13.0078V27.9731H14.197V26.7839Z" fill="black"/>
<path d="M16.572 26.7839H15.3828V27.9731H16.572V26.7839Z" fill="black"/>
<path d="M17.7634 26.7839H16.5742V27.9731H17.7634V26.7839Z" fill="black"/>
<path d="M18.9509 26.7838H17.7617V27.9729H18.9509V26.7838Z" fill="black"/>
<path d="M20.1384 26.7839H18.9492V27.9731H20.1384V26.7839Z" fill="black"/>
<path d="M21.3298 26.7839H20.1406V27.9731H21.3298V26.7839Z" fill="black"/>
<path d="M22.5173 26.7839H21.3281V27.9731H22.5173V26.7839Z" fill="black"/>
<path d="M23.7048 26.7839H22.5156V27.9731H23.7048V26.7839Z" fill="black"/>
<path d="M24.9001 26.7839H23.7109V27.9731H24.9001V26.7839Z" fill="black"/>
<path d="M28.4665 26.7839H27.2773V27.9731H28.4665V26.7839Z" fill="black"/>
<path d="M33.2243 26.7839H32.0352V27.9731H33.2243V26.7839Z" fill="black"/>
<path d="M35.6032 26.7839H34.4141V27.9731H35.6032V26.7839Z" fill="black"/>
<path d="M36.7868 26.7839H35.5977V27.9731H36.7868V26.7839Z" fill="black"/>
<path d="M37.9782 26.7839H36.7891V27.9731H37.9782V26.7839Z" fill="black"/>
<path d="M39.1696 26.7839H37.9805V27.9731H39.1696V26.7839Z" fill="black"/>
<path d="M40.3571 26.7838H39.168V27.9729H40.3571V26.7838Z" fill="black"/>
<path d="M41.5486 26.7838H40.3594V27.973H41.5486V26.7838Z" fill="black"/>
<path d="M42.7361 26.7839H41.5469V27.9731H42.7361V26.7839Z" fill="black"/>
<path d="M43.9236 26.7838H42.7344V27.9729H43.9236V26.7838Z" fill="black"/>
<path d="M5.86887 27.9731H4.67969V29.1623H5.86887V27.9731Z" fill="black"/>
<path d="M8.25168 27.9731H7.0625V29.1623H8.25168V27.9731Z" fill="black"/>
<path d="M13.0056 27.9731H11.8164V29.1623H13.0056V27.9731Z" fill="black"/>
<path d="M14.197 27.9731H13.0078V29.1623H14.197V27.9731Z" fill="black"/>
<path d="M15.3845 27.973H14.1953V29.1622H15.3845V27.973Z" fill="black"/>
<path d="M18.9509 27.973H17.7617V29.1622H18.9509V27.973Z" fill="black"/>
<path d="M22.5173 27.9731H21.3281V29.1623H22.5173V27.9731Z" fill="black"/>
<path d="M26.0837 27.9731H24.8945V29.1623H26.0837V27.9731Z" fill="black"/>
<path d="M27.2751 27.9731H26.0859V29.1623H27.2751V27.9731Z" fill="black"/>
<path d="M32.0329 27.9731H30.8438V29.1623H32.0329V27.9731Z" fill="black"/>
<path d="M35.6032 27.9731H34.4141V29.1623H35.6032V27.9731Z" fill="black"/>
<path d="M36.7868 27.9731H35.5977V29.1623H36.7868V27.9731Z" fill="black"/>
<path d="M42.7361 27.9731H41.5469V29.1623H42.7361V27.9731Z" fill="black"/>
<path d="M45.1111 27.9731H43.9219V29.1623H45.1111V27.9731Z" fill="black"/>
<path d="M4.68137 29.1622H3.49219V30.3514H4.68137V29.1622Z" fill="black"/>
<path d="M8.25168 29.1621H7.0625V30.3513H8.25168V29.1621Z" fill="black"/>
<path d="M11.8142 29.1621H10.625V30.3513H11.8142V29.1621Z" fill="black"/>
<path d="M14.197 29.1621H13.0078V30.3513H14.197V29.1621Z" fill="black"/>
<path d="M17.7634 29.1621H16.5742V30.3513H17.7634V29.1621Z" fill="black"/>
<path d="M20.1384 29.1621H18.9492V30.3513H20.1384V29.1621Z" fill="black"/>
<path d="M22.5173 29.1621H21.3281V30.3513H22.5173V29.1621Z" fill="black"/>
<path d="M23.7048 29.1621H22.5156V30.3513H23.7048V29.1621Z" fill="black"/>
<path d="M26.0837 29.1621H24.8945V30.3513H26.0837V29.1621Z" fill="black"/>
<path d="M30.8454 29.1622H29.6562V30.3514H30.8454V29.1622Z" fill="black"/>
<path d="M32.0329 29.1621H30.8438V30.3513H32.0329V29.1621Z" fill="black"/>
<path d="M35.6032 29.1621H34.4141V30.3513H35.6032V29.1621Z" fill="black"/>
<path d="M36.7868 29.1621H35.5977V30.3513H36.7868V29.1621Z" fill="black"/>
<path d="M40.3571 29.1622H39.168V30.3514H40.3571V29.1622Z" fill="black"/>
<path d="M41.5486 29.1622H40.3594V30.3514H41.5486V29.1622Z" fill="black"/>
<path d="M43.9236 29.1622H42.7344V30.3514H43.9236V29.1622Z" fill="black"/>
<path d="M47.49 29.1621H46.3008V30.3513H47.49V29.1621Z" fill="black"/>
<path d="M5.86887 30.3513H4.67969V31.5405H5.86887V30.3513Z" fill="black"/>
<path d="M7.06027 30.3513H5.87109V31.5405H7.06027V30.3513Z" fill="black"/>
<path d="M8.25168 30.3513H7.0625V31.5405H8.25168V30.3513Z" fill="black"/>
<path d="M10.6306 30.3513H9.44141V31.5405H10.6306V30.3513Z" fill="black"/>
<path d="M13.0056 30.3513H11.8164V31.5405H13.0056V30.3513Z" fill="black"/>
<path d="M15.3845 30.3513H14.1953V31.5405H15.3845V30.3513Z" fill="black"/>
<path d="M16.572 30.3513H15.3828V31.5405H16.572V30.3513Z" fill="black"/>
<path d="M17.7634 30.3513H16.5742V31.5405H17.7634V30.3513Z" fill="black"/>
<path d="M18.9509 30.3513H17.7617V31.5405H18.9509V30.3513Z" fill="black"/>
<path d="M20.1384 30.3513H18.9492V31.5405H20.1384V30.3513Z" fill="black"/>
<path d="M21.3298 30.3513H20.1406V31.5405H21.3298V30.3513Z" fill="black"/>
<path d="M23.7048 30.3513H22.5156V31.5405H23.7048V30.3513Z" fill="black"/>
<path d="M24.9001 30.3513H23.7109V31.5405H24.9001V30.3513Z" fill="black"/>
<path d="M36.7868 30.3513H35.5977V31.5405H36.7868V30.3513Z" fill="black"/>
<path d="M40.3571 30.3513H39.168V31.5405H40.3571V30.3513Z" fill="black"/>
<path d="M41.5486 30.3513H40.3594V31.5404H41.5486V30.3513Z" fill="black"/>
<path d="M42.7361 30.3513H41.5469V31.5405H42.7361V30.3513Z" fill="black"/>
<path d="M43.9236 30.3513H42.7344V31.5405H43.9236V30.3513Z" fill="black"/>
<path d="M45.1111 30.3513H43.9219V31.5405H45.1111V30.3513Z" fill="black"/>
<path d="M4.68137 31.5405H3.49219V32.7297H4.68137V31.5405Z" fill="black"/>
<path d="M9.43527 31.5405H8.24609V32.7297H9.43527V31.5405Z" fill="black"/>
<path d="M10.6306 31.5405H9.44141V32.7297H10.6306V31.5405Z" fill="black"/>
<path d="M11.8142 31.5405H10.625V32.7297H11.8142V31.5405Z" fill="black"/>
<path d="M13.0056 31.5405H11.8164V32.7297H13.0056V31.5405Z" fill="black"/>
<path d="M15.3845 31.5406H14.1953V32.7298H15.3845V31.5406Z" fill="black"/>
<path d="M17.7634 31.5405H16.5742V32.7297H17.7634V31.5405Z" fill="black"/>
<path d="M18.9509 31.5406H17.7617V32.7298H18.9509V31.5406Z" fill="black"/>
<path d="M21.3298 31.5405H20.1406V32.7297H21.3298V31.5405Z" fill="black"/>
<path d="M23.7048 31.5405H22.5156V32.7297H23.7048V31.5405Z" fill="black"/>
<path d="M27.2751 31.5405H26.0859V32.7297H27.2751V31.5405Z" fill="black"/>
<path d="M33.2243 31.5405H32.0352V32.7297H33.2243V31.5405Z" fill="black"/>
<path d="M35.6032 31.5405H34.4141V32.7297H35.6032V31.5405Z" fill="black"/>
<path d="M40.3571 31.5406H39.168V32.7298H40.3571V31.5406Z" fill="black"/>
<path d="M41.5486 31.5406H40.3594V32.7298H41.5486V31.5406Z" fill="black"/>
<path d="M4.68137 32.7297H3.49219V33.9189H4.68137V32.7297Z" fill="black"/>
<path d="M5.86887 32.7297H4.67969V33.9189H5.86887V32.7297Z" fill="black"/>
<path d="M7.06027 32.7297H5.87109V33.9189H7.06027V32.7297Z" fill="black"/>
<path d="M8.25168 32.7297H7.0625V33.9189H8.25168V32.7297Z" fill="black"/>
<path d="M9.43527 32.7297H8.24609V33.9189H9.43527V32.7297Z" fill="black"/>
<path d="M10.6306 32.7297H9.44141V33.9189H10.6306V32.7297Z" fill="black"/>
<path d="M13.0056 32.7297H11.8164V33.9189H13.0056V32.7297Z" fill="black"/>
<path d="M14.197 32.7297H13.0078V33.9189H14.197V32.7297Z" fill="black"/>
<path d="M15.3845 32.7297H14.1953V33.9189H15.3845V32.7297Z" fill="black"/>
<path d="M20.1384 32.7297H18.9492V33.9189H20.1384V32.7297Z" fill="black"/>
<path d="M21.3298 32.7297H20.1406V33.9189H21.3298V32.7297Z" fill="black"/>
<path d="M22.5173 32.7297H21.3281V33.9189H22.5173V32.7297Z" fill="black"/>
<path d="M23.7048 32.7297H22.5156V33.9189H23.7048V32.7297Z" fill="black"/>
<path d="M26.0837 32.7297H24.8945V33.9189H26.0837V32.7297Z" fill="black"/>
<path d="M28.4665 32.7297H27.2773V33.9189H28.4665V32.7297Z" fill="black"/>
<path d="M32.0329 32.7297H30.8438V33.9189H32.0329V32.7297Z" fill="black"/>
<path d="M34.4079 32.7297H33.2188V33.9189H34.4079V32.7297Z" fill="black"/>
<path d="M35.6032 32.7297H34.4141V33.9189H35.6032V32.7297Z" fill="black"/>
<path d="M36.7868 32.7297H35.5977V33.9189H36.7868V32.7297Z" fill="black"/>
<path d="M37.9782 32.7297H36.7891V33.9189H37.9782V32.7297Z" fill="black"/>
<path d="M41.5486 32.7297H40.3594V33.9189H41.5486V32.7297Z" fill="black"/>
<path d="M42.7361 32.7297H41.5469V33.9189H42.7361V32.7297Z" fill="black"/>
<path d="M4.68137 33.9189H3.49219V35.1081H4.68137V33.9189Z" fill="black"/>
<path d="M5.86887 33.9187H4.67969V35.1079H5.86887V33.9187Z" fill="black"/>
<path d="M8.25168 33.9187H7.0625V35.1079H8.25168V33.9187Z" fill="black"/>
<path d="M11.8142 33.9187H10.625V35.1079H11.8142V33.9187Z" fill="black"/>
<path d="M14.197 33.9187H13.0078V35.1079H14.197V33.9187Z" fill="black"/>
<path d="M18.9509 33.9189H17.7617V35.1081H18.9509V33.9189Z" fill="black"/>
<path d="M20.1384 33.9187H18.9492V35.1079H20.1384V33.9187Z" fill="black"/>
<path d="M22.5173 33.9187H21.3281V35.1079H22.5173V33.9187Z" fill="black"/>
<path d="M23.7048 33.9187H22.5156V35.1079H23.7048V33.9187Z" fill="black"/>
<path d="M27.2751 33.9187H26.0859V35.1079H27.2751V33.9187Z" fill="black"/>
<path d="M30.8454 33.9187H29.6562V35.1079H30.8454V33.9187Z" fill="black"/>
<path d="M34.4079 33.9189H33.2188V35.1081H34.4079V33.9189Z" fill="black"/>
<path d="M35.6032 33.9187H34.4141V35.1079H35.6032V33.9187Z" fill="black"/>
<path d="M36.7868 33.9189H35.5977V35.1081H36.7868V33.9189Z" fill="black"/>
<path d="M37.9782 33.9187H36.7891V35.1079H37.9782V33.9187Z" fill="black"/>
<path d="M40.3571 33.9189H39.168V35.1081H40.3571V33.9189Z" fill="black"/>
<path d="M46.3025 33.9187H45.1133V35.1079H46.3025V33.9187Z" fill="black"/>
<path d="M47.49 33.9187H46.3008V35.1079H47.49V33.9187Z" fill="black"/>
<path d="M4.68137 35.1081H3.49219V36.2973H4.68137V35.1081Z" fill="black"/>
<path d="M7.06027 35.1079H5.87109V36.2971H7.06027V35.1079Z" fill="black"/>
<path d="M16.572 35.1082H15.3828V36.2973H16.572V35.1082Z" fill="black"/>
<path d="M21.3298 35.1082H20.1406V36.2973H21.3298V35.1082Z" fill="black"/>
<path d="M22.5173 35.1082H21.3281V36.2973H22.5173V35.1082Z" fill="black"/>
<path d="M23.7048 35.1082H22.5156V36.2973H23.7048V35.1082Z" fill="black"/>
<path d="M30.8454 35.108H29.6562V36.2972H30.8454V35.108Z" fill="black"/>
<path d="M32.0329 35.1079H30.8438V36.2971H32.0329V35.1079Z" fill="black"/>
<path d="M33.2243 35.1082H32.0352V36.2973H33.2243V35.1082Z" fill="black"/>
<path d="M36.7868 35.1079H35.5977V36.2971H36.7868V35.1079Z" fill="black"/>
<path d="M39.1696 35.1082H37.9805V36.2973H39.1696V35.1082Z" fill="black"/>
<path d="M40.3571 35.1082H39.168V36.2973H40.3571V35.1082Z" fill="black"/>
<path d="M41.5486 35.108H40.3594V36.2972H41.5486V35.108Z" fill="black"/>
<path d="M43.9236 35.1082H42.7344V36.2973H43.9236V35.1082Z" fill="black"/>
<path d="M45.1111 35.1082H43.9219V36.2973H45.1111V35.1082Z" fill="black"/>
<path d="M46.3025 35.1082H45.1133V36.2973H46.3025V35.1082Z" fill="black"/>
<path d="M4.68137 36.2973H3.49219V37.4865H4.68137V36.2973Z" fill="black"/>
<path d="M9.43527 36.2971H8.24609V37.4863H9.43527V36.2971Z" fill="black"/>
<path d="M10.6306 36.2971H9.44141V37.4863H10.6306V36.2971Z" fill="black"/>
<path d="M11.8142 36.2971H10.625V37.4863H11.8142V36.2971Z" fill="black"/>
<path d="M14.197 36.2971H13.0078V37.4863H14.197V36.2971Z" fill="black"/>
<path d="M17.7634 36.2971H16.5742V37.4863H17.7634V36.2971Z" fill="black"/>
<path d="M20.1384 36.2971H18.9492V37.4863H20.1384V36.2971Z" fill="black"/>
<path d="M22.5173 36.2971H21.3281V37.4863H22.5173V36.2971Z" fill="black"/>
<path d="M28.4665 36.2971H27.2773V37.4863H28.4665V36.2971Z" fill="black"/>
<path d="M30.8454 36.2971H29.6562V37.4863H30.8454V36.2971Z" fill="black"/>
<path d="M32.0329 36.2971H30.8438V37.4863H32.0329V36.2971Z" fill="black"/>
<path d="M33.2243 36.2971H32.0352V37.4863H33.2243V36.2971Z" fill="black"/>
<path d="M34.4079 36.2971H33.2188V37.4863H34.4079V36.2971Z" fill="black"/>
<path d="M35.6032 36.2971H34.4141V37.4863H35.6032V36.2971Z" fill="black"/>
<path d="M36.7868 36.2971H35.5977V37.4863H36.7868V36.2971Z" fill="black"/>
<path d="M37.9782 36.2971H36.7891V37.4863H37.9782V36.2971Z" fill="black"/>
<path d="M39.1696 36.2971H37.9805V37.4863H39.1696V36.2971Z" fill="black"/>
<path d="M40.3571 36.2973H39.168V37.4865H40.3571V36.2973Z" fill="black"/>
<path d="M41.5486 36.2971H40.3594V37.4863H41.5486V36.2971Z" fill="black"/>
<path d="M42.7361 36.2971H41.5469V37.4863H42.7361V36.2971Z" fill="black"/>
<path d="M43.9236 36.2973H42.7344V37.4865H43.9236V36.2973Z" fill="black"/>
<path d="M45.1111 36.2971H43.9219V37.4863H45.1111V36.2971Z" fill="black"/>
<path d="M46.3025 36.2971H45.1133V37.4863H46.3025V36.2971Z" fill="black"/>
<path d="M47.49 36.2971H46.3008V37.4863H47.49V36.2971Z" fill="black"/>
<path d="M14.197 37.4866H13.0078V38.6758H14.197V37.4866Z" fill="black"/>
<path d="M22.5173 37.4866H21.3281V38.6758H22.5173V37.4866Z" fill="black"/>
<path d="M27.2751 37.4866H26.0859V38.6758H27.2751V37.4866Z" fill="black"/>
<path d="M28.4665 37.4866H27.2773V38.6758H28.4665V37.4866Z" fill="black"/>
<path d="M29.654 37.4865H28.4648V38.6756H29.654V37.4865Z" fill="black"/>
<path d="M30.8454 37.4866H29.6562V38.6758H30.8454V37.4866Z" fill="black"/>
<path d="M37.9782 37.4866H36.7891V38.6758H37.9782V37.4866Z" fill="black"/>
<path d="M42.7361 37.4866H41.5469V38.6758H42.7361V37.4866Z" fill="black"/>
<path d="M45.1111 37.4866H43.9219V38.6758H45.1111V37.4866Z" fill="black"/>
<path d="M14.197 38.6755H13.0078V39.8647H14.197V38.6755Z" fill="black"/>
<path d="M18.9509 38.6757H17.7617V39.8648H18.9509V38.6757Z" fill="black"/>
<path d="M20.1384 38.6755H18.9492V39.8647H20.1384V38.6755Z" fill="black"/>
<path d="M21.3298 38.6755H20.1406V39.8647H21.3298V38.6755Z" fill="black"/>
<path d="M22.5173 38.6755H21.3281V39.8647H22.5173V38.6755Z" fill="black"/>
<path d="M24.9001 38.6755H23.7109V39.8647H24.9001V38.6755Z" fill="black"/>
<path d="M26.0837 38.6755H24.8945V39.8647H26.0837V38.6755Z" fill="black"/>
<path d="M27.2751 38.6755H26.0859V39.8647H27.2751V38.6755Z" fill="black"/>
<path d="M32.0329 38.6758H30.8438V39.865H32.0329V38.6758Z" fill="black"/>
<path d="M37.9782 38.6755H36.7891V39.8647H37.9782V38.6755Z" fill="black"/>
<path d="M40.3571 38.6757H39.168V39.8648H40.3571V38.6757Z" fill="black"/>
<path d="M42.7361 38.6755H41.5469V39.8647H42.7361V38.6755Z" fill="black"/>
<path d="M46.3025 38.6755H45.1133V39.8647H46.3025V38.6755Z" fill="black"/>
<path d="M47.49 38.6755H46.3008V39.8647H47.49V38.6755Z" fill="black"/>
<path d="M14.197 39.865H13.0078V41.0542H14.197V39.865Z" fill="black"/>
<path d="M15.3845 39.8649H14.1953V41.0541H15.3845V39.8649Z" fill="black"/>
<path d="M16.572 39.865H15.3828V41.0542H16.572V39.865Z" fill="black"/>
<path d="M18.9509 39.8649H17.7617V41.0541H18.9509V39.8649Z" fill="black"/>
<path d="M26.0837 39.865H24.8945V41.0542H26.0837V39.865Z" fill="black"/>
<path d="M32.0329 39.865H30.8438V41.0542H32.0329V39.865Z" fill="black"/>
<path d="M33.2243 39.865H32.0352V41.0542H33.2243V39.865Z" fill="black"/>
<path d="M34.4079 39.865H33.2188V41.0542H34.4079V39.865Z" fill="black"/>
<path d="M35.6032 39.865H34.4141V41.0542H35.6032V39.865Z" fill="black"/>
<path d="M37.9782 39.865H36.7891V41.0542H37.9782V39.865Z" fill="black"/>
<path d="M42.7361 39.865H41.5469V41.0542H42.7361V39.865Z" fill="black"/>
<path d="M46.3025 39.865H45.1133V41.0542H46.3025V39.865Z" fill="black"/>
<path d="M14.197 41.054H13.0078V42.2431H14.197V41.054Z" fill="black"/>
<path d="M18.9509 41.054H17.7617V42.2432H18.9509V41.054Z" fill="black"/>
<path d="M20.1384 41.054H18.9492V42.2431H20.1384V41.054Z" fill="black"/>
<path d="M21.3298 41.054H20.1406V42.2431H21.3298V41.054Z" fill="black"/>
<path d="M22.5173 41.054H21.3281V42.2431H22.5173V41.054Z" fill="black"/>
<path d="M24.9001 41.054H23.7109V42.2431H24.9001V41.054Z" fill="black"/>
<path d="M33.2243 41.054H32.0352V42.2431H33.2243V41.054Z" fill="black"/>
<path d="M35.6032 41.054H34.4141V42.2431H35.6032V41.054Z" fill="black"/>
<path d="M36.7868 41.0542H35.5977V42.2434H36.7868V41.0542Z" fill="black"/>
<path d="M37.9782 41.054H36.7891V42.2431H37.9782V41.054Z" fill="black"/>
<path d="M39.1696 41.054H37.9805V42.2431H39.1696V41.054Z" fill="black"/>
<path d="M40.3571 41.054H39.168V42.2432H40.3571V41.054Z" fill="black"/>
<path d="M41.5486 41.0541H40.3594V42.2433H41.5486V41.0541Z" fill="black"/>
<path d="M42.7361 41.054H41.5469V42.2431H42.7361V41.054Z" fill="black"/>
<path d="M47.49 41.054H46.3008V42.2431H47.49V41.054Z" fill="black"/>
<path d="M14.197 42.2434H13.0078V43.4326H14.197V42.2434Z" fill="black"/>
<path d="M16.572 42.2434H15.3828V43.4326H16.572V42.2434Z" fill="black"/>
<path d="M17.7634 42.2434H16.5742V43.4326H17.7634V42.2434Z" fill="black"/>
<path d="M20.1384 42.2434H18.9492V43.4326H20.1384V42.2434Z" fill="black"/>
<path d="M22.5173 42.2434H21.3281V43.4326H22.5173V42.2434Z" fill="black"/>
<path d="M26.0837 42.2434H24.8945V43.4326H26.0837V42.2434Z" fill="black"/>
<path d="M27.2751 42.2434H26.0859V43.4326H27.2751V42.2434Z" fill="black"/>
<path d="M30.8454 42.2434H29.6562V43.4326H30.8454V42.2434Z" fill="black"/>
<path d="M32.0329 42.2432H30.8438V43.4324H32.0329V42.2432Z" fill="black"/>
<path d="M34.4079 42.2432H33.2188V43.4324H34.4079V42.2432Z" fill="black"/>
<path d="M36.7868 42.2432H35.5977V43.4324H36.7868V42.2432Z" fill="black"/>
<path d="M37.9782 42.2434H36.7891V43.4326H37.9782V42.2434Z" fill="black"/>
<path d="M39.1696 42.2434H37.9805V43.4326H39.1696V42.2434Z" fill="black"/>
<path d="M40.3571 42.2432H39.168V43.4324H40.3571V42.2432Z" fill="black"/>
<path d="M43.9236 42.2432H42.7344V43.4324H43.9236V42.2432Z" fill="black"/>
<path d="M46.3025 42.2434H45.1133V43.4326H46.3025V42.2434Z" fill="black"/>
<path d="M47.49 42.2434H46.3008V43.4326H47.49V42.2434Z" fill="black"/>
<path d="M16.572 43.4324H15.3828V44.6216H16.572V43.4324Z" fill="black"/>
<path d="M17.7634 43.4324H16.5742V44.6216H17.7634V43.4324Z" fill="black"/>
<path d="M20.1384 43.4324H18.9492V44.6216H20.1384V43.4324Z" fill="black"/>
<path d="M21.3298 43.4324H20.1406V44.6216H21.3298V43.4324Z" fill="black"/>
<path d="M22.5173 43.4324H21.3281V44.6216H22.5173V43.4324Z" fill="black"/>
<path d="M23.7048 43.4324H22.5156V44.6216H23.7048V43.4324Z" fill="black"/>
<path d="M24.9001 43.4324H23.7109V44.6216H24.9001V43.4324Z" fill="black"/>
<path d="M29.654 43.4324H28.4648V44.6216H29.654V43.4324Z" fill="black"/>
<path d="M30.8454 43.4325H29.6562V44.6217H30.8454V43.4325Z" fill="black"/>
<path d="M32.0329 43.4324H30.8438V44.6216H32.0329V43.4324Z" fill="black"/>
<path d="M33.2243 43.4324H32.0352V44.6216H33.2243V43.4324Z" fill="black"/>
<path d="M34.4079 43.4324H33.2188V44.6216H34.4079V43.4324Z" fill="black"/>
<path d="M36.7868 43.4324H35.5977V44.6216H36.7868V43.4324Z" fill="black"/>
<path d="M37.9782 43.4324H36.7891V44.6216H37.9782V43.4324Z" fill="black"/>
<path d="M42.7361 43.4324H41.5469V44.6216H42.7361V43.4324Z" fill="black"/>
<path d="M45.1111 43.4324H43.9219V44.6216H45.1111V43.4324Z" fill="black"/>
<path d="M47.49 43.4324H46.3008V44.6216H47.49V43.4324Z" fill="black"/>
<path d="M23.7048 44.6216H22.5156V45.8108H23.7048V44.6216Z" fill="black"/>
<path d="M24.9001 44.6216H23.7109V45.8108H24.9001V44.6216Z" fill="black"/>
<path d="M26.0837 44.6216H24.8945V45.8108H26.0837V44.6216Z" fill="black"/>
<path d="M32.0329 44.6216H30.8438V45.8108H32.0329V44.6216Z" fill="black"/>
<path d="M33.2243 44.6216H32.0352V45.8108H33.2243V44.6216Z" fill="black"/>
<path d="M40.3571 44.6216H39.168V45.8108H40.3571V44.6216Z" fill="black"/>
<path d="M42.7361 44.6216H41.5469V45.8108H42.7361V44.6216Z" fill="black"/>
<path d="M43.9236 44.6216H42.7344V45.8108H43.9236V44.6216Z" fill="black"/>
<path d="M45.1111 44.6216H43.9219V45.8108H45.1111V44.6216Z" fill="black"/>
<path d="M46.3025 44.6216H45.1133V45.8108H46.3025V44.6216Z" fill="black"/>
<path d="M47.49 44.6216H46.3008V45.8108H47.49V44.6216Z" fill="black"/>
<path d="M14.197 45.8108H13.0078V47H14.197V45.8108Z" fill="black"/>
<path d="M15.3845 45.8108H14.1953V47H15.3845V45.8108Z" fill="black"/>
<path d="M16.572 45.8108H15.3828V47H16.572V45.8108Z" fill="black"/>
<path d="M20.1384 45.8108H18.9492V47H20.1384V45.8108Z" fill="black"/>
<path d="M22.5173 45.8108H21.3281V47H22.5173V45.8108Z" fill="black"/>
<path d="M23.7048 45.8108H22.5156V47H23.7048V45.8108Z" fill="black"/>
<path d="M28.4665 45.8108H27.2773V47H28.4665V45.8108Z" fill="black"/>
<path d="M30.8454 45.8109H29.6562V47H30.8454V45.8109Z" fill="black"/>
<path d="M32.0329 45.8108H30.8438V47H32.0329V45.8108Z" fill="black"/>
<path d="M33.2243 45.8108H32.0352V47H33.2243V45.8108Z" fill="black"/>
<path d="M37.9782 45.8108H36.7891V47H37.9782V45.8108Z" fill="black"/>
<path d="M39.1696 45.8108H37.9805V47H39.1696V45.8108Z" fill="black"/>
<path d="M40.3571 45.8108H39.168V47H40.3571V45.8108Z" fill="black"/>
<path d="M41.5486 45.8109H40.3594V47H41.5486V45.8109Z" fill="black"/>
<path d="M43.9236 45.8108H42.7344V47H43.9236V45.8108Z" fill="black"/>
<path d="M47.49 45.8108H46.3008V47H47.49V45.8108Z" fill="black"/>
<path d="M8.97445 3.00067H6.33417C5.04741 3.00067 3.95726 3.85083 3.60873 5.01283C3.57268 5.13303 3.54455 5.25656 3.52499 5.38284C3.50343 5.52219 3.49219 5.66487 3.49219 5.81013V8.51312C3.49219 10.063 4.76746 11.3234 6.33417 11.3234L7.65431 11.3237L8.97445 11.3233C10.5411 11.3233 11.8164 10.0629 11.8164 8.51303V5.81013C11.8164 4.26097 10.5412 3.00067 8.97445 3.00067ZM10.5678 8.51312C10.5678 9.37419 9.85308 10.0748 8.97412 10.0748L7.65431 10.075L6.3345 10.0747C5.45554 10.0747 4.74082 9.3741 4.74082 8.51312V5.81013C4.74082 5.54117 4.81058 5.28794 4.93336 5.06668C5.05157 4.85383 5.2188 4.67078 5.42017 4.53218C5.67905 4.35396 5.99429 4.24932 6.33409 4.24932H8.97445C9.85308 4.24932 10.5678 4.94948 10.5678 5.81013V8.51312Z" fill="black"/>
<path d="M44.6541 3.00061H42.0139C40.7271 3.00061 39.637 3.85077 39.2884 5.01276C39.2524 5.13297 39.2242 5.2565 39.2047 5.38278C39.1831 5.52213 39.1719 5.66481 39.1719 5.81007V8.51306C39.1719 10.063 40.4471 11.3233 42.0139 11.3233L43.334 11.3236L44.6541 11.3233C46.2208 11.3233 47.4961 10.0629 47.4961 8.51297V5.81007C47.4961 4.26091 46.2208 3.00061 44.6541 3.00061ZM46.2475 8.51306C46.2475 9.37412 45.5328 10.0747 44.6538 10.0747L43.334 10.0749L42.0142 10.0746C41.1352 10.0746 40.4205 9.37404 40.4205 8.51306V5.81007C40.4205 5.54111 40.4903 5.28788 40.6131 5.06662C40.7313 4.85377 40.8985 4.67072 41.0999 4.53212C41.3587 4.35389 41.674 4.24926 42.0138 4.24926H44.6541C45.5328 4.24926 46.2475 4.94942 46.2475 5.81007V8.51306Z" fill="black"/>
<path d="M8.97445 38.6763H6.33417C5.04741 38.6763 3.95726 39.5265 3.60873 40.6885C3.57268 40.8087 3.54455 40.9322 3.52499 41.0585C3.50343 41.1978 3.49219 41.3405 3.49219 41.4858V44.1888C3.49219 45.7387 4.76746 46.9991 6.33417 46.9991L7.65431 46.9993L8.97445 46.999C10.5411 46.999 11.8164 45.7386 11.8164 44.1887V41.4858C11.8164 39.9366 10.5412 38.6763 8.97445 38.6763ZM10.5678 44.1888C10.5678 45.0498 9.85308 45.7504 8.97412 45.7504L7.65431 45.7507L6.3345 45.7503C5.45554 45.7503 4.74082 45.0498 4.74082 44.1888V41.4858C4.74082 41.2168 4.81058 40.9636 4.93336 40.7423C5.05157 40.5295 5.2188 40.3464 5.42017 40.2078C5.67905 40.0296 5.99429 39.925 6.33409 39.925H8.97445C9.85308 39.925 10.5678 40.6251 10.5678 41.4858V44.1888Z" fill="black"/>
<path d="M9.43863 5.37817H5.87109V8.94574H9.43863V5.37817Z" fill="black"/>
<path d="M45.1144 5.37842H41.5469V8.94598H45.1144V5.37842Z" fill="black"/>
<path d="M9.43863 41.0542H5.87109V44.6218H9.43863V41.0542Z" fill="black"/>
</g>
<defs>
<clipPath id="clip0_6349_13603">
<rect width="50" height="50" fill="white" transform="translate(0.496094)"/>
</clipPath>
</defs>
</svg>
