<svg width="114" height="79" viewBox="0 0 114 79" fill="none" xmlns="http://www.w3.org/2000/svg">
<g clip-path="url(#clip0_2147_2312)">
<path d="M57 76.7099C64.55 76.7099 77.05 76.6199 91.39 68.3099C105.73 60.0099 110.4 49.6799 111.86 44.3499C112.42 42.3699 111.26 40.3099 109.28 39.7599C109.24 39.7599 109.21 39.7399 109.17 39.7299C105.73 38.8299 99.69 38.0299 91.95 39.8699" fill="#80D4C2"/>
<path d="M57 76.7099C64.55 76.7099 77.05 76.6199 91.39 68.3099C105.73 60.0099 110.4 49.6799 111.86 44.3499C112.42 42.3699 111.26 40.3099 109.28 39.7599C109.24 39.7599 109.21 39.7399 109.17 39.7299C105.73 38.8299 99.69 38.0299 91.95 39.8699" stroke="#005442" stroke-width="4" stroke-linecap="round" stroke-linejoin="round"/>
<path d="M22.05 39.8199C14.31 38.0299 8.28004 38.8299 4.83004 39.7299C2.83004 40.2299 1.62004 42.2499 2.11004 44.2499C2.11004 44.2899 2.13004 44.3199 2.14004 44.3599C3.60004 49.6899 8.27004 60.0699 22.61 68.3199C36.95 76.5799 49.45 76.7199 57 76.7199" fill="#80D4C2"/>
<path d="M22.05 39.8199C14.31 38.0299 8.28004 38.8299 4.83004 39.7299C2.83004 40.2299 1.62004 42.2499 2.11004 44.2499C2.11004 44.2899 2.13004 44.3199 2.14004 44.3599C3.60004 49.6899 8.27004 60.0699 22.61 68.3199C36.95 76.5799 49.45 76.7199 57 76.7199" stroke="#005442" stroke-width="4" stroke-linecap="round" stroke-linejoin="round"/>
<path d="M57 76.7101C62.66 75.4801 77.9 66.9001 87.05 51.0501C96.2 35.2001 93.94 22.6101 92.14 17.0901C91.57 15.2501 89.68 14.1601 87.8 14.5901C82.38 15.8001 77.32 18.2401 72.99 21.7101" fill="#FFEB81"/>
<path d="M57 76.7101C62.66 75.4801 77.9 66.9001 87.05 51.0501C96.2 35.2001 93.94 22.6101 92.14 17.0901C91.57 15.2501 89.68 14.1601 87.8 14.5901C82.38 15.8001 77.32 18.2401 72.99 21.7101" stroke="#806B02" stroke-width="4" stroke-linecap="round" stroke-linejoin="round"/>
<path d="M41.0101 21.7101C36.6801 18.2401 31.6101 15.8001 26.2001 14.5901C24.3201 14.1601 22.4301 15.2501 21.8601 17.0901C20.0701 22.6101 17.8001 35.2501 26.9501 51.0501C36.1001 66.8501 51.3401 75.4801 57.0001 76.7101" fill="#FFEB81"/>
<path d="M41.0101 21.7101C36.6801 18.2401 31.6101 15.8001 26.2001 14.5901C24.3201 14.1601 22.4301 15.2501 21.8601 17.0901C20.0701 22.6101 17.8001 35.2501 26.9501 51.0501C36.1001 66.8501 51.3401 75.4801 57.0001 76.7101" stroke="#806B02" stroke-width="4" stroke-linecap="round" stroke-linejoin="round"/>
<path d="M57 76.7101C57 76.7101 75.87 66.4301 75.87 38.9701C75.87 17.4601 64.27 6.52006 59.27 2.74006C57.92 1.75006 56.09 1.75006 54.74 2.74006C49.74 6.51006 38.14 17.4601 38.14 38.9701C38.14 66.4201 57.01 76.7101 57.01 76.7101H57Z" fill="#8CB1E8" stroke="#0C3269" stroke-width="4" stroke-linecap="round" stroke-linejoin="round"/>
</g>
<defs>
<clipPath id="clip0_2147_2312">
<rect width="114" height="78.71" fill="white"/>
</clipPath>
</defs>
</svg>
