<svg width="21" height="40" viewBox="0 0 21 40" fill="black" xmlns="http://www.w3.org/2000/svg">
<path d="M10.5 2.5C9.45571 2.5 8.45419 2.89509 7.71577 3.59835C6.97734 4.30161 6.5625 5.25544 6.5625 6.25C6.5625 7.24456 6.97734 8.19839 7.71577 8.90165C8.45419 9.60491 9.45571 10 10.5 10C11.5443 10 12.5458 9.60491 13.2842 8.90165C14.0227 8.19839 14.4375 7.24456 14.4375 6.25C14.4375 5.25544 14.0227 4.30161 13.2842 3.59835C12.5458 2.89509 11.5443 2.5 10.5 2.5ZM3.9375 6.25C3.9375 4.5924 4.62891 3.00269 5.85961 1.83058C7.09032 0.65848 8.75952 0 10.5 0C12.2405 0 13.9097 0.65848 15.1404 1.83058C16.3711 3.00269 17.0625 4.5924 17.0625 6.25C17.0625 7.9076 16.3711 9.49732 15.1404 10.6694C13.9097 11.8415 12.2405 12.5 10.5 12.5C8.75952 12.5 7.09032 11.8415 5.85961 10.6694C4.62891 9.49732 3.9375 7.9076 3.9375 6.25ZM3.28125 15C1.47 15 0 16.4 0 18.125V30C0 32.6522 1.10625 35.1957 3.07538 37.0711C5.04451 38.9464 7.71523 40 10.5 40C13.2848 40 15.9555 38.9464 17.9246 37.0711C19.8938 35.1957 21 32.6522 21 30V18.125C21 16.4 19.53 15 17.7187 15H3.28125ZM2.625 18.125C2.625 17.9592 2.69414 17.8003 2.81721 17.6831C2.94028 17.5658 3.1072 17.5 3.28125 17.5H17.7187C17.8928 17.5 18.0597 17.5658 18.1828 17.6831C18.3059 17.8003 18.375 17.9592 18.375 18.125V30C18.375 31.9891 17.5453 33.8968 16.0685 35.3033C14.5916 36.7098 12.5886 37.5 10.5 37.5C8.41142 37.5 6.40838 36.7098 4.93153 35.3033C3.45469 33.8968 2.625 31.9891 2.625 30V18.125Z"/>
</svg>