<svg width="104" height="100" viewBox="0 0 104 100" fill="none" xmlns="http://www.w3.org/2000/svg">
<g clip-path="url(#clip0_2147_2383)">
<path d="M62.12 91.0499C62.71 91.6199 63.32 92.1699 63.95 92.6899C66.49 94.8199 69.51 96.2199 72.75 96.8999C75.15 97.4099 77.63 97.5199 80.08 97.3399C85.33 96.9299 90.35 94.7599 94.24 91.1999C98.02 87.7299 100.64 83.0599 101.59 78.0099C101.86 76.5599 102 75.0799 102 73.5999C102 60.6199 91.56 49.7899 78.19 49.7899C71.49 49.7899 65.19 52.5399 60.51 57.5999L54.9 63.6499L48.47 70.5199C48.47 70.5199 39.86 80.37 36.11 83.4799C32.36 86.5899 29.67 87.8899 25.8 87.8899C17.7 87.8899 11.51 81.2599 11.51 73.5999C11.51 65.9399 17.68 59.3099 25.8 59.3099H26.36C27.31 59.3599 28.36 59.4899 29.3 59.7199L29.74 59.8299L25.4 64.16C25.18 64.38 24.98 64.5899 24.77 64.7899C24.07 65.4999 24.5 66.7099 25.5 66.8099L39.6 68.1699L43.52 68.5199C44.23 68.5799 44.84 67.9999 44.81 67.2899L44.06 47.8499C44.02 46.7899 42.72 46.2999 42 47.0799L41.15 47.9999L36.86 52.4699L36.04 52.0599C32.73 50.4899 29.26 49.7599 25.8 49.7599C12.18 49.7599 1.98999 60.7399 1.98999 73.5699C1.98999 86.3999 12.43 97.3799 25.8 97.3799C32.27 97.3799 38.69 94.5799 43.01 90.0199L54.78 77.5999L68 63.5699C70.71 60.6899 74.48 59.2799 78.18 59.2799C85.98 59.2799 92.47 65.5499 92.47 73.5699C92.47 81.5899 86.26 87.8999 78.18 87.8599C74.65 87.8399 71.97 87.4099 68.44 83.9199L66.81 82.2499L65.27 80.6199L63.48 78.6799C63.01 78.1699 62.21 78.1599 61.74 78.6699L56.85 83.8399C56.42 84.2999 56.42 85.0099 56.85 85.4699C58.58 87.3099 60.28 89.2499 62.12 91.0199V91.0499Z" fill="#80D4C2" stroke="#005442" stroke-width="4" stroke-linecap="round" stroke-linejoin="round"/>
<path d="M71.0201 25.86L52.7601 44.12C52.5201 44.36 52.2601 44.6 52.0001 44.82C51.7401 44.6 51.4801 44.36 51.2401 44.12L32.9801 25.86C32.7401 25.62 32.5001 25.36 32.2801 25.1C27.5501 19.62 27.7801 11.28 32.9801 6.07996C38.1801 0.879962 46.5201 0.649963 52.0001 5.37996C57.4801 0.649963 65.8201 0.879962 71.0201 6.07996C73.7401 8.79996 75.1001 12.38 75.1001 15.97C75.1001 19.23 73.9701 22.49 71.7201 25.1C71.5001 25.36 71.2601 25.62 71.0201 25.86Z" fill="#CD82A4" stroke="#4E0224" stroke-width="4" stroke-miterlimit="10"/>
</g>
<defs>
<clipPath id="clip0_2147_2383">
<rect width="104" height="99.43" fill="white"/>
</clipPath>
</defs>
</svg>
