<svg width="86" height="104" viewBox="0 0 86 104" fill="none" xmlns="http://www.w3.org/2000/svg">
<g clip-path="url(#clip0_2147_2336)">
<path d="M71.38 41C71.38 49.14 67.43 56.39 61.23 61.26C60.96 61.42 60.72 61.62 60.47 61.83C58.3 63.6 56.94 66.17 56.94 69.07V75.94H28.8V69.07C28.8 66.17 27.44 63.6 25.27 61.83C25.03 61.63 24.78 61.42 24.52 61.26C18.31 56.4 14.37 49.14 14.37 41C14.37 26.37 27.12 14.52 42.87 14.52C58.62 14.52 71.38 26.37 71.38 41Z" fill="#FFEB81" stroke="#806B02" stroke-width="4" stroke-linecap="round" stroke-linejoin="round"/>
<path d="M56.9501 88.95C56.9501 96.17 50.65 102 42.89 102C35.13 102 28.8 96.17 28.8 88.95C28.8 88.27 28.85 87.62 28.97 86.99H56.7701C56.8901 87.62 56.94 88.28 56.94 88.95H56.9501Z" fill="#CD82A4" stroke="#4E0224" stroke-width="4" stroke-linecap="round" stroke-linejoin="round"/>
<path d="M42.87 75.9299V54.3799" stroke="#806B02" stroke-width="4" stroke-linecap="round" stroke-linejoin="round"/>
<path d="M42.8699 54.38L37.2 48.54" stroke="#806B02" stroke-width="4" stroke-linecap="round" stroke-linejoin="round"/>
<path d="M42.87 54.3799L47.34 44.3899" stroke="#806B02" stroke-width="4" stroke-linecap="round" stroke-linejoin="round"/>
<path d="M42.87 2V8.03" stroke="#806B02" stroke-width="4" stroke-linecap="round" stroke-linejoin="round"/>
<path d="M18.83 8.80005L22.56 13.74" stroke="#806B02" stroke-width="4" stroke-linecap="round" stroke-linejoin="round"/>
<path d="M3.33997 27.1799L9.43997 29.2499" stroke="#806B02" stroke-width="4" stroke-linecap="round" stroke-linejoin="round"/>
<path d="M2 50.4899L8.27 48.9299" stroke="#806B02" stroke-width="4" stroke-linecap="round" stroke-linejoin="round"/>
<path d="M15.3 70.2999L19.47 65.6799" stroke="#806B02" stroke-width="4" stroke-linecap="round" stroke-linejoin="round"/>
<path d="M69.8599 70.25L65.5699 65.73" stroke="#806B02" stroke-width="4" stroke-linecap="round" stroke-linejoin="round"/>
<path d="M80.17 57.56L74.29 55" stroke="#806B02" stroke-width="4" stroke-linecap="round" stroke-linejoin="round"/>
<path d="M83.7 34.4399L77.3 35.4899" stroke="#806B02" stroke-width="4" stroke-linecap="round" stroke-linejoin="round"/>
<path d="M66.97 9.47998L63.17 14.36" stroke="#806B02" stroke-width="4" stroke-linecap="round" stroke-linejoin="round"/>
<path d="M56.9601 75.9299H28.8101V86.9899H56.9601V75.9299Z" fill="#8CB1E8" stroke="#0C3269" stroke-width="4" stroke-miterlimit="10"/>
</g>
<defs>
<clipPath id="clip0_2147_2336">
<rect width="85.7" height="104" fill="white"/>
</clipPath>
</defs>
</svg>
