<svg width="37" height="37" viewBox="0 0 37 37" fill="none" xmlns="http://www.w3.org/2000/svg">
<circle cx="18.5" cy="18.5" r="18.5" fill="#797F7A"/>
<path d="M10.1533 27.2374H13.8648V14.5382H10.1533V27.2374Z" fill="white"/>
<path d="M10.0002 10.9549C10.0002 12.2568 10.6706 12.909 12.0091 12.909C13.3499 12.909 14.0179 12.2593 14.0179 10.9573C14.0179 9.65543 13.3475 9.0008 12.0091 9.0008C11.4803 8.98548 10.967 9.18993 10.5802 9.56993C10.3942 9.74293 10.246 9.95632 10.1459 10.1954C10.0458 10.4345 9.99609 10.6936 10.0002 10.9549Z" fill="white"/>
<path d="M23.8418 27.2374H27.6298H27.6321V19.7483C27.6321 17.9555 27.2332 16.5851 26.4305 15.635C25.6326 14.6848 24.591 14.2109 23.299 14.2109C21.5987 14.2109 20.3623 14.8875 19.5109 16.2456L19.279 14.5382H16.0314C16.0801 15.2979 16.108 16.6535 16.108 18.6076V27.2374H19.896V19.9096C19.896 19.4235 19.9494 19.0962 20.0491 18.9325C20.3623 17.9017 21.0048 17.3863 21.9837 17.3863C23.2201 17.3863 23.8418 18.3096 23.8418 20.1538V27.2374Z" fill="white"/>
</svg>
