<svg width="197" height="197" viewBox="0 0 197 197" fill="none" xmlns="http://www.w3.org/2000/svg">
<path d="M98.5 197C44.1871 197 0 152.813 0 98.5C0 44.1871 44.1871 0 98.5 0C152.813 0 197 44.1871 197 98.5C197 152.813 152.813 197 98.5 197ZM98.5 3.58146C46.161 3.58146 3.58146 46.161 3.58146 98.5C3.58146 150.839 46.161 193.419 98.5 193.419C150.839 193.419 193.419 150.839 193.419 98.5C193.419 46.161 150.839 3.58146 98.5 3.58146ZM98.5 10.2676C49.7701 10.2676 10.2676 49.7701 10.2676 98.5C10.2676 147.23 49.7701 186.732 98.5 186.732C147.23 186.732 186.732 147.23 186.732 98.5C186.732 49.7701 147.23 10.2676 98.5 10.2676ZM131.367 128.708H116.175V86.5854C116.175 76.8221 108.259 68.9106 98.4961 68.9106C88.7327 68.9106 80.8212 76.8221 80.8212 86.5854V128.712H65.6286V86.5854C65.6286 68.4299 80.3445 53.718 98.4961 53.718C116.648 53.718 131.364 68.4339 131.364 86.5854V128.712L131.367 128.708Z" fill="#00A884"/>
<path d="M98.5 197C44.1871 197 0 152.813 0 98.5C0 44.1871 44.1871 0 98.5 0C152.813 0 197 44.1871 197 98.5C197 152.813 152.813 197 98.5 197ZM98.5 3.58146C46.161 3.58146 3.58146 46.161 3.58146 98.5C3.58146 150.839 46.161 193.419 98.5 193.419C150.839 193.419 193.419 150.839 193.419 98.5C193.419 46.161 150.839 3.58146 98.5 3.58146ZM98.5 10.2676C49.7701 10.2676 10.2676 49.7701 10.2676 98.5C10.2676 147.23 49.7701 186.732 98.5 186.732C147.23 186.732 186.732 147.23 186.732 98.5C186.732 49.7701 147.23 10.2676 98.5 10.2676ZM131.367 128.708H116.175V86.5854C116.175 76.8221 108.259 68.9106 98.4961 68.9106C88.7327 68.9106 80.8212 76.8221 80.8212 86.5854V128.712H65.6286V86.5854C65.6286 68.4299 80.3445 53.718 98.4961 53.718C116.648 53.718 131.364 68.4339 131.364 86.5854V128.712L131.367 128.708Z" fill="#00A884"/>
</svg>
