<svg width="20" height="20" viewBox="0 0 20 20" fill="none" xmlns="http://www.w3.org/2000/svg">
<path d="M10 20C4.486 20 0 15.514 0 10C0 4.486 4.486 0 10 0C15.514 0 20 4.486 20 10C20 15.514 15.514 20 10 20ZM10 0.3636C4.6864 0.3636 0.3636 4.6864 0.3636 10C0.3636 15.3136 4.6864 19.6364 10 19.6364C15.3136 19.6364 19.6364 15.3136 19.6364 10C19.6364 4.6864 15.3136 0.3636 10 0.3636ZM10 1.0424C5.0528 1.0424 1.0424 5.0528 1.0424 10C1.0424 14.9472 5.0528 18.9576 10 18.9576C14.9472 18.9576 18.9576 14.9472 18.9576 10C18.9576 5.0528 14.9472 1.0424 10 1.0424ZM13.3368 13.0668H11.7944V8.7904C11.7944 7.7992 10.9908 6.996 9.9996 6.996C9.0084 6.996 8.2052 7.7992 8.2052 8.7904V13.0672H6.6628V8.7904C6.6628 6.9472 8.1568 5.4536 9.9996 5.4536C11.8424 5.4536 13.3364 6.9476 13.3364 8.7904L13.3368 13.0668Z" fill="white"/>
<path d="M10 20C4.486 20 0 15.514 0 10C0 4.486 4.486 0 10 0C15.514 0 20 4.486 20 10C20 15.514 15.514 20 10 20ZM10 0.3636C4.6864 0.3636 0.3636 4.6864 0.3636 10C0.3636 15.3136 4.6864 19.6364 10 19.6364C15.3136 19.6364 19.6364 15.3136 19.6364 10C19.6364 4.6864 15.3136 0.3636 10 0.3636ZM10 1.0424C5.0528 1.0424 1.0424 5.0528 1.0424 10C1.0424 14.9472 5.0528 18.9576 10 18.9576C14.9472 18.9576 18.9576 14.9472 18.9576 10C18.9576 5.0528 14.9472 1.0424 10 1.0424ZM13.3368 13.0668H11.7944V8.7904C11.7944 7.7992 10.9908 6.996 9.9996 6.996C9.0084 6.996 8.2052 7.7992 8.2052 8.7904V13.0672H6.6628V8.7904C6.6628 6.9472 8.1568 5.4536 9.9996 5.4536C11.8424 5.4536 13.3364 6.9476 13.3364 8.7904L13.3368 13.0668Z" fill="white"/>
</svg>
