<?xml version="1.0" encoding="utf-8"?>
<!-- Generator: Adobe Illustrator 28.2.0, SVG Export Plug-In . SVG Version: 6.00 Build 0)  -->
<svg version="1.1" id="Layer_1" xmlns="http://www.w3.org/2000/svg" xmlns:xlink="http://www.w3.org/1999/xlink" x="0px" y="0px"
	 viewBox="0 0 1124 300" style="enable-background:new 0 0 1124 300;" xml:space="preserve">
<style type="text/css">
	.st0{fill:#00A884;}
	.st1{fill:#FFFFFF;}
</style>
<g>
	<path class="st0" d="M534.8,198.8c-10.2,0-19.6-2.6-28-7.9c-8.4-5.3-15.1-12.3-20.1-21.2c-5-8.9-7.5-18.7-7.5-29.4
		c0-8.2,1.4-15.8,4.3-22.9c2.9-7.1,6.9-13.3,12-18.7c5.1-5.4,11-9.6,17.7-12.6s13.9-4.6,21.6-4.6c8.5,0,16.4,1.8,23.5,5.3
		s13.2,8.4,18.2,14.6c5,6.2,8.7,13.3,11.1,21.4s3.1,16.6,2.1,25.6H504c1,5.1,2.8,9.7,5.6,13.8c2.8,4.1,6.3,7.4,10.7,9.7
		c4.3,2.4,9.2,3.6,14.5,3.7c5.6,0,10.8-1.4,15.4-4.2c4.6-2.8,8.4-6.7,11.4-11.7l23.5,5.4c-4.4,9.9-11.2,17.9-20.1,24.2
		C556,195.7,545.9,198.8,534.8,198.8z M503.2,130.8h63.2c-0.7-5.3-2.6-10.2-5.6-14.5c-3-4.3-6.7-7.8-11.2-10.3
		c-4.5-2.6-9.4-3.8-14.7-3.8c-5.3,0-10.1,1.3-14.6,3.8c-4.5,2.5-8.2,6-11.1,10.3C506.1,120.5,504.2,125.4,503.2,130.8z"/>
	<path class="st0" d="M665.8,198.8c-10.2,0-19.6-2.6-28-7.9c-8.4-5.3-15.1-12.3-20.1-21.2c-5-8.9-7.5-18.7-7.5-29.4
		c0-8.2,1.4-15.8,4.3-22.9c2.9-7.1,6.9-13.3,12-18.7c5.1-5.4,11-9.6,17.7-12.6s13.9-4.6,21.6-4.6c8.5,0,16.4,1.8,23.5,5.3
		s13.2,8.4,18.2,14.6c5,6.2,8.7,13.3,11.1,21.4s3.1,16.6,2.1,25.6H635c1,5.1,2.8,9.7,5.6,13.8c2.8,4.1,6.3,7.4,10.7,9.7
		c4.3,2.4,9.2,3.6,14.5,3.7c5.6,0,10.8-1.4,15.4-4.2c4.6-2.8,8.4-6.7,11.4-11.7l23.5,5.4c-4.4,9.9-11.2,17.9-20.1,24.2
		C687,195.7,676.9,198.8,665.8,198.8z M634.2,130.8h63.2c-0.7-5.3-2.6-10.2-5.6-14.5c-3-4.3-6.7-7.8-11.2-10.3
		c-4.5-2.6-9.4-3.8-14.7-3.8c-5.3,0-10.1,1.3-14.6,3.8c-4.5,2.5-8.2,6-11.1,10.3C637.1,120.5,635.2,125.4,634.2,130.8z"/>
	<path class="st0" d="M834.5,29.1h23.1v166.8h-23.1v-16.3c-3.6,5.8-8.4,10.4-14.2,14c-5.9,3.5-12.7,5.3-20.6,5.3
		c-8.1,0-15.6-1.5-22.7-4.6c-7-3-13.3-7.2-18.6-12.6c-5.4-5.4-9.6-11.6-12.6-18.6c-3-7-4.6-14.6-4.6-22.7c0-8.1,1.5-15.7,4.6-22.7
		c3-7.1,7.2-13.3,12.6-18.7c5.4-5.4,11.6-9.6,18.6-12.6c7-3,14.6-4.6,22.7-4.6c7.9,0,14.7,1.8,20.6,5.3c5.9,3.5,10.6,8.1,14.2,13.8
		V29.1z M799.9,176.5c6.5,0,12.2-1.6,17.1-4.8c4.9-3.2,8.7-7.6,11.4-13.1c2.7-5.5,4.1-11.6,4.1-18.2c0-6.7-1.4-12.9-4.1-18.4
		s-6.5-9.8-11.4-13.1c-4.9-3.2-10.5-4.8-17.1-4.8c-6.4,0-12.3,1.6-17.6,4.9c-5.3,3.3-9.5,7.6-12.7,13.1c-3.2,5.5-4.7,11.6-4.7,18.2
		c0,6.7,1.6,12.8,4.8,18.3c3.2,5.5,7.5,9.8,12.8,13C787.8,174.9,793.6,176.5,799.9,176.5z"/>
	<path class="st0" d="M919.6,59.5v25.2H951v23.1h-31.4v88.1h-23.1v-88.1h-13.2V84.7h13.2V59.5c0-6.1,1.5-11.6,4.5-16.6
		c3-5,7-9,12-12c5-3,10.6-4.5,16.7-4.5c4.4,0,8.8,0.9,13,2.7c4.2,1.8,8,4.5,11.3,8.2l-16.6,16.3c-0.8-1.3-1.9-2.4-3.4-3.1
		c-1.4-0.7-2.9-1.1-4.4-1.1c-2.7,0-5.1,1-7.1,2.9C920.6,54.4,919.6,56.7,919.6,59.5z"/>
	<path class="st0" d="M1100.9,195.9V29.1h23.1v166.8H1100.9z"/>
	<path class="st0" d="M406.9,81.7c-27.6,0-50.1,22.4-50.1,50.1h0v64.1H380v-64.1c0-14.9,12.1-26.9,26.9-26.9
		c14.9,0,26.9,12.1,26.9,26.9c0,0,0,0,0,0v64.1h23.1v-64.1C456.9,104.2,434.5,81.7,406.9,81.7z"/>
	<path class="st0" d="M1021.5,198.8c-27.6,0-50.1-22.4-50.1-50.1h0V84.6h23.1v64.1c0,14.9,12.1,26.9,26.9,26.9
		c14.9,0,26.9-12.1,26.9-26.9c0,0,0,0,0,0V84.6h23.1v64.1C1071.5,176.4,1049.1,198.8,1021.5,198.8z"/>
	<circle class="st0" cx="150" cy="150" r="134.4"/>
	<path class="st0" d="M150,300C67.3,300,0,232.7,0,150S67.3,0,150,0s150,67.3,150,150S232.7,300,150,300z M150,5.5
		C70.3,5.5,5.5,70.3,5.5,150S70.3,294.5,150,294.5S294.5,229.7,294.5,150S229.7,5.5,150,5.5z"/>
	<path class="st1" d="M150,81.8c-27.6,0-50.1,22.4-50.1,50.1h0V196h23.1v-64.1c0-14.9,12.1-26.9,26.9-26.9
		c14.9,0,26.9,12.1,26.9,26.9c0,0,0,0,0,0V196h23.1v-64.1C200.1,104.2,177.6,81.8,150,81.8z"/>
</g>
</svg>
