<svg width="50" height="50" viewBox="0 0 50 50" fill="none" xmlns="http://www.w3.org/2000/svg">
<g clip-path="url(#clip0_678_2829)">
<rect width="50" height="50" rx="5" fill="#DCFFF7"/>
<path d="M20.5998 3H18.8398V4.76H20.5998V3Z" fill="black"/>
<path d="M22.3616 3H20.6016V4.76H22.3616V3Z" fill="black"/>
<path d="M24.1233 3H22.3633V4.76H24.1233V3Z" fill="black"/>
<path d="M29.3967 3H27.6367V4.76H29.3967V3Z" fill="black"/>
<path d="M18.8381 4.76025H17.0781V6.52025H18.8381V4.76025Z" fill="black"/>
<path d="M22.3616 4.76025H20.6016V6.52025H22.3616V4.76025Z" fill="black"/>
<path d="M24.1233 4.76025H22.3633V6.52025H24.1233V4.76025Z" fill="black"/>
<path d="M27.6389 4.76025H25.8789V6.52025H27.6389V4.76025Z" fill="black"/>
<path d="M29.3967 4.76025H27.6367V6.52025H29.3967V4.76025Z" fill="black"/>
<path d="M32.9241 4.76025H31.1641V6.52025H32.9241V4.76025Z" fill="black"/>
<path d="M18.8381 6.51978H17.0781V8.27978H18.8381V6.51978Z" fill="black"/>
<path d="M24.1233 6.51978H22.3633V8.27978H24.1233V6.51978Z" fill="black"/>
<path d="M25.8811 6.52002H24.1211V8.28002H25.8811V6.52002Z" fill="black"/>
<path d="M32.9241 6.51978H31.1641V8.27978H32.9241V6.51978Z" fill="black"/>
<path d="M18.8381 8.28003H17.0781V10.04H18.8381V8.28003Z" fill="black"/>
<path d="M20.5998 8.28003H18.8398V10.04H20.5998V8.28003Z" fill="black"/>
<path d="M24.1233 8.28003H22.3633V10.04H24.1233V8.28003Z" fill="black"/>
<path d="M25.8811 8.28003H24.1211V10.04H25.8811V8.28003Z" fill="black"/>
<path d="M27.6389 8.28003H25.8789V10.04H27.6389V8.28003Z" fill="black"/>
<path d="M31.1584 8.28003H29.3984V10.04H31.1584V8.28003Z" fill="black"/>
<path d="M32.9241 8.28003H31.1641V10.04H32.9241V8.28003Z" fill="black"/>
<path d="M20.5998 10.04H18.8398V11.8H20.5998V10.04Z" fill="black"/>
<path d="M22.3616 10.04H20.6016V11.8H22.3616V10.04Z" fill="black"/>
<path d="M25.8811 10.0398H24.1211V11.7998H25.8811V10.0398Z" fill="black"/>
<path d="M20.5998 11.8H18.8398V13.56H20.5998V11.8Z" fill="black"/>
<path d="M29.3967 11.8H27.6367V13.56H29.3967V11.8Z" fill="black"/>
<path d="M32.9241 11.8H31.1641V13.56H32.9241V11.8Z" fill="black"/>
<path d="M18.8381 13.5603H17.0781V15.3203H18.8381V13.5603Z" fill="black"/>
<path d="M22.3616 13.5603H20.6016V15.3203H22.3616V13.5603Z" fill="black"/>
<path d="M25.8811 13.5601H24.1211V15.3201H25.8811V13.5601Z" fill="black"/>
<path d="M29.3967 13.5603H27.6367V15.3203H29.3967V13.5603Z" fill="black"/>
<path d="M32.9241 13.5603H31.1641V15.3203H32.9241V13.5603Z" fill="black"/>
<path d="M18.8381 15.3198H17.0781V17.0798H18.8381V15.3198Z" fill="black"/>
<path d="M20.5998 15.3198H18.8398V17.0798H20.5998V15.3198Z" fill="black"/>
<path d="M22.3616 15.3198H20.6016V17.0798H22.3616V15.3198Z" fill="black"/>
<path d="M25.8811 15.3201H24.1211V17.0801H25.8811V15.3201Z" fill="black"/>
<path d="M29.3967 15.3198H27.6367V17.0798H29.3967V15.3198Z" fill="black"/>
<path d="M32.9241 15.3198H31.1641V17.0798H32.9241V15.3198Z" fill="black"/>
<path d="M4.76 17.0801H3V18.8401H4.76V17.0801Z" fill="black"/>
<path d="M15.3186 17.0801H13.5586V18.8401H15.3186V17.0801Z" fill="black"/>
<path d="M18.8381 17.0801H17.0781V18.8401H18.8381V17.0801Z" fill="black"/>
<path d="M20.5998 17.0801H18.8398V18.8401H20.5998V17.0801Z" fill="black"/>
<path d="M22.3616 17.0801H20.6016V18.8401H22.3616V17.0801Z" fill="black"/>
<path d="M27.6389 17.0801H25.8789V18.8401H27.6389V17.0801Z" fill="black"/>
<path d="M29.3967 17.0801H27.6367V18.8401H29.3967V17.0801Z" fill="black"/>
<path d="M31.1584 17.0801H29.3984V18.8401H31.1584V17.0801Z" fill="black"/>
<path d="M34.6819 17.0801H32.9219V18.8401H34.6819V17.0801Z" fill="black"/>
<path d="M36.4397 17.0801H34.6797V18.8401H36.4397V17.0801Z" fill="black"/>
<path d="M41.717 17.0801H39.957V18.8401H41.717V17.0801Z" fill="black"/>
<path d="M43.4827 17.0801H41.7227V18.8401H43.4827V17.0801Z" fill="black"/>
<path d="M45.2444 17.0801H43.4844V18.8401H45.2444V17.0801Z" fill="black"/>
<path d="M8.27562 18.8401H6.51562V20.6001H8.27562V18.8401Z" fill="black"/>
<path d="M10.0412 18.8401H8.28125V20.6001H10.0412V18.8401Z" fill="black"/>
<path d="M11.803 18.8401H10.043V20.6001H11.803V18.8401Z" fill="black"/>
<path d="M13.5647 18.8401H11.8047V20.6001H13.5647V18.8401Z" fill="black"/>
<path d="M18.8381 18.8401H17.0781V20.6001H18.8381V18.8401Z" fill="black"/>
<path d="M22.3616 18.8401H20.6016V20.6001H22.3616V18.8401Z" fill="black"/>
<path d="M29.3967 18.8401H27.6367V20.6001H29.3967V18.8401Z" fill="black"/>
<path d="M31.1584 18.8401H29.3984V20.6001H31.1584V18.8401Z" fill="black"/>
<path d="M38.2014 18.8401H36.4414V20.6001H38.2014V18.8401Z" fill="black"/>
<path d="M39.9553 18.8401H38.1953V20.6001H39.9553V18.8401Z" fill="black"/>
<path d="M41.717 18.8401H39.957V20.6001H41.717V18.8401Z" fill="black"/>
<path d="M43.4827 18.8401H41.7227V20.6001H43.4827V18.8401Z" fill="black"/>
<path d="M45.2444 18.8401H43.4844V20.6001H45.2444V18.8401Z" fill="black"/>
<path d="M4.76 20.6001H3V22.3601H4.76V20.6001Z" fill="black"/>
<path d="M10.0412 20.5999H8.28125V22.3599H10.0412V20.5999Z" fill="black"/>
<path d="M13.5647 20.5999H11.8047V22.3599H13.5647V20.5999Z" fill="black"/>
<path d="M15.3186 20.6001H13.5586V22.3601H15.3186V20.6001Z" fill="black"/>
<path d="M18.8381 20.5999H17.0781V22.3599H18.8381V20.5999Z" fill="black"/>
<path d="M20.5998 20.5999H18.8398V22.3599H20.5998V20.5999Z" fill="black"/>
<path d="M24.1233 20.5999H22.3633V22.3599H24.1233V20.5999Z" fill="black"/>
<path d="M25.8811 20.6001H24.1211V22.3601H25.8811V20.6001Z" fill="black"/>
<path d="M29.3967 20.5999H27.6367V22.3599H29.3967V20.5999Z" fill="black"/>
<path d="M31.1584 20.5999H29.3984V22.3599H31.1584V20.5999Z" fill="black"/>
<path d="M34.6819 20.5999H32.9219V22.3599H34.6819V20.5999Z" fill="black"/>
<path d="M41.717 20.5999H39.957V22.3599H41.717V20.5999Z" fill="black"/>
<path d="M45.2444 20.5999H43.4844V22.3599H45.2444V20.5999Z" fill="black"/>
<path d="M46.9983 20.6001H45.2383V22.3601H46.9983V20.6001Z" fill="black"/>
<path d="M4.76 22.3599H3V24.1199H4.76V22.3599Z" fill="black"/>
<path d="M6.52172 22.3599H4.76172V24.1199H6.52172V22.3599Z" fill="black"/>
<path d="M10.0412 22.3599H8.28125V24.1199H10.0412V22.3599Z" fill="black"/>
<path d="M11.803 22.3599H10.043V24.1199H11.803V22.3599Z" fill="black"/>
<path d="M13.5647 22.3599H11.8047V24.1199H13.5647V22.3599Z" fill="black"/>
<path d="M18.8381 22.3599H17.0781V24.1199H18.8381V22.3599Z" fill="black"/>
<path d="M22.3616 22.3599H20.6016V24.1199H22.3616V22.3599Z" fill="black"/>
<path d="M25.8811 22.3599H24.1211V24.1199H25.8811V22.3599Z" fill="black"/>
<path d="M29.3967 22.3599H27.6367V24.1199H29.3967V22.3599Z" fill="black"/>
<path d="M31.1584 22.3599H29.3984V24.1199H31.1584V22.3599Z" fill="black"/>
<path d="M34.6819 22.3599H32.9219V24.1199H34.6819V22.3599Z" fill="black"/>
<path d="M38.2014 22.3599H36.4414V24.1199H38.2014V22.3599Z" fill="black"/>
<path d="M41.717 22.3599H39.957V24.1199H41.717V22.3599Z" fill="black"/>
<path d="M46.9983 22.3599H45.2383V24.1199H46.9983V22.3599Z" fill="black"/>
<path d="M4.76 24.1199H3V25.8799H4.76V24.1199Z" fill="black"/>
<path d="M15.3186 24.1199H13.5586V25.8799H15.3186V24.1199Z" fill="black"/>
<path d="M17.0803 24.1201H15.3203V25.8801H17.0803V24.1201Z" fill="black"/>
<path d="M18.8381 24.1201H17.0781V25.8801H18.8381V24.1201Z" fill="black"/>
<path d="M22.3616 24.1201H20.6016V25.8801H22.3616V24.1201Z" fill="black"/>
<path d="M24.1233 24.1201H22.3633V25.8801H24.1233V24.1201Z" fill="black"/>
<path d="M31.1584 24.1201H29.3984V25.8801H31.1584V24.1201Z" fill="black"/>
<path d="M36.4397 24.1199H34.6797V25.8799H36.4397V24.1199Z" fill="black"/>
<path d="M46.9983 24.1199H45.2383V25.8799H46.9983V24.1199Z" fill="black"/>
<path d="M4.76 25.8801H3V27.6401H4.76V25.8801Z" fill="black"/>
<path d="M6.52172 25.8801H4.76172V27.6401H6.52172V25.8801Z" fill="black"/>
<path d="M8.27562 25.8801H6.51562V27.6401H8.27562V25.8801Z" fill="black"/>
<path d="M10.0412 25.8801H8.28125V27.6401H10.0412V25.8801Z" fill="black"/>
<path d="M13.5647 25.8801H11.8047V27.6401H13.5647V25.8801Z" fill="black"/>
<path d="M17.0803 25.8801H15.3203V27.6401H17.0803V25.8801Z" fill="black"/>
<path d="M18.8381 25.8801H17.0781V27.6401H18.8381V25.8801Z" fill="black"/>
<path d="M20.5998 25.8801H18.8398V27.6401H20.5998V25.8801Z" fill="black"/>
<path d="M25.8811 25.8801H24.1211V27.6401H25.8811V25.8801Z" fill="black"/>
<path d="M31.1584 25.8801H29.3984V27.6401H31.1584V25.8801Z" fill="black"/>
<path d="M32.9241 25.8801H31.1641V27.6401H32.9241V25.8801Z" fill="black"/>
<path d="M34.6819 25.8801H32.9219V27.6401H34.6819V25.8801Z" fill="black"/>
<path d="M38.2014 25.8801H36.4414V27.6401H38.2014V25.8801Z" fill="black"/>
<path d="M45.2444 25.8801H43.4844V27.6401H45.2444V25.8801Z" fill="black"/>
<path d="M4.76 27.6399H3V29.3999H4.76V27.6399Z" fill="black"/>
<path d="M8.27562 27.6401H6.51562V29.4001H8.27562V27.6401Z" fill="black"/>
<path d="M13.5647 27.6401H11.8047V29.4001H13.5647V27.6401Z" fill="black"/>
<path d="M15.3186 27.6399H13.5586V29.3999H15.3186V27.6399Z" fill="black"/>
<path d="M17.0803 27.6401H15.3203V29.4001H17.0803V27.6401Z" fill="black"/>
<path d="M18.8381 27.6401H17.0781V29.4001H18.8381V27.6401Z" fill="black"/>
<path d="M20.5998 27.6401H18.8398V29.4001H20.5998V27.6401Z" fill="black"/>
<path d="M22.3616 27.6401H20.6016V29.4001H22.3616V27.6401Z" fill="black"/>
<path d="M29.3967 27.6401H27.6367V29.4001H29.3967V27.6401Z" fill="black"/>
<path d="M31.1584 27.6401H29.3984V29.4001H31.1584V27.6401Z" fill="black"/>
<path d="M36.4397 27.6399H34.6797V29.3999H36.4397V27.6399Z" fill="black"/>
<path d="M38.2014 27.6401H36.4414V29.4001H38.2014V27.6401Z" fill="black"/>
<path d="M39.9553 27.6401H38.1953V29.4001H39.9553V27.6401Z" fill="black"/>
<path d="M41.717 27.6401H39.957V29.4001H41.717V27.6401Z" fill="black"/>
<path d="M45.2444 27.6401H43.4844V29.4001H45.2444V27.6401Z" fill="black"/>
<path d="M46.9983 27.6399H45.2383V29.3999H46.9983V27.6399Z" fill="black"/>
<path d="M4.76 29.4001H3V31.1601H4.76V29.4001Z" fill="black"/>
<path d="M8.27562 29.3999H6.51562V31.1599H8.27562V29.3999Z" fill="black"/>
<path d="M10.0412 29.3999H8.28125V31.1599H10.0412V29.3999Z" fill="black"/>
<path d="M11.803 29.3999H10.043V31.1599H11.803V29.3999Z" fill="black"/>
<path d="M13.5647 29.3999H11.8047V31.1599H13.5647V29.3999Z" fill="black"/>
<path d="M18.8381 29.3999H17.0781V31.1599H18.8381V29.3999Z" fill="black"/>
<path d="M20.5998 29.3999H18.8398V31.1599H20.5998V29.3999Z" fill="black"/>
<path d="M22.3616 29.3999H20.6016V31.1599H22.3616V29.3999Z" fill="black"/>
<path d="M25.8811 29.4001H24.1211V31.1601H25.8811V29.4001Z" fill="black"/>
<path d="M29.3967 29.3999H27.6367V31.1599H29.3967V29.3999Z" fill="black"/>
<path d="M31.1584 29.3999H29.3984V31.1599H31.1584V29.3999Z" fill="black"/>
<path d="M34.6819 29.3999H32.9219V31.1599H34.6819V29.3999Z" fill="black"/>
<path d="M38.2014 29.3999H36.4414V31.1599H38.2014V29.3999Z" fill="black"/>
<path d="M41.717 29.3999H39.957V31.1599H41.717V29.3999Z" fill="black"/>
<path d="M43.4827 29.3999H41.7227V31.1599H43.4827V29.3999Z" fill="black"/>
<path d="M46.9983 29.4001H45.2383V31.1601H46.9983V29.4001Z" fill="black"/>
<path d="M4.76 31.1599H3V32.9199H4.76V31.1599Z" fill="black"/>
<path d="M11.803 31.1599H10.043V32.9199H11.803V31.1599Z" fill="black"/>
<path d="M13.5647 31.1599H11.8047V32.9199H13.5647V31.1599Z" fill="black"/>
<path d="M15.3186 31.1599H13.5586V32.9199H15.3186V31.1599Z" fill="black"/>
<path d="M17.0803 31.1599H15.3203V32.9199H17.0803V31.1599Z" fill="black"/>
<path d="M18.8381 31.1599H17.0781V32.9199H18.8381V31.1599Z" fill="black"/>
<path d="M25.8811 31.1599H24.1211V32.9199H25.8811V31.1599Z" fill="black"/>
<path d="M27.6389 31.1599H25.8789V32.9199H27.6389V31.1599Z" fill="black"/>
<path d="M29.3967 31.1599H27.6367V32.9199H29.3967V31.1599Z" fill="black"/>
<path d="M32.9241 31.1599H31.1641V32.9199H32.9241V31.1599Z" fill="black"/>
<path d="M34.6819 31.1599H32.9219V32.9199H34.6819V31.1599Z" fill="black"/>
<path d="M36.4397 31.1599H34.6797V32.9199H36.4397V31.1599Z" fill="black"/>
<path d="M38.2014 31.1599H36.4414V32.9199H38.2014V31.1599Z" fill="black"/>
<path d="M39.9553 31.1599H38.1953V32.9199H39.9553V31.1599Z" fill="black"/>
<path d="M43.4827 31.1599H41.7227V32.9199H43.4827V31.1599Z" fill="black"/>
<path d="M18.8381 32.9202H17.0781V34.6802H18.8381V32.9202Z" fill="black"/>
<path d="M20.5998 32.9202H18.8398V34.6802H20.5998V32.9202Z" fill="black"/>
<path d="M32.9241 32.9202H31.1641V34.6802H32.9241V32.9202Z" fill="black"/>
<path d="M39.9553 32.9202H38.1953V34.6802H39.9553V32.9202Z" fill="black"/>
<path d="M22.3616 34.6799H20.6016V36.4399H22.3616V34.6799Z" fill="black"/>
<path d="M25.8811 34.6802H24.1211V36.4402H25.8811V34.6802Z" fill="black"/>
<path d="M32.9241 34.6799H31.1641V36.4399H32.9241V34.6799Z" fill="black"/>
<path d="M36.4397 34.6802H34.6797V36.4402H36.4397V34.6802Z" fill="black"/>
<path d="M39.9553 34.6799H38.1953V36.4399H39.9553V34.6799Z" fill="black"/>
<path d="M46.9983 34.6802H45.2383V36.4402H46.9983V34.6802Z" fill="black"/>
<path d="M22.3616 36.4399H20.6016V38.1999H22.3616V36.4399Z" fill="black"/>
<path d="M24.1233 36.4399H22.3633V38.1999H24.1233V36.4399Z" fill="black"/>
<path d="M32.9241 36.4399H31.1641V38.1999H32.9241V36.4399Z" fill="black"/>
<path d="M39.9553 36.4399H38.1953V38.1999H39.9553V36.4399Z" fill="black"/>
<path d="M46.9983 36.4399H45.2383V38.1999H46.9983V36.4399Z" fill="black"/>
<path d="M20.5998 38.2H18.8398V39.96H20.5998V38.2Z" fill="black"/>
<path d="M24.1233 38.2H22.3633V39.96H24.1233V38.2Z" fill="black"/>
<path d="M25.8811 38.2002H24.1211V39.9602H25.8811V38.2002Z" fill="black"/>
<path d="M27.6389 38.2H25.8789V39.96H27.6389V38.2Z" fill="black"/>
<path d="M29.3967 38.2H27.6367V39.96H29.3967V38.2Z" fill="black"/>
<path d="M31.1584 38.2H29.3984V39.96H31.1584V38.2Z" fill="black"/>
<path d="M32.9241 38.2H31.1641V39.96H32.9241V38.2Z" fill="black"/>
<path d="M34.6819 38.2H32.9219V39.96H34.6819V38.2Z" fill="black"/>
<path d="M36.4397 38.2002H34.6797V39.9602H36.4397V38.2002Z" fill="black"/>
<path d="M38.2014 38.2H36.4414V39.96H38.2014V38.2Z" fill="black"/>
<path d="M39.9553 38.2H38.1953V39.96H39.9553V38.2Z" fill="black"/>
<path d="M43.4827 38.2H41.7227V39.96H43.4827V38.2Z" fill="black"/>
<path d="M22.3616 39.9597H20.6016V41.7197H22.3616V39.9597Z" fill="black"/>
<path d="M25.8811 39.96H24.1211V41.72H25.8811V39.96Z" fill="black"/>
<path d="M31.1584 39.9597H29.3984V41.7197H31.1584V39.9597Z" fill="black"/>
<path d="M34.6819 39.9597H32.9219V41.7197H34.6819V39.9597Z" fill="black"/>
<path d="M36.4397 39.96H34.6797V41.72H36.4397V39.96Z" fill="black"/>
<path d="M45.2444 39.9597H43.4844V41.7197H45.2444V39.9597Z" fill="black"/>
<path d="M46.9983 39.96H45.2383V41.72H46.9983V39.96Z" fill="black"/>
<path d="M20.5998 41.7202H18.8398V43.4802H20.5998V41.7202Z" fill="black"/>
<path d="M22.3616 41.7202H20.6016V43.4802H22.3616V41.7202Z" fill="black"/>
<path d="M25.8811 41.72H24.1211V43.48H25.8811V41.72Z" fill="black"/>
<path d="M29.3967 41.7202H27.6367V43.4802H29.3967V41.7202Z" fill="black"/>
<path d="M32.9241 41.7202H31.1641V43.4802H32.9241V41.7202Z" fill="black"/>
<path d="M34.6819 41.7202H32.9219V43.4802H34.6819V41.7202Z" fill="black"/>
<path d="M41.717 41.7202H39.957V43.4802H41.717V41.7202Z" fill="black"/>
<path d="M43.4827 41.7202H41.7227V43.4802H43.4827V41.7202Z" fill="black"/>
<path d="M46.9983 41.72H45.2383V43.48H46.9983V41.72Z" fill="black"/>
<path d="M20.5998 43.4797H18.8398V45.2397H20.5998V43.4797Z" fill="black"/>
<path d="M22.3616 43.4797H20.6016V45.2397H22.3616V43.4797Z" fill="black"/>
<path d="M29.3967 43.4797H27.6367V45.2397H29.3967V43.4797Z" fill="black"/>
<path d="M32.9241 43.4797H31.1641V45.2397H32.9241V43.4797Z" fill="black"/>
<path d="M34.6819 43.4797H32.9219V45.2397H34.6819V43.4797Z" fill="black"/>
<path d="M36.4397 43.48H34.6797V45.24H36.4397V43.48Z" fill="black"/>
<path d="M38.2014 43.4797H36.4414V45.2397H38.2014V43.4797Z" fill="black"/>
<path d="M39.9553 43.4797H38.1953V45.2397H39.9553V43.4797Z" fill="black"/>
<path d="M46.9983 43.48H45.2383V45.24H46.9983V43.48Z" fill="black"/>
<path d="M18.8381 45.24H17.0781V47H18.8381V45.24Z" fill="black"/>
<path d="M22.3616 45.24H20.6016V47H22.3616V45.24Z" fill="black"/>
<path d="M25.8811 45.24H24.1211V47H25.8811V45.24Z" fill="black"/>
<path d="M32.9241 45.24H31.1641V47H32.9241V45.24Z" fill="black"/>
<path d="M34.6819 45.24H32.9219V47H34.6819V45.24Z" fill="black"/>
<path d="M36.4397 45.24H34.6797V47H36.4397V45.24Z" fill="black"/>
<path d="M41.717 45.24H39.957V47H41.717V45.24Z" fill="black"/>
<path d="M46.9983 45.24H45.2383V47H46.9983V45.24Z" fill="black"/>
<path d="M11.1138 3.00122H7.20617C5.30175 3.00122 3.68832 4.25946 3.17248 5.97921C3.11913 6.15711 3.07749 6.33994 3.04854 6.52684C3.01663 6.73307 3 6.94424 3 7.15922V11.1596C3 13.4535 4.88742 15.3189 7.20617 15.3189L9.16 15.3192L11.1138 15.3188C13.4325 15.3188 15.32 13.4534 15.32 11.1595V7.15922C15.32 4.86647 13.4326 3.00122 11.1138 3.00122ZM13.472 11.1596C13.472 12.434 12.4142 13.4709 11.1133 13.4709L9.16 13.4712L7.20666 13.4708C5.9058 13.4708 4.848 12.4339 4.848 11.1596V7.15922C4.848 6.76116 4.95124 6.38639 5.13296 6.05892C5.30791 5.7439 5.55541 5.47298 5.85344 5.26785C6.23659 5.00408 6.70315 4.84922 7.20605 4.84922H11.1138C12.4142 4.84922 13.472 5.88546 13.472 7.15922V11.1596Z" fill="black"/>
<path d="M42.7935 3.00098H38.8859C36.9814 3.00098 35.368 4.25922 34.8522 5.97897C34.7988 6.15687 34.7572 6.3397 34.7282 6.52659C34.6963 6.73283 34.6797 6.94399 34.6797 7.15898V11.1594C34.6797 13.4533 36.5671 15.3186 38.8859 15.3186L40.8397 15.319L42.7935 15.3185C45.1121 15.3185 46.9997 13.4531 46.9997 11.1593V7.15898C46.9997 4.86622 45.1123 3.00098 42.7935 3.00098ZM45.1517 11.1594C45.1517 12.4338 44.0939 13.4706 42.793 13.4706L40.8397 13.471L38.8864 13.4705C37.5855 13.4705 36.5277 12.4337 36.5277 11.1594V7.15898C36.5277 6.76092 36.6309 6.38614 36.8126 6.05868C36.9876 5.74366 37.2351 5.47274 37.5331 5.26761C37.9163 5.00384 38.3828 4.84898 38.8857 4.84898H42.7935C44.0939 4.84898 45.1517 5.88521 45.1517 7.15898V11.1594Z" fill="black"/>
<path d="M11.1138 34.6809H7.20617C5.30175 34.6809 3.68832 35.9392 3.17248 37.6589C3.11913 37.8368 3.07749 38.0196 3.04854 38.2065C3.01663 38.4128 3 38.6239 3 38.8389V42.8393C3 45.1332 4.88742 46.9986 7.20617 46.9986L9.16 46.9989L11.1138 46.9984C13.4325 46.9984 15.32 45.1331 15.32 42.8392V38.8389C15.32 36.5462 13.4326 34.6809 11.1138 34.6809ZM13.472 42.8393C13.472 44.1137 12.4142 45.1506 11.1133 45.1506L9.16 45.1509L7.20666 45.1504C5.9058 45.1504 4.848 44.1136 4.848 42.8393V38.8389C4.848 38.4408 4.95124 38.0661 5.13296 37.7386C5.30791 37.4236 5.55541 37.1527 5.85344 36.9475C6.23659 36.6838 6.70315 36.5289 7.20605 36.5289H11.1138C12.4142 36.5289 13.472 37.5651 13.472 38.8389V42.8393Z" fill="black"/>
<path d="M11.7956 6.51978H6.51562V11.7998H11.7956V6.51978Z" fill="black"/>
<path d="M43.4753 6.51978H38.1953V11.7998H43.4753V6.51978Z" fill="black"/>
<path d="M11.7956 38.2H6.51562V43.48H11.7956V38.2Z" fill="black"/>
</g>
<defs>
<clipPath id="clip0_678_2829">
<rect width="50" height="50" fill="white"/>
</clipPath>
</defs>
</svg>
