<svg width="90" height="90" viewBox="0 0 90 90" fill="none" xmlns="http://www.w3.org/2000/svg">
<g clip-path="url(#clip0_6113_7277)">
<path d="M27.2721 0H24.5449V2.7272H27.2721V0Z" fill="black"/>
<path d="M29.9967 0H27.2695V2.7272H29.9967V0Z" fill="black"/>
<path d="M32.7213 0H29.9941V2.7272H32.7213V0Z" fill="black"/>
<path d="M35.4538 0H32.7266V2.7272H35.4538V0Z" fill="black"/>
<path d="M43.6354 0H40.9082V2.7272H43.6354V0Z" fill="black"/>
<path d="M46.36 0H43.6328V2.7272H46.36V0Z" fill="black"/>
<path d="M51.817 0H49.0898V2.7272H51.817V0Z" fill="black"/>
<path d="M54.5416 0H51.8145V2.7272H54.5416V0Z" fill="black"/>
<path d="M62.7311 0H60.0039V2.7272H62.7311V0Z" fill="black"/>
<path d="M65.4557 0H62.7285V2.7272H65.4557V0Z" fill="black"/>
<path d="M29.9967 2.72656H27.2695V5.45376H29.9967V2.72656Z" fill="black"/>
<path d="M43.6354 2.72656H40.9082V5.45376H43.6354V2.72656Z" fill="black"/>
<path d="M46.36 2.72656H43.6328V5.45376H46.36V2.72656Z" fill="black"/>
<path d="M49.0846 2.72656H46.3574V5.45376H49.0846V2.72656Z" fill="black"/>
<path d="M57.2741 2.72656H54.5469V5.45376H57.2741V2.72656Z" fill="black"/>
<path d="M59.9987 2.72656H57.2715V5.45376H59.9987V2.72656Z" fill="black"/>
<path d="M62.7311 2.72656H60.0039V5.45376H62.7311V2.72656Z" fill="black"/>
<path d="M65.4557 2.72656H62.7285V5.45376H65.4557V2.72656Z" fill="black"/>
<path d="M68.1881 2.72656H65.4609V5.45376H68.1881V2.72656Z" fill="black"/>
<path d="M27.2721 5.45508H24.5449V8.18227H27.2721V5.45508Z" fill="black"/>
<path d="M29.9967 5.45508H27.2695V8.18227H29.9967V5.45508Z" fill="black"/>
<path d="M40.9108 5.45508H38.1836V8.18227H40.9108V5.45508Z" fill="black"/>
<path d="M46.36 5.45508H43.6328V8.18227H46.36V5.45508Z" fill="black"/>
<path d="M49.0846 5.45508H46.3574V8.18227H49.0846V5.45508Z" fill="black"/>
<path d="M54.5416 5.45508H51.8145V8.18227H54.5416V5.45508Z" fill="black"/>
<path d="M65.4557 5.45508H62.7285V8.18227H65.4557V5.45508Z" fill="black"/>
<path d="M68.1881 5.45508H65.4609V8.18227H68.1881V5.45508Z" fill="black"/>
<path d="M27.2721 8.18164H24.5449V10.9088H27.2721V8.18164Z" fill="black"/>
<path d="M29.9967 8.18164H27.2695V10.9088H29.9967V8.18164Z" fill="black"/>
<path d="M32.7213 8.18164H29.9941V10.9088H32.7213V8.18164Z" fill="black"/>
<path d="M35.4538 8.18164H32.7266V10.9088H35.4538V8.18164Z" fill="black"/>
<path d="M38.1784 8.18164H35.4512V10.9088H38.1784V8.18164Z" fill="black"/>
<path d="M49.0846 8.18164H46.3574V10.9088H49.0846V8.18164Z" fill="black"/>
<path d="M54.5416 8.18164H51.8145V10.9088H54.5416V8.18164Z" fill="black"/>
<path d="M59.9987 8.18164H57.2715V10.9088H59.9987V8.18164Z" fill="black"/>
<path d="M27.2721 10.9102H24.5449V13.6374H27.2721V10.9102Z" fill="black"/>
<path d="M32.7213 10.9102H29.9941V13.6374H32.7213V10.9102Z" fill="black"/>
<path d="M46.36 10.9102H43.6328V13.6374H46.36V10.9102Z" fill="black"/>
<path d="M49.0846 10.9102H46.3574V13.6374H49.0846V10.9102Z" fill="black"/>
<path d="M54.5416 10.9102H51.8145V13.6374H54.5416V10.9102Z" fill="black"/>
<path d="M59.9987 10.9102H57.2715V13.6374H59.9987V10.9102Z" fill="black"/>
<path d="M62.7311 10.9102H60.0039V13.6374H62.7311V10.9102Z" fill="black"/>
<path d="M24.5475 13.6367H21.8203V16.3639H24.5475V13.6367Z" fill="black"/>
<path d="M29.9967 13.6367H27.2695V16.3639H29.9967V13.6367Z" fill="black"/>
<path d="M49.0846 13.6367H46.3574V16.3639H49.0846V13.6367Z" fill="black"/>
<path d="M51.817 13.6367H49.0898V16.3639H51.817V13.6367Z" fill="black"/>
<path d="M57.2741 13.6367H54.5469V16.3639H57.2741V13.6367Z" fill="black"/>
<path d="M62.7311 13.6367H60.0039V16.3639H62.7311V13.6367Z" fill="black"/>
<path d="M65.4557 13.6367H62.7285V16.3639H65.4557V13.6367Z" fill="black"/>
<path d="M24.5475 16.3633H21.8203V19.0905H24.5475V16.3633Z" fill="black"/>
<path d="M29.9967 16.3633H27.2695V19.0905H29.9967V16.3633Z" fill="black"/>
<path d="M35.4538 16.3633H32.7266V19.0905H35.4538V16.3633Z" fill="black"/>
<path d="M40.9108 16.3633H38.1836V19.0905H40.9108V16.3633Z" fill="black"/>
<path d="M46.36 16.3633H43.6328V19.0905H46.36V16.3633Z" fill="black"/>
<path d="M51.817 16.3633H49.0898V19.0905H51.817V16.3633Z" fill="black"/>
<path d="M57.2741 16.3633H54.5469V19.0905H57.2741V16.3633Z" fill="black"/>
<path d="M62.7311 16.3633H60.0039V19.0905H62.7311V16.3633Z" fill="black"/>
<path d="M68.1881 16.3633H65.4609V19.0905H68.1881V16.3633Z" fill="black"/>
<path d="M32.7213 19.0898H29.9941V21.817H32.7213V19.0898Z" fill="black"/>
<path d="M40.9108 19.0898H38.1836V21.817H40.9108V19.0898Z" fill="black"/>
<path d="M49.0846 19.0898H46.3574V21.817H49.0846V19.0898Z" fill="black"/>
<path d="M51.817 19.0898H49.0898V21.817H51.817V19.0898Z" fill="black"/>
<path d="M54.5416 19.0898H51.8145V21.817H54.5416V19.0898Z" fill="black"/>
<path d="M57.2741 19.0898H54.5469V21.817H57.2741V19.0898Z" fill="black"/>
<path d="M59.9987 19.0898H57.2715V21.817H59.9987V19.0898Z" fill="black"/>
<path d="M68.1881 19.0898H65.4609V21.817H68.1881V19.0898Z" fill="black"/>
<path d="M2.7272 21.8184H0V24.5456H2.7272V21.8184Z" fill="black"/>
<path d="M10.9088 21.8184H8.18164V24.5456H10.9088V21.8184Z" fill="black"/>
<path d="M16.3659 21.8184H13.6387V24.5456H16.3659V21.8184Z" fill="black"/>
<path d="M19.0905 21.8184H16.3633V24.5456H19.0905V21.8184Z" fill="black"/>
<path d="M24.5475 21.8184H21.8203V24.5456H24.5475V21.8184Z" fill="black"/>
<path d="M35.4538 21.8184H32.7266V24.5456H35.4538V21.8184Z" fill="black"/>
<path d="M38.1784 21.8184H35.4512V24.5456H38.1784V21.8184Z" fill="black"/>
<path d="M40.9108 21.8184H38.1836V24.5456H40.9108V21.8184Z" fill="black"/>
<path d="M43.6354 21.8184H40.9082V24.5456H43.6354V21.8184Z" fill="black"/>
<path d="M46.36 21.8184H43.6328V24.5456H46.36V21.8184Z" fill="black"/>
<path d="M54.5416 21.8184H51.8145V24.5456H54.5416V21.8184Z" fill="black"/>
<path d="M59.9987 21.8184H57.2715V24.5456H59.9987V21.8184Z" fill="black"/>
<path d="M70.9127 21.8184H68.1855V24.5456H70.9127V21.8184Z" fill="black"/>
<path d="M76.362 21.8184H73.6348V24.5456H76.362V21.8184Z" fill="black"/>
<path d="M2.7272 24.5449H0V27.2721H2.7272V24.5449Z" fill="black"/>
<path d="M5.45181 24.5449H2.72461V27.2721H5.45181V24.5449Z" fill="black"/>
<path d="M8.18423 24.5449H5.45703V27.2721H8.18423V24.5449Z" fill="black"/>
<path d="M10.9088 24.5449H8.18164V27.2721H10.9088V24.5449Z" fill="black"/>
<path d="M13.6413 24.5449H10.9141V27.2721H13.6413V24.5449Z" fill="black"/>
<path d="M21.8151 24.5449H19.0879V27.2721H21.8151V24.5449Z" fill="black"/>
<path d="M24.5475 24.5449H21.8203V27.2721H24.5475V24.5449Z" fill="black"/>
<path d="M27.2721 24.5449H24.5449V27.2721H27.2721V24.5449Z" fill="black"/>
<path d="M29.9967 24.5449H27.2695V27.2721H29.9967V24.5449Z" fill="black"/>
<path d="M35.4538 24.5449H32.7266V27.2721H35.4538V24.5449Z" fill="black"/>
<path d="M40.9108 24.5449H38.1836V27.2721H40.9108V24.5449Z" fill="black"/>
<path d="M46.36 24.5449H43.6328V27.2721H46.36V24.5449Z" fill="black"/>
<path d="M57.2741 24.5449H54.5469V27.2721H57.2741V24.5449Z" fill="black"/>
<path d="M62.7311 24.5449H60.0039V27.2721H62.7311V24.5449Z" fill="black"/>
<path d="M68.1881 24.5449H65.4609V27.2721H68.1881V24.5449Z" fill="black"/>
<path d="M70.9127 24.5449H68.1855V27.2721H70.9127V24.5449Z" fill="black"/>
<path d="M73.6374 24.5449H70.9102V27.2721H73.6374V24.5449Z" fill="black"/>
<path d="M76.362 24.5449H73.6348V27.2721H76.362V24.5449Z" fill="black"/>
<path d="M87.2682 24.5449H84.541V27.2721H87.2682V24.5449Z" fill="black"/>
<path d="M90.0006 24.5449H87.2734V27.2721H90.0006V24.5449Z" fill="black"/>
<path d="M2.7272 27.2715H0V29.9987H2.7272V27.2715Z" fill="black"/>
<path d="M10.9088 27.2715H8.18164V29.9987H10.9088V27.2715Z" fill="black"/>
<path d="M13.6413 27.2715H10.9141V29.9987H13.6413V27.2715Z" fill="black"/>
<path d="M16.3659 27.2715H13.6387V29.9987H16.3659V27.2715Z" fill="black"/>
<path d="M19.0905 27.2715H16.3633V29.9987H19.0905V27.2715Z" fill="black"/>
<path d="M27.2721 27.2715H24.5449V29.9987H27.2721V27.2715Z" fill="black"/>
<path d="M29.9967 27.2715H27.2695V29.9987H29.9967V27.2715Z" fill="black"/>
<path d="M32.7213 27.2715H29.9941V29.9987H32.7213V27.2715Z" fill="black"/>
<path d="M35.4538 27.2715H32.7266V29.9987H35.4538V27.2715Z" fill="black"/>
<path d="M46.36 27.2715H43.6328V29.9987H46.36V27.2715Z" fill="black"/>
<path d="M49.0846 27.2715H46.3574V29.9987H49.0846V27.2715Z" fill="black"/>
<path d="M54.5416 27.2715H51.8145V29.9987H54.5416V27.2715Z" fill="black"/>
<path d="M57.2741 27.2715H54.5469V29.9987H57.2741V27.2715Z" fill="black"/>
<path d="M59.9987 27.2715H57.2715V29.9987H59.9987V27.2715Z" fill="black"/>
<path d="M62.7311 27.2715H60.0039V29.9987H62.7311V27.2715Z" fill="black"/>
<path d="M68.1881 27.2715H65.4609V29.9987H68.1881V27.2715Z" fill="black"/>
<path d="M73.6374 27.2715H70.9102V29.9987H73.6374V27.2715Z" fill="black"/>
<path d="M76.362 27.2715H73.6348V29.9987H76.362V27.2715Z" fill="black"/>
<path d="M79.0866 27.2715H76.3594V29.9987H79.0866V27.2715Z" fill="black"/>
<path d="M84.5436 27.2715H81.8164V29.9987H84.5436V27.2715Z" fill="black"/>
<path d="M90.0006 27.2715H87.2734V29.9987H90.0006V27.2715Z" fill="black"/>
<path d="M16.3659 29.9976H13.6387V32.7248H16.3659V29.9976Z" fill="black"/>
<path d="M24.5475 29.9976H21.8203V32.7248H24.5475V29.9976Z" fill="black"/>
<path d="M32.7213 29.9976H29.9941V32.7248H32.7213V29.9976Z" fill="black"/>
<path d="M35.4538 29.9976H32.7266V32.7248H35.4538V29.9976Z" fill="black"/>
<path d="M40.9108 29.9976H38.1836V32.7248H40.9108V29.9976Z" fill="black"/>
<path d="M49.0846 29.9976H46.3574V32.7248H49.0846V29.9976Z" fill="black"/>
<path d="M65.4557 29.9976H62.7285V32.7248H65.4557V29.9976Z" fill="black"/>
<path d="M68.1881 29.9976H65.4609V32.7248H68.1881V29.9976Z" fill="black"/>
<path d="M73.6374 29.9976H70.9102V32.7248H73.6374V29.9976Z" fill="black"/>
<path d="M79.0866 29.9976H76.3594V32.7248H79.0866V29.9976Z" fill="black"/>
<path d="M81.8112 29.9976H79.084V32.7248H81.8112V29.9976Z" fill="black"/>
<path d="M87.2682 30H84.541V32.7272H87.2682V30Z" fill="black"/>
<path d="M90.0006 29.9976H87.2734V32.7248H90.0006V29.9976Z" fill="black"/>
<path d="M5.45181 32.7261H2.72461V35.4533H5.45181V32.7261Z" fill="black"/>
<path d="M8.18423 32.7261H5.45703V35.4533H8.18423V32.7261Z" fill="black"/>
<path d="M16.3659 32.7261H13.6387V35.4533H16.3659V32.7261Z" fill="black"/>
<path d="M19.0905 32.7261H16.3633V35.4533H19.0905V32.7261Z" fill="black"/>
<path d="M21.8151 32.7261H19.0879V35.4533H21.8151V32.7261Z" fill="black"/>
<path d="M35.4538 32.7261H32.7266V35.4533H35.4538V32.7261Z" fill="black"/>
<path d="M54.5416 32.7261H51.8145V35.4533H54.5416V32.7261Z" fill="black"/>
<path d="M65.4557 32.7261H62.7285V35.4533H65.4557V32.7261Z" fill="black"/>
<path d="M68.1881 32.7261H65.4609V35.4533H68.1881V32.7261Z" fill="black"/>
<path d="M70.9127 32.7261H68.1855V35.4533H70.9127V32.7261Z" fill="black"/>
<path d="M73.6374 32.7261H70.9102V35.4533H73.6374V32.7261Z" fill="black"/>
<path d="M76.362 32.7261H73.6348V35.4533H76.362V32.7261Z" fill="black"/>
<path d="M81.8112 32.7261H79.084V35.4533H81.8112V32.7261Z" fill="black"/>
<path d="M24.5475 35.4546H21.8203V38.1818H24.5475V35.4546Z" fill="black"/>
<path d="M27.2721 35.4546H24.5449V38.1818H27.2721V35.4546Z" fill="black"/>
<path d="M29.9967 35.4546H27.2695V38.1818H29.9967V35.4546Z" fill="black"/>
<path d="M32.7213 35.4546H29.9941V38.1818H32.7213V35.4546Z" fill="black"/>
<path d="M35.4538 35.4546H32.7266V38.1818H35.4538V35.4546Z" fill="black"/>
<path d="M38.1784 35.4546H35.4512V38.1818H38.1784V35.4546Z" fill="black"/>
<path d="M43.6354 35.4546H40.9082V38.1818H43.6354V35.4546Z" fill="black"/>
<path d="M46.36 35.4546H43.6328V38.1818H46.36V35.4546Z" fill="black"/>
<path d="M59.9987 35.4546H57.2715V38.1818H59.9987V35.4546Z" fill="black"/>
<path d="M62.7311 35.4546H60.0039V38.1818H62.7311V35.4546Z" fill="black"/>
<path d="M65.4557 35.4546H62.7285V38.1818H65.4557V35.4546Z" fill="black"/>
<path d="M73.6374 35.4546H70.9102V38.1818H73.6374V35.4546Z" fill="black"/>
<path d="M76.362 35.4546H73.6348V38.1818H76.362V35.4546Z" fill="black"/>
<path d="M79.0866 35.4546H76.3594V38.1818H79.0866V35.4546Z" fill="black"/>
<path d="M87.2682 35.4526H84.541V38.1798H87.2682V35.4526Z" fill="black"/>
<path d="M90.0006 35.4546H87.2734V38.1818H90.0006V35.4546Z" fill="black"/>
<path d="M2.7272 38.1812H0V40.9083H2.7272V38.1812Z" fill="black"/>
<path d="M8.18423 38.1812H5.45703V40.9083H8.18423V38.1812Z" fill="black"/>
<path d="M13.6413 38.1812H10.9141V40.9083H13.6413V38.1812Z" fill="black"/>
<path d="M16.3659 38.1812H13.6387V40.9083H16.3659V38.1812Z" fill="black"/>
<path d="M19.0905 38.1812H16.3633V40.9083H19.0905V38.1812Z" fill="black"/>
<path d="M21.8151 38.1812H19.0879V40.9083H21.8151V38.1812Z" fill="black"/>
<path d="M24.5475 38.1812H21.8203V40.9083H24.5475V38.1812Z" fill="black"/>
<path d="M27.2721 38.1812H24.5449V40.9083H27.2721V38.1812Z" fill="black"/>
<path d="M29.9967 38.1812H27.2695V40.9083H29.9967V38.1812Z" fill="black"/>
<path d="M35.4538 38.1812H32.7266V40.9083H35.4538V38.1812Z" fill="black"/>
<path d="M40.9108 38.1812H38.1836V40.9083H40.9108V38.1812Z" fill="black"/>
<path d="M49.0846 38.1812H46.3574V40.9083H49.0846V38.1812Z" fill="black"/>
<path d="M57.2741 38.1812H54.5469V40.9083H57.2741V38.1812Z" fill="black"/>
<path d="M65.4557 38.1812H62.7285V40.9083H65.4557V38.1812Z" fill="black"/>
<path d="M70.9127 38.1812H68.1855V40.9083H70.9127V38.1812Z" fill="black"/>
<path d="M73.6374 38.1812H70.9102V40.9083H73.6374V38.1812Z" fill="black"/>
<path d="M76.362 38.1812H73.6348V40.9083H76.362V38.1812Z" fill="black"/>
<path d="M81.8112 38.1812H79.084V40.9083H81.8112V38.1812Z" fill="black"/>
<path d="M84.5436 38.1812H81.8164V40.9083H84.5436V38.1812Z" fill="black"/>
<path d="M87.2682 38.1812H84.541V40.9083H87.2682V38.1812Z" fill="black"/>
<path d="M2.7272 40.9077H0V43.6349H2.7272V40.9077Z" fill="black"/>
<path d="M24.5475 40.9077H21.8203V43.6349H24.5475V40.9077Z" fill="black"/>
<path d="M32.7213 40.9077H29.9941V43.6349H32.7213V40.9077Z" fill="black"/>
<path d="M40.9108 40.9077H38.1836V43.6349H40.9108V40.9077Z" fill="black"/>
<path d="M43.6354 40.9077H40.9082V43.6349H43.6354V40.9077Z" fill="black"/>
<path d="M49.0846 40.9077H46.3574V43.6349H49.0846V40.9077Z" fill="black"/>
<path d="M51.817 40.9077H49.0898V43.6349H51.817V40.9077Z" fill="black"/>
<path d="M54.5416 40.9077H51.8145V43.6349H54.5416V40.9077Z" fill="black"/>
<path d="M59.9987 40.9077H57.2715V43.6349H59.9987V40.9077Z" fill="black"/>
<path d="M62.7311 40.9077H60.0039V43.6349H62.7311V40.9077Z" fill="black"/>
<path d="M68.1881 40.9077H65.4609V43.6349H68.1881V40.9077Z" fill="black"/>
<path d="M73.6374 40.9077H70.9102V43.6349H73.6374V40.9077Z" fill="black"/>
<path d="M87.2682 40.9077H84.541V43.6349H87.2682V40.9077Z" fill="black"/>
<path d="M2.7272 43.6343H0V46.3615H2.7272V43.6343Z" fill="black"/>
<path d="M5.45181 43.6343H2.72461V46.3615H5.45181V43.6343Z" fill="black"/>
<path d="M8.18423 43.6343H5.45703V46.3615H8.18423V43.6343Z" fill="black"/>
<path d="M10.9088 43.6343H8.18164V46.3615H10.9088V43.6343Z" fill="black"/>
<path d="M13.6413 43.6343H10.9141V46.3615H13.6413V43.6343Z" fill="black"/>
<path d="M16.3659 43.6343H13.6387V46.3615H16.3659V43.6343Z" fill="black"/>
<path d="M19.0905 43.6343H16.3633V46.3615H19.0905V43.6343Z" fill="black"/>
<path d="M24.5475 43.6343H21.8203V46.3615H24.5475V43.6343Z" fill="black"/>
<path d="M27.2721 43.6343H24.5449V46.3615H27.2721V43.6343Z" fill="black"/>
<path d="M32.7213 43.6343H29.9941V46.3615H32.7213V43.6343Z" fill="black"/>
<path d="M35.4538 43.6343H32.7266V46.3615H35.4538V43.6343Z" fill="black"/>
<path d="M49.0846 43.6343H46.3574V46.3615H49.0846V43.6343Z" fill="black"/>
<path d="M51.817 43.6343H49.0898V46.3615H51.817V43.6343Z" fill="black"/>
<path d="M54.5416 43.6343H51.8145V46.3615H54.5416V43.6343Z" fill="black"/>
<path d="M57.2741 43.6343H54.5469V46.3615H57.2741V43.6343Z" fill="black"/>
<path d="M59.9987 43.6343H57.2715V46.3615H59.9987V43.6343Z" fill="black"/>
<path d="M62.7311 43.6343H60.0039V46.3615H62.7311V43.6343Z" fill="black"/>
<path d="M68.1881 43.6343H65.4609V46.3615H68.1881V43.6343Z" fill="black"/>
<path d="M73.6374 43.6343H70.9102V46.3615H73.6374V43.6343Z" fill="black"/>
<path d="M79.0866 43.6343H76.3594V46.3615H79.0866V43.6343Z" fill="black"/>
<path d="M87.2682 43.6343H84.541V46.3615H87.2682V43.6343Z" fill="black"/>
<path d="M2.7272 46.3628H0V49.09H2.7272V46.3628Z" fill="black"/>
<path d="M5.45181 46.3608H2.72461V49.088H5.45181V46.3608Z" fill="black"/>
<path d="M10.9088 46.3608H8.18164V49.088H10.9088V46.3608Z" fill="black"/>
<path d="M13.6413 46.3608H10.9141V49.088H13.6413V46.3608Z" fill="black"/>
<path d="M16.3659 46.3608H13.6387V49.088H16.3659V46.3608Z" fill="black"/>
<path d="M21.8151 46.3608H19.0879V49.088H21.8151V46.3608Z" fill="black"/>
<path d="M24.5475 46.3608H21.8203V49.088H24.5475V46.3608Z" fill="black"/>
<path d="M29.9967 46.3608H27.2695V49.088H29.9967V46.3608Z" fill="black"/>
<path d="M35.4538 46.3608H32.7266V49.088H35.4538V46.3608Z" fill="black"/>
<path d="M38.1784 46.3608H35.4512V49.088H38.1784V46.3608Z" fill="black"/>
<path d="M46.36 46.3608H43.6328V49.088H46.36V46.3608Z" fill="black"/>
<path d="M57.2741 46.3608H54.5469V49.088H57.2741V46.3608Z" fill="black"/>
<path d="M59.9987 46.3608H57.2715V49.088H59.9987V46.3608Z" fill="black"/>
<path d="M62.7311 46.3608H60.0039V49.088H62.7311V46.3608Z" fill="black"/>
<path d="M65.4557 46.3608H62.7285V49.088H65.4557V46.3608Z" fill="black"/>
<path d="M76.362 46.3608H73.6348V49.088H76.362V46.3608Z" fill="black"/>
<path d="M81.8112 46.3608H79.084V49.088H81.8112V46.3608Z" fill="black"/>
<path d="M90.0006 46.3608H87.2734V49.088H90.0006V46.3608Z" fill="black"/>
<path d="M2.7272 49.0894H0V51.8166H2.7272V49.0894Z" fill="black"/>
<path d="M5.45181 49.0894H2.72461V51.8166H5.45181V49.0894Z" fill="black"/>
<path d="M19.0905 49.0894H16.3633V51.8166H19.0905V49.0894Z" fill="black"/>
<path d="M21.8151 49.0894H19.0879V51.8166H21.8151V49.0894Z" fill="black"/>
<path d="M24.5475 49.0894H21.8203V51.8166H24.5475V49.0894Z" fill="black"/>
<path d="M27.2721 49.0894H24.5449V51.8166H27.2721V49.0894Z" fill="black"/>
<path d="M29.9967 49.0894H27.2695V51.8166H29.9967V49.0894Z" fill="black"/>
<path d="M32.7213 49.0894H29.9941V51.8166H32.7213V49.0894Z" fill="black"/>
<path d="M46.36 49.0894H43.6328V51.8166H46.36V49.0894Z" fill="black"/>
<path d="M51.817 49.0894H49.0898V51.8166H51.817V49.0894Z" fill="black"/>
<path d="M62.7311 49.0894H60.0039V51.8166H62.7311V49.0894Z" fill="black"/>
<path d="M84.5436 49.0894H81.8164V51.8166H84.5436V49.0894Z" fill="black"/>
<path d="M87.2682 49.0894H84.541V51.8166H87.2682V49.0894Z" fill="black"/>
<path d="M90.0006 49.0894H87.2734V51.8166H90.0006V49.0894Z" fill="black"/>
<path d="M8.18423 51.8159H5.45703V54.5431H8.18423V51.8159Z" fill="black"/>
<path d="M13.6413 51.8179H10.9141V54.5451H13.6413V51.8179Z" fill="black"/>
<path d="M21.8151 51.8179H19.0879V54.5451H21.8151V51.8179Z" fill="black"/>
<path d="M27.2721 51.8179H24.5449V54.5451H27.2721V51.8179Z" fill="black"/>
<path d="M35.4538 51.8179H32.7266V54.5451H35.4538V51.8179Z" fill="black"/>
<path d="M38.1784 51.8179H35.4512V54.5451H38.1784V51.8179Z" fill="black"/>
<path d="M43.6354 51.8179H40.9082V54.5451H43.6354V51.8179Z" fill="black"/>
<path d="M49.0846 51.8179H46.3574V54.5451H49.0846V51.8179Z" fill="black"/>
<path d="M51.817 51.8179H49.0898V54.5451H51.817V51.8179Z" fill="black"/>
<path d="M57.2741 51.8179H54.5469V54.5451H57.2741V51.8179Z" fill="black"/>
<path d="M59.9987 51.8179H57.2715V54.5451H59.9987V51.8179Z" fill="black"/>
<path d="M68.1881 51.8179H65.4609V54.5451H68.1881V51.8179Z" fill="black"/>
<path d="M70.9127 51.8179H68.1855V54.5451H70.9127V51.8179Z" fill="black"/>
<path d="M76.362 51.8179H73.6348V54.5451H76.362V51.8179Z" fill="black"/>
<path d="M87.2682 51.8159H84.541V54.5431H87.2682V51.8159Z" fill="black"/>
<path d="M13.6413 54.5444H10.9141V57.2716H13.6413V54.5444Z" fill="black"/>
<path d="M19.0905 54.5444H16.3633V57.2716H19.0905V54.5444Z" fill="black"/>
<path d="M24.5475 54.5444H21.8203V57.2716H24.5475V54.5444Z" fill="black"/>
<path d="M29.9967 54.5444H27.2695V57.2716H29.9967V54.5444Z" fill="black"/>
<path d="M46.36 54.5444H43.6328V57.2716H46.36V54.5444Z" fill="black"/>
<path d="M49.0846 54.5444H46.3574V57.2716H49.0846V54.5444Z" fill="black"/>
<path d="M51.817 54.5444H49.0898V57.2716H51.817V54.5444Z" fill="black"/>
<path d="M62.7311 54.5444H60.0039V57.2716H62.7311V54.5444Z" fill="black"/>
<path d="M65.4557 54.5444H62.7285V57.2716H65.4557V54.5444Z" fill="black"/>
<path d="M70.9127 54.5444H68.1855V57.2716H70.9127V54.5444Z" fill="black"/>
<path d="M79.0866 54.5444H76.3594V57.2716H79.0866V54.5444Z" fill="black"/>
<path d="M87.2682 54.5444H84.541V57.2716H87.2682V54.5444Z" fill="black"/>
<path d="M90.0006 54.5444H87.2734V57.2716H90.0006V54.5444Z" fill="black"/>
<path d="M5.45181 57.271H2.72461V59.9982H5.45181V57.271Z" fill="black"/>
<path d="M10.9088 57.271H8.18164V59.9982H10.9088V57.271Z" fill="black"/>
<path d="M21.8151 57.271H19.0879V59.9982H21.8151V57.271Z" fill="black"/>
<path d="M24.5475 57.271H21.8203V59.9982H24.5475V57.271Z" fill="black"/>
<path d="M27.2721 57.271H24.5449V59.9982H27.2721V57.271Z" fill="black"/>
<path d="M29.9967 57.271H27.2695V59.9982H29.9967V57.271Z" fill="black"/>
<path d="M35.4538 57.271H32.7266V59.9982H35.4538V57.271Z" fill="black"/>
<path d="M43.6354 57.271H40.9082V59.9982H43.6354V57.271Z" fill="black"/>
<path d="M46.36 57.271H43.6328V59.9982H46.36V57.271Z" fill="black"/>
<path d="M51.817 57.271H49.0898V59.9982H51.817V57.271Z" fill="black"/>
<path d="M54.5416 57.271H51.8145V59.9982H54.5416V57.271Z" fill="black"/>
<path d="M57.2741 57.271H54.5469V59.9982H57.2741V57.271Z" fill="black"/>
<path d="M59.9987 57.271H57.2715V59.9982H59.9987V57.271Z" fill="black"/>
<path d="M62.7311 57.271H60.0039V59.9982H62.7311V57.271Z" fill="black"/>
<path d="M68.1881 57.271H65.4609V59.9982H68.1881V57.271Z" fill="black"/>
<path d="M70.9127 57.271H68.1855V59.9982H70.9127V57.271Z" fill="black"/>
<path d="M73.6374 57.271H70.9102V59.9982H73.6374V57.271Z" fill="black"/>
<path d="M84.5436 57.271H81.8164V59.9982H84.5436V57.271Z" fill="black"/>
<path d="M87.2682 57.271H84.541V59.9982H87.2682V57.271Z" fill="black"/>
<path d="M90.0006 57.271H87.2734V59.9982H90.0006V57.271Z" fill="black"/>
<path d="M2.7272 59.9976H0V62.7248H2.7272V59.9976Z" fill="black"/>
<path d="M5.45181 59.9995H2.72461V62.7267H5.45181V59.9995Z" fill="black"/>
<path d="M19.0905 59.9995H16.3633V62.7267H19.0905V59.9995Z" fill="black"/>
<path d="M27.2721 59.9995H24.5449V62.7267H27.2721V59.9995Z" fill="black"/>
<path d="M29.9967 59.9995H27.2695V62.7267H29.9967V59.9995Z" fill="black"/>
<path d="M32.7213 59.9995H29.9941V62.7267H32.7213V59.9995Z" fill="black"/>
<path d="M38.1784 59.9995H35.4512V62.7267H38.1784V59.9995Z" fill="black"/>
<path d="M43.6354 59.9995H40.9082V62.7267H43.6354V59.9995Z" fill="black"/>
<path d="M49.0846 59.9995H46.3574V62.7267H49.0846V59.9995Z" fill="black"/>
<path d="M57.2741 59.9995H54.5469V62.7267H57.2741V59.9995Z" fill="black"/>
<path d="M62.7311 59.9995H60.0039V62.7267H62.7311V59.9995Z" fill="black"/>
<path d="M68.1881 59.9995H65.4609V62.7267H68.1881V59.9995Z" fill="black"/>
<path d="M73.6374 59.9995H70.9102V62.7267H73.6374V59.9995Z" fill="black"/>
<path d="M76.362 59.9995H73.6348V62.7267H76.362V59.9995Z" fill="black"/>
<path d="M79.0866 59.9995H76.3594V62.7267H79.0866V59.9995Z" fill="black"/>
<path d="M84.5436 59.9995H81.8164V62.7267H84.5436V59.9995Z" fill="black"/>
<path d="M90.0006 59.9995H87.2734V62.7267H90.0006V59.9995Z" fill="black"/>
<path d="M5.45181 62.7261H2.72461V65.4533H5.45181V62.7261Z" fill="black"/>
<path d="M8.18423 62.7261H5.45703V65.4533H8.18423V62.7261Z" fill="black"/>
<path d="M24.5475 62.7261H21.8203V65.4533H24.5475V62.7261Z" fill="black"/>
<path d="M32.7213 62.7261H29.9941V65.4533H32.7213V62.7261Z" fill="black"/>
<path d="M35.4538 62.7261H32.7266V65.4533H35.4538V62.7261Z" fill="black"/>
<path d="M40.9108 62.7261H38.1836V65.4533H40.9108V62.7261Z" fill="black"/>
<path d="M46.36 62.7261H43.6328V65.4533H46.36V62.7261Z" fill="black"/>
<path d="M51.817 62.7261H49.0898V65.4533H51.817V62.7261Z" fill="black"/>
<path d="M59.9987 62.7261H57.2715V65.4533H59.9987V62.7261Z" fill="black"/>
<path d="M65.4557 62.7261H62.7285V65.4533H65.4557V62.7261Z" fill="black"/>
<path d="M76.362 62.7261H73.6348V65.4533H76.362V62.7261Z" fill="black"/>
<path d="M81.8112 62.7261H79.084V65.4533H81.8112V62.7261Z" fill="black"/>
<path d="M2.7272 65.4526H0V68.1798H2.7272V65.4526Z" fill="black"/>
<path d="M19.0905 65.4526H16.3633V68.1798H19.0905V65.4526Z" fill="black"/>
<path d="M21.8151 65.4526H19.0879V68.1798H21.8151V65.4526Z" fill="black"/>
<path d="M32.7213 65.4526H29.9941V68.1798H32.7213V65.4526Z" fill="black"/>
<path d="M40.9108 65.4526H38.1836V68.1798H40.9108V65.4526Z" fill="black"/>
<path d="M43.6354 65.4526H40.9082V68.1798H43.6354V65.4526Z" fill="black"/>
<path d="M49.0846 65.4526H46.3574V68.1798H49.0846V65.4526Z" fill="black"/>
<path d="M54.5416 65.4526H51.8145V68.1798H54.5416V65.4526Z" fill="black"/>
<path d="M57.2741 65.4526H54.5469V68.1798H57.2741V65.4526Z" fill="black"/>
<path d="M59.9987 65.4526H57.2715V68.1798H59.9987V65.4526Z" fill="black"/>
<path d="M65.4557 65.4526H62.7285V68.1798H65.4557V65.4526Z" fill="black"/>
<path d="M68.1881 65.4526H65.4609V68.1798H68.1881V65.4526Z" fill="black"/>
<path d="M70.9127 65.4526H68.1855V68.1798H70.9127V65.4526Z" fill="black"/>
<path d="M73.6374 65.4526H70.9102V68.1798H73.6374V65.4526Z" fill="black"/>
<path d="M76.362 65.4526H73.6348V68.1798H76.362V65.4526Z" fill="black"/>
<path d="M79.0866 65.4526H76.3594V68.1798H79.0866V65.4526Z" fill="black"/>
<path d="M24.5475 68.1792H21.8203V70.9064H24.5475V68.1792Z" fill="black"/>
<path d="M27.2721 68.1792H24.5449V70.9064H27.2721V68.1792Z" fill="black"/>
<path d="M35.4538 68.1792H32.7266V70.9064H35.4538V68.1792Z" fill="black"/>
<path d="M38.1784 68.1792H35.4512V70.9064H38.1784V68.1792Z" fill="black"/>
<path d="M51.817 68.1792H49.0898V70.9064H51.817V68.1792Z" fill="black"/>
<path d="M54.5416 68.1792H51.8145V70.9064H54.5416V68.1792Z" fill="black"/>
<path d="M57.2741 68.1792H54.5469V70.9064H57.2741V68.1792Z" fill="black"/>
<path d="M68.1881 68.1792H65.4609V70.9064H68.1881V68.1792Z" fill="black"/>
<path d="M79.0866 68.1792H76.3594V70.9064H79.0866V68.1792Z" fill="black"/>
<path d="M81.8112 68.1792H79.084V70.9064H81.8112V68.1792Z" fill="black"/>
<path d="M87.2682 68.1792H84.541V70.9064H87.2682V68.1792Z" fill="black"/>
<path d="M90.0006 68.1792H87.2734V70.9064H90.0006V68.1792Z" fill="black"/>
<path d="M35.4538 70.9077H32.7266V73.6349H35.4538V70.9077Z" fill="black"/>
<path d="M38.1784 70.9077H35.4512V73.6349H38.1784V70.9077Z" fill="black"/>
<path d="M40.9108 70.9077H38.1836V73.6349H40.9108V70.9077Z" fill="black"/>
<path d="M59.9987 70.9077H57.2715V73.6349H59.9987V70.9077Z" fill="black"/>
<path d="M68.1881 70.9077H65.4609V73.6349H68.1881V70.9077Z" fill="black"/>
<path d="M73.6374 70.9077H70.9102V73.6349H73.6374V70.9077Z" fill="black"/>
<path d="M79.0866 70.9077H76.3594V73.6349H79.0866V70.9077Z" fill="black"/>
<path d="M81.8112 70.9077H79.084V73.6349H81.8112V70.9077Z" fill="black"/>
<path d="M84.5436 70.9077H81.8164V73.6349H84.5436V70.9077Z" fill="black"/>
<path d="M24.5475 73.6343H21.8203V76.3615H24.5475V73.6343Z" fill="black"/>
<path d="M32.7213 73.6343H29.9941V76.3615H32.7213V73.6343Z" fill="black"/>
<path d="M43.6354 73.6343H40.9082V76.3615H43.6354V73.6343Z" fill="black"/>
<path d="M68.1881 73.6343H65.4609V76.3615H68.1881V73.6343Z" fill="black"/>
<path d="M79.0866 73.6343H76.3594V76.3615H79.0866V73.6343Z" fill="black"/>
<path d="M87.2682 73.6343H84.541V76.3615H87.2682V73.6343Z" fill="black"/>
<path d="M90.0006 73.6343H87.2734V76.3615H90.0006V73.6343Z" fill="black"/>
<path d="M27.2721 76.3608H24.5449V79.088H27.2721V76.3608Z" fill="black"/>
<path d="M29.9967 76.3608H27.2695V79.088H29.9967V76.3608Z" fill="black"/>
<path d="M32.7213 76.3608H29.9941V79.088H32.7213V76.3608Z" fill="black"/>
<path d="M35.4538 76.3608H32.7266V79.088H35.4538V76.3608Z" fill="black"/>
<path d="M38.1784 76.3608H35.4512V79.088H38.1784V76.3608Z" fill="black"/>
<path d="M40.9108 76.3608H38.1836V79.088H40.9108V76.3608Z" fill="black"/>
<path d="M46.36 76.3608H43.6328V79.088H46.36V76.3608Z" fill="black"/>
<path d="M54.5416 76.3608H51.8145V79.088H54.5416V76.3608Z" fill="black"/>
<path d="M62.7311 76.3608H60.0039V79.088H62.7311V76.3608Z" fill="black"/>
<path d="M68.1881 76.3608H65.4609V79.088H68.1881V76.3608Z" fill="black"/>
<path d="M70.9127 76.3608H68.1855V79.088H70.9127V76.3608Z" fill="black"/>
<path d="M73.6374 76.3608H70.9102V79.088H73.6374V76.3608Z" fill="black"/>
<path d="M76.362 76.3608H73.6348V79.088H76.362V76.3608Z" fill="black"/>
<path d="M79.0866 76.3608H76.3594V79.088H79.0866V76.3608Z" fill="black"/>
<path d="M81.8112 76.3608H79.084V79.088H81.8112V76.3608Z" fill="black"/>
<path d="M90.0006 76.3608H87.2734V79.088H90.0006V76.3608Z" fill="black"/>
<path d="M24.5475 79.0894H21.8203V81.8166H24.5475V79.0894Z" fill="black"/>
<path d="M29.9967 79.0894H27.2695V81.8166H29.9967V79.0894Z" fill="black"/>
<path d="M32.7213 79.0894H29.9941V81.8166H32.7213V79.0894Z" fill="black"/>
<path d="M38.1784 79.0894H35.4512V81.8166H38.1784V79.0894Z" fill="black"/>
<path d="M43.6354 79.0894H40.9082V81.8166H43.6354V79.0894Z" fill="black"/>
<path d="M54.5416 79.0894H51.8145V81.8166H54.5416V79.0894Z" fill="black"/>
<path d="M57.2741 79.0894H54.5469V81.8166H57.2741V79.0894Z" fill="black"/>
<path d="M59.9987 79.0894H57.2715V81.8166H59.9987V79.0894Z" fill="black"/>
<path d="M65.4557 79.0894H62.7285V81.8166H65.4557V79.0894Z" fill="black"/>
<path d="M68.1881 79.0894H65.4609V81.8166H68.1881V79.0894Z" fill="black"/>
<path d="M73.6374 79.0894H70.9102V81.8166H73.6374V79.0894Z" fill="black"/>
<path d="M79.0866 79.0894H76.3594V81.8166H79.0866V79.0894Z" fill="black"/>
<path d="M81.8112 79.0894H79.084V81.8166H81.8112V79.0894Z" fill="black"/>
<path d="M84.5436 79.0894H81.8164V81.8166H84.5436V79.0894Z" fill="black"/>
<path d="M87.2682 79.0894H84.541V81.8166H87.2682V79.0894Z" fill="black"/>
<path d="M32.7213 81.8159H29.9941V84.5431H32.7213V81.8159Z" fill="black"/>
<path d="M35.4538 81.8159H32.7266V84.5431H35.4538V81.8159Z" fill="black"/>
<path d="M49.0846 81.8159H46.3574V84.5431H49.0846V81.8159Z" fill="black"/>
<path d="M65.4557 81.8159H62.7285V84.5431H65.4557V81.8159Z" fill="black"/>
<path d="M68.1881 81.8159H65.4609V84.5431H68.1881V81.8159Z" fill="black"/>
<path d="M70.9127 81.8159H68.1855V84.5431H70.9127V81.8159Z" fill="black"/>
<path d="M79.0866 81.8159H76.3594V84.5431H79.0866V81.8159Z" fill="black"/>
<path d="M84.5436 81.8159H81.8164V84.5431H84.5436V81.8159Z" fill="black"/>
<path d="M90.0006 81.8159H87.2734V84.5431H90.0006V81.8159Z" fill="black"/>
<path d="M35.4538 84.5444H32.7266V87.2716H35.4538V84.5444Z" fill="black"/>
<path d="M38.1784 84.5444H35.4512V87.2716H38.1784V84.5444Z" fill="black"/>
<path d="M43.6354 84.5444H40.9082V87.2716H43.6354V84.5444Z" fill="black"/>
<path d="M46.36 84.5444H43.6328V87.2716H46.36V84.5444Z" fill="black"/>
<path d="M49.0846 84.5444H46.3574V87.2716H49.0846V84.5444Z" fill="black"/>
<path d="M51.817 84.5444H49.0898V87.2716H51.817V84.5444Z" fill="black"/>
<path d="M59.9987 84.5444H57.2715V87.2716H59.9987V84.5444Z" fill="black"/>
<path d="M65.4557 84.5444H62.7285V87.2716H65.4557V84.5444Z" fill="black"/>
<path d="M24.5475 87.271H21.8203V89.9982H24.5475V87.271Z" fill="black"/>
<path d="M38.1784 87.271H35.4512V89.9982H38.1784V87.271Z" fill="black"/>
<path d="M40.9108 87.271H38.1836V89.9982H40.9108V87.271Z" fill="black"/>
<path d="M46.36 87.271H43.6328V89.9982H46.36V87.271Z" fill="black"/>
<path d="M59.9987 87.271H57.2715V89.9982H59.9987V87.271Z" fill="black"/>
<path d="M68.1881 87.271H65.4609V89.9982H68.1881V87.271Z" fill="black"/>
<path d="M73.6374 87.271H70.9102V89.9982H73.6374V87.271Z" fill="black"/>
<path d="M79.0866 87.271H76.3594V89.9982H79.0866V87.271Z" fill="black"/>
<path d="M81.8112 87.271H79.084V89.9982H81.8112V87.271Z" fill="black"/>
<path d="M87.2682 87.271H84.541V89.9982H87.2682V87.271Z" fill="black"/>
<path d="M12.5724 0.00195312H6.51712C3.56647 0.00195312 1.06625 1.95146 0.266561 4.61619C0.183866 4.89155 0.119645 5.17483 0.0747778 5.46514C0.0255123 5.78449 0 6.11175 0 6.44517V12.6438C0 16.198 2.92426 19.0888 6.518 19.0888H9.54519H12.5724C16.1652 19.0888 19.0904 16.198 19.0904 12.6438V6.44517C19.0904 2.89278 16.1661 0.00195312 12.5724 0.00195312ZM16.2268 12.6438C16.2268 14.6188 14.5879 16.2253 12.5724 16.2253H9.54519H6.518C4.50251 16.2253 2.86356 14.6188 2.86356 12.6438V6.44517C2.86356 5.82847 3.02367 5.24785 3.30519 4.74024C3.57615 4.25198 3.95971 3.83234 4.42158 3.51476C5.0154 3.10568 5.73855 2.86639 6.51712 2.86639H12.5724C14.587 2.86639 16.2268 4.47192 16.2268 6.44605V12.6447V12.6438Z" fill="black"/>
<path d="M83.4806 0.00195312H77.4253C74.4747 0.00195312 71.9745 1.95146 71.1748 4.61619C71.0921 4.89155 71.0278 5.17483 70.983 5.46514C70.9337 5.78449 70.9082 6.11175 70.9082 6.44517V12.6438C70.9082 16.198 73.8325 19.0888 77.4262 19.0888H80.4534H83.4806C87.0734 19.0888 89.9986 16.198 89.9986 12.6438V6.44517C89.9986 2.89278 87.0743 0.00195312 83.4806 0.00195312ZM87.135 12.6438C87.135 14.6188 85.4961 16.2253 83.4806 16.2253H80.4534H77.4262C75.4107 16.2253 73.7718 14.6188 73.7718 12.6438V6.44517C73.7718 5.82847 73.9319 5.24785 74.2134 4.74024C74.4843 4.25198 74.8679 3.83234 75.3298 3.51476C75.9236 3.10568 76.6468 2.86639 77.4253 2.86639H83.4806C85.4952 2.86639 87.135 4.47192 87.135 6.44605V12.6447V12.6438Z" fill="black"/>
<path d="M12.5724 70.9102H6.51712C3.56647 70.9102 1.06625 72.8597 0.266561 75.5244C0.183866 75.7997 0.119645 76.083 0.0747778 76.3733C0.0255123 76.6927 0 77.02 0 77.3534V83.552C0 87.1062 2.92426 89.997 6.518 89.997H9.54519H12.5724C16.1652 89.997 19.0904 87.1062 19.0904 83.552V77.3534C19.0904 73.801 16.1661 70.9102 12.5724 70.9102ZM16.2268 83.552C16.2268 85.527 14.5879 87.1335 12.5724 87.1335H9.54519H6.518C4.50251 87.1335 2.86356 85.527 2.86356 83.552V77.3534C2.86356 76.7367 3.02367 76.156 3.30519 75.6484C3.57615 75.1602 3.95971 74.7405 4.42158 74.423C5.0154 74.0139 5.73855 73.7746 6.51712 73.7746H12.5724C14.587 73.7746 16.2268 75.3801 16.2268 77.3543V83.5529V83.552Z" fill="black"/>
<path d="M13.6386 5.45508H5.45703V13.6367H13.6386V5.45508Z" fill="black"/>
<path d="M84.541 5.45508H76.3594V13.6367H84.541V5.45508Z" fill="black"/>
<path d="M13.6386 76.3608H5.45703V84.5424H13.6386V76.3608Z" fill="black"/>
</g>
<defs>
<clipPath id="clip0_6113_7277">
<rect width="90" height="89.998" fill="white"/>
</clipPath>
</defs>
</svg>
