<svg width="524" height="672" viewBox="0 0 524 672" fill="none" xmlns="http://www.w3.org/2000/svg">
<path d="M294.57 587.344C457.257 587.344 589.14 455.863 589.14 293.672C589.14 131.481 457.257 0 294.57 0C131.884 0 0 131.481 0 293.672C0 455.863 131.884 587.344 294.57 587.344Z" fill="url(#paint0_radial_5637_4021)"/>
<path d="M486.981 671.126C608.925 671.126 707.781 572.466 707.781 450.763C707.781 329.06 608.925 230.4 486.981 230.4C365.037 230.4 266.182 329.06 266.182 450.763C266.182 572.466 365.037 671.126 486.981 671.126Z" fill="url(#paint1_radial_5637_4021)"/>
<path d="M269.936 359.567C341.73 359.567 399.932 301.543 399.932 229.967C399.932 158.391 341.73 100.368 269.936 100.368C198.141 100.368 139.939 158.391 139.939 229.967C139.939 301.543 198.141 359.567 269.936 359.567Z" fill="url(#paint2_radial_5637_4021)"/>
<defs>
<radialGradient id="paint0_radial_5637_4021" cx="0" cy="0" r="1" gradientUnits="userSpaceOnUse" gradientTransform="translate(294.57 293.672) scale(294.57 293.672)">
<stop stop-color="#EBCDDA"/>
<stop offset="1" stop-color="white"/>
</radialGradient>
<radialGradient id="paint1_radial_5637_4021" cx="0" cy="0" r="1" gradientUnits="userSpaceOnUse" gradientTransform="translate(486.981 450.763) scale(220.8 220.363)">
<stop stop-color="#EBCDDA"/>
<stop offset="1" stop-color="white"/>
</radialGradient>
<radialGradient id="paint2_radial_5637_4021" cx="0" cy="0" r="1" gradientUnits="userSpaceOnUse" gradientTransform="translate(269.936 229.967) scale(129.996 129.6)">
<stop stop-color="#EBCDDA"/>
<stop offset="1" stop-color="white"/>
</radialGradient>
</defs>
</svg>
