<svg width="468" height="469" viewBox="0 0 468 469" fill="none" xmlns="http://www.w3.org/2000/svg">
<g clip-path="url(#clip0_1076_5745)">
<circle cx="296.288" cy="162.288" r="155.288" fill="url(#paint0_radial_1076_5745)"/>
<path d="M354.876 10.762C361.779 10.6406 361.901 20.2269 368.804 20.1056C375.708 19.9842 375.587 10.3979 382.491 10.2766C389.394 10.1552 389.516 19.7415 396.419 19.6202C403.323 19.4988 403.202 9.91256 410.106 9.79121C417.009 9.66987 417.13 19.2562 424.034 19.1348C430.938 19.0135 430.817 9.42718 437.72 9.30583C444.624 9.18448 444.745 18.7708 451.77 18.6494" stroke="black" stroke-width="1.5" stroke-miterlimit="10" stroke-linecap="round" stroke-linejoin="round"/>
<path d="M143.404 313.518C150.307 313.397 150.186 303.811 157.09 303.689C163.994 303.568 164.115 313.154 171.019 313.033C177.922 312.912 177.801 303.325 184.705 303.204C191.609 303.083 191.73 312.669 198.634 312.548C205.537 312.426 205.416 302.84 212.32 302.719" stroke="black" stroke-width="1.5" stroke-miterlimit="10" stroke-linecap="round" stroke-linejoin="round"/>
<path d="M18.7733 262.796L9.44721 272.261L0 262.796L9.32609 253.331L18.7733 262.796Z" stroke="black" stroke-width="1.5" stroke-miterlimit="10" stroke-linecap="round" stroke-linejoin="round"/>
<path d="M291.289 79.6856L281.842 89.1506L272.516 79.6856L281.842 70.2207L291.289 79.6856Z" stroke="black" stroke-width="1.5" stroke-miterlimit="10" stroke-linecap="round" stroke-linejoin="round"/>
<path d="M327.019 408.653H435.54" stroke="black" stroke-miterlimit="10"/>
<path d="M2.66461 7L16.1087 20.5907" stroke="black" stroke-width="1.5" stroke-miterlimit="10" stroke-linecap="round" stroke-linejoin="round"/>
<path d="M16.1087 7L2.66461 20.5907" stroke="black" stroke-width="1.5" stroke-miterlimit="10" stroke-linecap="round" stroke-linejoin="round"/>
<path d="M428.758 50.1992L442.323 63.7899" stroke="black" stroke-width="1.5" stroke-miterlimit="10" stroke-linecap="round" stroke-linejoin="round"/>
<path d="M442.323 50.1992L428.758 63.7899" stroke="black" stroke-width="1.5" stroke-miterlimit="10" stroke-linecap="round" stroke-linejoin="round"/>
<path d="M206.022 79.6855H252.773" stroke="black" stroke-width="1.5" stroke-miterlimit="10" stroke-linecap="round" stroke-linejoin="round"/>
<path d="M96.5311 262.796H120.755" stroke="black" stroke-width="1.5" stroke-miterlimit="10" stroke-linecap="round" stroke-linejoin="round"/>
<path d="M113.488 399.067H20.9534V408.654H113.488V399.067Z" fill="#25D6B0"/>
<path d="M347.851 422.486H356.935V424.792H353.786V434.257H350.879V424.792H347.851V422.486Z" fill="black"/>
<path d="M361.174 434.257H358.267V424.913H361.174V426.491C361.779 425.52 362.87 424.792 364.081 424.792V427.826H363.354C362.022 427.826 361.174 428.311 361.174 429.888V434.257Z" fill="black"/>
<path d="M371.953 424.913H375.103L369.289 438.746H366.261L368.441 434.014L364.686 425.034H367.835L370.016 430.859L371.953 424.913Z" fill="black"/>
<path d="M386.003 429.16C386.003 427.947 385.276 427.219 384.186 427.219C383.096 427.219 382.37 427.947 382.37 429.16V434.257H379.463V424.913H382.37V426.127C382.975 425.399 383.944 424.792 385.155 424.792C387.335 424.792 388.789 426.248 388.789 428.796V434.257H386.003V429.16Z" fill="black"/>
<path d="M395.087 434.379C392.301 434.379 390.242 432.558 390.242 429.525C390.242 426.491 392.422 424.671 395.087 424.671C397.873 424.671 399.932 426.491 399.932 429.525C399.932 432.558 397.873 434.379 395.087 434.379ZM395.087 431.83C396.056 431.83 397.025 431.102 397.025 429.525C397.025 427.947 396.056 427.219 395.087 427.219C393.997 427.219 393.149 427.947 393.149 429.525C393.149 431.102 394.118 431.83 395.087 431.83Z" fill="black"/>
<path d="M400.537 424.913H403.444L404.776 431.587L406.351 424.913H409.379L410.953 431.587L412.286 424.913H414.95L412.407 434.257H409.258L407.804 428.189L406.23 434.257H403.081L400.537 424.913Z" fill="black"/>
<path d="M457.594 356.551L452.66 355.086L452.66 354.184L454.137 354.43L459 355.906L459 356.715L457.594 356.551ZM452.66 357.412L457.617 356.27L459 356.176L459 357.078L452.66 358.795L452.66 357.412ZM457.559 352.812L452.66 351.705L452.66 350.328L459 352.039L459 352.941L457.559 352.812ZM452.66 354.031L457.535 352.584L459 352.402L459 353.211L454.131 354.705L452.66 354.951L452.66 354.031ZM457.594 347.495L452.66 346.03L452.66 345.127L454.137 345.373L459 346.85L459 347.659L457.594 347.495ZM452.66 348.356L457.617 347.213L459 347.12L459 348.022L452.66 349.739L452.66 348.356ZM457.559 343.756L452.66 342.649L452.66 341.272L459 342.983L459 343.885L457.559 343.756ZM452.66 344.975L457.535 343.528L459 343.346L459 344.155L454.131 345.649L452.66 345.895L452.66 344.975ZM457.594 338.438L452.66 336.973L452.66 336.071L454.137 336.317L459 337.794L459 338.602L457.594 338.438ZM452.66 339.3L457.617 338.157L459 338.063L459 338.966L452.66 340.682L452.66 339.3ZM457.559 334.7L452.66 333.593L452.66 332.216L459 333.927L459 334.829L457.559 334.7ZM452.66 335.919L457.535 334.471L459 334.29L459 335.098L454.131 336.593L452.66 336.839L452.66 335.919ZM458.297 331.773C458.078 331.773 457.895 331.698 457.746 331.55C457.594 331.402 457.518 331.2 457.518 330.946C457.518 330.689 457.594 330.487 457.746 330.343C457.895 330.195 458.078 330.12 458.297 330.12C458.516 330.12 458.699 330.195 458.848 330.343C458.996 330.487 459.07 330.689 459.07 330.946C459.07 331.2 458.996 331.402 458.848 331.55C458.699 331.698 458.516 331.773 458.297 331.773ZM454.014 326.941L459 326.941L459 328.353L452.66 328.353L452.66 327.023L454.014 326.941ZM455.596 327.193L455.59 327.65C455.141 327.646 454.729 327.584 454.354 327.462C453.979 327.337 453.656 327.166 453.387 326.947C453.117 326.724 452.91 326.459 452.766 326.15C452.617 325.841 452.543 325.498 452.543 325.119C452.543 324.814 452.586 324.539 452.672 324.293C452.754 324.043 452.889 323.83 453.076 323.654C453.264 323.474 453.508 323.337 453.809 323.244C454.105 323.15 454.471 323.103 454.904 323.103L459 323.103L459 324.521L454.898 324.521C454.594 324.521 454.354 324.566 454.178 324.656C453.998 324.742 453.871 324.869 453.797 325.037C453.719 325.201 453.68 325.406 453.68 325.652C453.68 325.894 453.73 326.111 453.832 326.302C453.934 326.494 454.072 326.656 454.248 326.789C454.424 326.918 454.627 327.017 454.857 327.087C455.088 327.158 455.334 327.193 455.596 327.193ZM459.117 318.717C459.117 319.186 459.041 319.609 458.889 319.988C458.732 320.363 458.516 320.684 458.238 320.949C457.961 321.211 457.635 321.412 457.26 321.553C456.885 321.693 456.48 321.764 456.047 321.764L455.812 321.764C455.316 321.764 454.867 321.691 454.465 321.547C454.062 321.402 453.719 321.201 453.434 320.943C453.145 320.686 452.924 320.381 452.771 320.029C452.619 319.678 452.543 319.297 452.543 318.887C452.543 318.434 452.619 318.037 452.771 317.697C452.924 317.357 453.139 317.076 453.416 316.854C453.689 316.627 454.016 316.459 454.395 316.35C454.773 316.236 455.191 316.18 455.648 316.18L456.252 316.18L456.252 321.078L455.238 321.078L455.238 317.574L455.127 317.574C454.873 317.582 454.635 317.633 454.412 317.727C454.189 317.816 454.01 317.955 453.873 318.143C453.736 318.33 453.668 318.58 453.668 318.893C453.668 319.127 453.719 319.336 453.82 319.52C453.918 319.699 454.061 319.85 454.248 319.971C454.436 320.092 454.662 320.186 454.928 320.252C455.189 320.314 455.484 320.346 455.812 320.346L456.047 320.346C456.324 320.346 456.582 320.309 456.82 320.234C457.055 320.156 457.26 320.043 457.436 319.895C457.611 319.746 457.75 319.566 457.852 319.355C457.949 319.145 457.998 318.904 457.998 318.635C457.998 318.295 457.93 317.992 457.793 317.727C457.656 317.461 457.463 317.23 457.213 317.035L457.934 316.291C458.133 316.428 458.324 316.605 458.508 316.824C458.687 317.043 458.834 317.311 458.947 317.627C459.061 317.939 459.117 318.303 459.117 318.717ZM459.117 312.133C459.117 312.602 459.041 313.026 458.889 313.405C458.732 313.78 458.516 314.1 458.238 314.366C457.961 314.627 457.635 314.829 457.26 314.969C456.885 315.11 456.48 315.18 456.047 315.18L455.812 315.18C455.316 315.18 454.867 315.108 454.465 314.963C454.062 314.819 453.719 314.618 453.434 314.36C453.145 314.102 452.924 313.797 452.771 313.446C452.619 313.094 452.543 312.713 452.543 312.303C452.543 311.85 452.619 311.454 452.771 311.114C452.924 310.774 453.139 310.493 453.416 310.27C453.689 310.043 454.016 309.875 454.395 309.766C454.773 309.653 455.191 309.596 455.648 309.596L456.252 309.596L456.252 314.495L455.238 314.495L455.238 310.991L455.127 310.991C454.873 310.998 454.635 311.049 454.412 311.143C454.189 311.233 454.01 311.371 453.873 311.559C453.736 311.746 453.668 311.996 453.668 312.309C453.668 312.543 453.719 312.752 453.82 312.936C453.918 313.116 454.061 313.266 454.248 313.387C454.436 313.508 454.662 313.602 454.928 313.668C455.189 313.731 455.484 313.762 455.812 313.762L456.047 313.762C456.324 313.762 456.582 313.725 456.82 313.651C457.055 313.573 457.26 313.459 457.436 313.311C457.611 313.162 457.75 312.983 457.852 312.772C457.949 312.561 457.998 312.321 457.998 312.051C457.998 311.711 457.93 311.409 457.793 311.143C457.656 310.877 457.463 310.647 457.213 310.452L457.934 309.707C458.133 309.844 458.324 310.022 458.508 310.241C458.687 310.459 458.834 310.727 458.947 311.043C459.061 311.356 459.117 311.719 459.117 312.133ZM457.687 304.477L450 304.477L450 303.059L459 303.059L459 304.343L457.687 304.477ZM455.9 308.602L455.777 308.602C455.297 308.602 454.859 308.546 454.465 308.432C454.066 308.319 453.725 308.155 453.439 307.94C453.15 307.725 452.93 307.464 452.777 307.155C452.621 306.846 452.543 306.499 452.543 306.112C452.543 305.729 452.617 305.393 452.766 305.104C452.914 304.815 453.127 304.569 453.404 304.366C453.678 304.163 454.006 304.001 454.389 303.88C454.768 303.759 455.189 303.673 455.654 303.622L456.047 303.622C456.5 303.673 456.914 303.759 457.289 303.88C457.664 304.001 457.988 304.163 458.262 304.366C458.535 304.569 458.746 304.817 458.895 305.11C459.043 305.399 459.117 305.737 459.117 306.124C459.117 306.507 459.037 306.852 458.877 307.161C458.717 307.466 458.492 307.725 458.203 307.94C457.914 308.155 457.574 308.319 457.184 308.432C456.789 308.546 456.361 308.602 455.9 308.602ZM455.777 307.19L455.9 307.19C456.189 307.19 456.459 307.165 456.709 307.114C456.959 307.059 457.18 306.975 457.371 306.862C457.559 306.749 457.707 306.602 457.816 306.423C457.922 306.239 457.975 306.02 457.975 305.766C457.975 305.446 457.904 305.182 457.764 304.975C457.623 304.768 457.434 304.606 457.195 304.489C456.953 304.368 456.684 304.286 456.387 304.243L455.326 304.243C455.096 304.266 454.881 304.315 454.682 304.389C454.482 304.46 454.309 304.555 454.16 304.677C454.008 304.798 453.891 304.948 453.809 305.128C453.723 305.304 453.68 305.513 453.68 305.755C453.68 306.013 453.734 306.231 453.844 306.411C453.953 306.591 454.104 306.739 454.295 306.856C454.486 306.97 454.709 307.054 454.963 307.108C455.217 307.163 455.488 307.19 455.777 307.19ZM459 299.523L459 300.935L452.051 300.935C451.578 300.935 451.182 300.847 450.861 300.671C450.537 300.491 450.293 300.236 450.129 299.904C449.961 299.571 449.877 299.179 449.877 298.726C449.877 298.585 449.887 298.446 449.906 298.31C449.922 298.173 449.947 298.04 449.982 297.911L451.072 297.946C451.053 298.025 451.039 298.111 451.031 298.204C451.023 298.294 451.02 298.392 451.02 298.497C451.02 298.712 451.061 298.898 451.143 299.054C451.221 299.206 451.336 299.323 451.488 299.405C451.641 299.484 451.828 299.523 452.051 299.523L459 299.523ZM452.66 298.216L453.691 298.216L453.691 301.907L452.66 301.907L452.66 298.216ZM457.506 293.226L452.66 293.226L452.66 291.808L459 291.808L459 293.144L457.506 293.226ZM456.187 293.027L456.176 292.552C456.602 292.552 456.994 292.599 457.354 292.693C457.709 292.787 458.02 292.931 458.285 293.127C458.547 293.322 458.752 293.572 458.9 293.877C459.045 294.181 459.117 294.546 459.117 294.972C459.117 295.281 459.072 295.564 458.982 295.822C458.893 296.08 458.754 296.302 458.566 296.49C458.379 296.673 458.135 296.816 457.834 296.918C457.533 297.019 457.174 297.07 456.756 297.07L452.66 297.07L452.66 295.658L456.768 295.658C456.998 295.658 457.191 295.63 457.348 295.576C457.5 295.521 457.623 295.447 457.717 295.353C457.811 295.259 457.877 295.15 457.916 295.025C457.955 294.9 457.975 294.767 457.975 294.627C457.975 294.224 457.896 293.908 457.74 293.677C457.58 293.443 457.365 293.277 457.096 293.179C456.826 293.078 456.523 293.027 456.187 293.027ZM450 288.699L459 288.699L459 290.117L450 290.117L450 288.699ZM458.297 286.944C458.078 286.944 457.895 286.87 457.746 286.721C457.594 286.573 457.518 286.371 457.518 286.118C457.518 285.86 457.594 285.659 457.746 285.514C457.895 285.366 458.078 285.291 458.297 285.291C458.516 285.291 458.699 285.366 458.848 285.514C458.996 285.659 459.07 285.86 459.07 286.118C459.07 286.371 458.996 286.573 458.848 286.721C458.699 286.87 458.516 286.944 458.297 286.944ZM457.283 279.956C457.143 279.956 457.016 279.991 456.902 280.061C456.785 280.132 456.68 280.266 456.586 280.466C456.492 280.661 456.406 280.95 456.328 281.333C456.254 281.669 456.166 281.977 456.064 282.259C455.959 282.536 455.832 282.774 455.684 282.973C455.535 283.173 455.359 283.327 455.156 283.436C454.953 283.546 454.719 283.6 454.453 283.6C454.195 283.6 453.951 283.544 453.721 283.43C453.49 283.317 453.287 283.155 453.111 282.944C452.936 282.733 452.797 282.477 452.695 282.177C452.594 281.872 452.543 281.532 452.543 281.157C452.543 280.626 452.633 280.171 452.812 279.792C452.988 279.409 453.229 279.116 453.533 278.913C453.834 278.71 454.174 278.608 454.553 278.608L454.553 280.02C454.385 280.02 454.229 280.063 454.084 280.149C453.936 280.231 453.816 280.356 453.727 280.524C453.633 280.692 453.586 280.903 453.586 281.157C453.586 281.399 453.625 281.6 453.703 281.761C453.777 281.917 453.875 282.034 453.996 282.112C454.117 282.186 454.25 282.223 454.395 282.223C454.5 282.223 454.596 282.204 454.682 282.165C454.764 282.122 454.84 282.052 454.91 281.954C454.977 281.856 455.039 281.723 455.098 281.555C455.156 281.384 455.213 281.169 455.268 280.911C455.369 280.427 455.5 280.011 455.66 279.663C455.816 279.311 456.02 279.042 456.27 278.854C456.516 278.667 456.828 278.573 457.207 278.573C457.488 278.573 457.746 278.634 457.98 278.755C458.211 278.872 458.412 279.044 458.584 279.27C458.752 279.497 458.883 279.768 458.977 280.085C459.07 280.397 459.117 280.749 459.117 281.139C459.117 281.714 459.016 282.2 458.812 282.598C458.605 282.997 458.342 283.3 458.021 283.507C457.697 283.71 457.361 283.811 457.014 283.811L457.014 282.446C457.275 282.43 457.484 282.358 457.641 282.229C457.793 282.096 457.904 281.932 457.975 281.737C458.041 281.538 458.074 281.333 458.074 281.122C458.074 280.868 458.041 280.655 457.975 280.483C457.904 280.311 457.811 280.18 457.693 280.091C457.572 280.001 457.436 279.956 457.283 279.956ZM452.66 275.675L459 275.675L459 277.093L452.66 277.093L452.66 275.675ZM450.996 277.187C450.781 277.187 450.604 277.116 450.463 276.976C450.318 276.831 450.246 276.632 450.246 276.378C450.246 276.128 450.318 275.931 450.463 275.786C450.604 275.642 450.781 275.57 450.996 275.57C451.207 275.57 451.383 275.642 451.523 275.786C451.664 275.931 451.734 276.128 451.734 276.378C451.734 276.632 451.664 276.831 451.523 276.976C451.383 277.116 451.207 277.187 450.996 277.187ZM452.66 271.072L453.691 271.072L453.691 274.646L452.66 274.646L452.66 271.072ZM451.107 273.615L451.107 272.203L457.248 272.203C457.443 272.203 457.594 272.175 457.699 272.121C457.801 272.062 457.869 271.982 457.904 271.88C457.939 271.779 457.957 271.66 457.957 271.523C457.957 271.425 457.951 271.332 457.939 271.242C457.928 271.152 457.916 271.08 457.904 271.025L458.982 271.019C459.018 271.136 459.049 271.273 459.076 271.429C459.104 271.582 459.117 271.757 459.117 271.957C459.117 272.281 459.061 272.568 458.947 272.818C458.83 273.068 458.641 273.263 458.379 273.404C458.117 273.545 457.77 273.615 457.336 273.615L451.107 273.615ZM459.117 267.037C459.117 267.506 459.041 267.93 458.889 268.309C458.732 268.684 458.516 269.004 458.238 269.27C457.961 269.531 457.635 269.732 457.26 269.873C456.885 270.014 456.48 270.084 456.047 270.084L455.812 270.084C455.316 270.084 454.867 270.012 454.465 269.867C454.062 269.723 453.719 269.521 453.434 269.264C453.145 269.006 452.924 268.701 452.771 268.35C452.619 267.998 452.543 267.617 452.543 267.207C452.543 266.754 452.619 266.357 452.771 266.018C452.924 265.678 453.139 265.396 453.416 265.174C453.689 264.947 454.016 264.779 454.395 264.67C454.773 264.557 455.191 264.5 455.648 264.5L456.252 264.5L456.252 269.398L455.238 269.398L455.238 265.895L455.127 265.895C454.873 265.902 454.635 265.953 454.412 266.047C454.189 266.137 454.01 266.275 453.873 266.463C453.736 266.65 453.668 266.9 453.668 267.213C453.668 267.447 453.719 267.656 453.82 267.84C453.918 268.02 454.061 268.17 454.248 268.291C454.436 268.412 454.662 268.506 454.928 268.572C455.189 268.635 455.484 268.666 455.812 268.666L456.047 268.666C456.324 268.666 456.582 268.629 456.82 268.555C457.055 268.477 457.26 268.363 457.436 268.215C457.611 268.066 457.75 267.887 457.852 267.676C457.949 267.465 457.998 267.225 457.998 266.955C457.998 266.615 457.93 266.312 457.793 266.047C457.656 265.781 457.463 265.551 457.213 265.355L457.934 264.611C458.133 264.748 458.324 264.926 458.508 265.145C458.687 265.363 458.834 265.631 458.947 265.947C459.061 266.26 459.117 266.623 459.117 267.037Z" fill="black"/>
<path d="M74.4981 107.3C78.9381 107.3 82.8181 108.16 86.1381 109.88C89.4981 111.56 92.0781 114 93.8781 117.2C95.7181 120.36 96.6381 124.06 96.6381 128.3C96.6381 132.54 95.7181 136.22 93.8781 139.34C92.0781 142.46 89.4981 144.86 86.1381 146.54C82.8181 148.18 78.9381 149 74.4981 149H60.8781V107.3H74.4981ZM74.4981 143.42C79.3781 143.42 83.1181 142.1 85.7181 139.46C88.3181 136.82 89.6181 133.1 89.6181 128.3C89.6181 123.46 88.3181 119.68 85.7181 116.96C83.1181 114.24 79.3781 112.88 74.4981 112.88H67.7181V143.42H74.4981ZM117.907 149.54C114.787 149.54 111.967 148.84 109.447 147.44C106.927 146 104.947 144 103.507 141.44C102.067 138.84 101.347 135.84 101.347 132.44C101.347 129.08 102.087 126.1 103.567 123.5C105.047 120.9 107.067 118.9 109.627 117.5C112.187 116.1 115.047 115.4 118.207 115.4C121.367 115.4 124.227 116.1 126.787 117.5C129.347 118.9 131.367 120.9 132.847 123.5C134.327 126.1 135.067 129.08 135.067 132.44C135.067 135.8 134.307 138.78 132.787 141.38C131.267 143.98 129.187 146 126.547 147.44C123.947 148.84 121.067 149.54 117.907 149.54ZM117.907 143.6C119.667 143.6 121.307 143.18 122.827 142.34C124.387 141.5 125.647 140.24 126.607 138.56C127.567 136.88 128.047 134.84 128.047 132.44C128.047 130.04 127.587 128.02 126.667 126.38C125.747 124.7 124.527 123.44 123.007 122.6C121.487 121.76 119.847 121.34 118.087 121.34C116.327 121.34 114.687 121.76 113.167 122.6C111.687 123.44 110.507 124.7 109.627 126.38C108.747 128.02 108.307 130.04 108.307 132.44C108.307 136 109.207 138.76 111.007 140.72C112.847 142.64 115.147 143.6 117.907 143.6ZM145.459 111.56C144.219 111.56 143.179 111.14 142.339 110.3C141.499 109.46 141.079 108.42 141.079 107.18C141.079 105.94 141.499 104.9 142.339 104.06C143.179 103.22 144.219 102.8 145.459 102.8C146.659 102.8 147.679 103.22 148.519 104.06C149.359 104.9 149.779 105.94 149.779 107.18C149.779 108.42 149.359 109.46 148.519 110.3C147.679 111.14 146.659 111.56 145.459 111.56ZM148.819 115.94V149H141.979V115.94H148.819ZM174.629 115.4C177.229 115.4 179.549 115.94 181.589 117.02C183.669 118.1 185.289 119.7 186.449 121.82C187.609 123.94 188.189 126.5 188.189 129.5V149H181.409V130.52C181.409 127.56 180.669 125.3 179.189 123.74C177.709 122.14 175.689 121.34 173.129 121.34C170.569 121.34 168.529 122.14 167.009 123.74C165.529 125.3 164.789 127.56 164.789 130.52V149H157.949V115.94H164.789V119.72C165.909 118.36 167.329 117.3 169.049 116.54C170.809 115.78 172.669 115.4 174.629 115.4ZM210.384 115.4C212.944 115.4 215.204 115.92 217.164 116.96C219.164 117.96 220.724 119.22 221.844 120.74V115.94H228.744V149.54C228.744 152.58 228.104 155.28 226.824 157.64C225.544 160.04 223.684 161.92 221.244 163.28C218.844 164.64 215.964 165.32 212.604 165.32C208.124 165.32 204.404 164.26 201.444 162.14C198.484 160.06 196.804 157.22 196.404 153.62H203.184C203.704 155.34 204.804 156.72 206.484 157.76C208.204 158.84 210.244 159.38 212.604 159.38C215.364 159.38 217.584 158.54 219.264 156.86C220.984 155.18 221.844 152.74 221.844 149.54V144.02C220.684 145.58 219.104 146.9 217.104 147.98C215.144 149.02 212.904 149.54 210.384 149.54C207.504 149.54 204.864 148.82 202.464 147.38C200.104 145.9 198.224 143.86 196.824 141.26C195.464 138.62 194.784 135.64 194.784 132.32C194.784 129 195.464 126.06 196.824 123.5C198.224 120.94 200.104 118.96 202.464 117.56C204.864 116.12 207.504 115.4 210.384 115.4ZM221.844 132.44C221.844 130.16 221.364 128.18 220.404 126.5C219.484 124.82 218.264 123.54 216.744 122.66C215.224 121.78 213.584 121.34 211.824 121.34C210.064 121.34 208.424 121.78 206.904 122.66C205.384 123.5 204.144 124.76 203.184 126.44C202.264 128.08 201.804 130.04 201.804 132.32C201.804 134.6 202.264 136.6 203.184 138.32C204.144 140.04 205.384 141.36 206.904 142.28C208.464 143.16 210.104 143.6 211.824 143.6C213.584 143.6 215.224 143.16 216.744 142.28C218.264 141.4 219.484 140.12 220.404 138.44C221.364 136.72 221.844 134.72 221.844 132.44ZM260.454 120.86C261.614 119.26 263.194 117.96 265.194 116.96C267.234 115.92 269.494 115.4 271.974 115.4C274.894 115.4 277.534 116.1 279.894 117.5C282.254 118.9 284.114 120.9 285.474 123.5C286.834 126.06 287.514 129 287.514 132.32C287.514 135.64 286.834 138.62 285.474 141.26C284.114 143.86 282.234 145.9 279.834 147.38C277.474 148.82 274.854 149.54 271.974 149.54C269.414 149.54 267.134 149.04 265.134 148.04C263.174 147.04 261.614 145.76 260.454 144.2V149H253.614V104.6H260.454V120.86ZM280.554 132.32C280.554 130.04 280.074 128.08 279.114 126.44C278.194 124.76 276.954 123.5 275.394 122.66C273.874 121.78 272.234 121.34 270.474 121.34C268.754 121.34 267.114 121.78 265.554 122.66C264.034 123.54 262.794 124.82 261.834 126.5C260.914 128.18 260.454 130.16 260.454 132.44C260.454 134.72 260.914 136.72 261.834 138.44C262.794 140.12 264.034 141.4 265.554 142.28C267.114 143.16 268.754 143.6 270.474 143.6C272.234 143.6 273.874 143.16 275.394 142.28C276.954 141.36 278.194 140.04 279.114 138.32C280.074 136.6 280.554 134.6 280.554 132.32ZM324.188 115.94L303.908 164.54H296.828L303.548 148.46L290.528 115.94H298.148L307.448 141.14L317.108 115.94H324.188ZM166.324 223.58C168.564 223.98 170.464 225.16 172.024 227.12C173.584 229.08 174.364 231.3 174.364 233.78C174.364 235.9 173.804 237.82 172.684 239.54C171.604 241.22 170.024 242.56 167.944 243.56C165.864 244.52 163.444 245 160.684 245H144.004V203.3H159.904C162.744 203.3 165.184 203.78 167.224 204.74C169.264 205.7 170.804 207 171.844 208.64C172.884 210.24 173.404 212.04 173.404 214.04C173.404 216.44 172.764 218.44 171.484 220.04C170.204 221.64 168.484 222.82 166.324 223.58ZM150.844 220.82H159.304C161.544 220.82 163.284 220.32 164.524 219.32C165.804 218.28 166.444 216.8 166.444 214.88C166.444 213 165.804 211.54 164.524 210.5C163.284 209.42 161.544 208.88 159.304 208.88H150.844V220.82ZM160.084 239.42C162.404 239.42 164.224 238.86 165.544 237.74C166.864 236.62 167.524 235.06 167.524 233.06C167.524 231.02 166.824 229.4 165.424 228.2C164.024 227 162.164 226.4 159.844 226.4H150.844V239.42H160.084ZM212.247 227.66C212.247 228.9 212.167 230.02 212.007 231.02H186.747C186.947 233.66 187.927 235.78 189.687 237.38C191.447 238.98 193.607 239.78 196.167 239.78C199.847 239.78 202.447 238.24 203.967 235.16H211.347C210.347 238.2 208.527 240.7 205.887 242.66C203.287 244.58 200.047 245.54 196.167 245.54C193.007 245.54 190.167 244.84 187.647 243.44C185.167 242 183.207 240 181.767 237.44C180.367 234.84 179.667 231.84 179.667 228.44C179.667 225.04 180.347 222.06 181.707 219.5C183.107 216.9 185.047 214.9 187.527 213.5C190.047 212.1 192.927 211.4 196.167 211.4C199.287 211.4 202.067 212.08 204.507 213.44C206.947 214.8 208.847 216.72 210.207 219.2C211.567 221.64 212.247 224.46 212.247 227.66ZM205.107 225.5C205.067 222.98 204.167 220.96 202.407 219.44C200.647 217.92 198.467 217.16 195.867 217.16C193.507 217.16 191.487 217.92 189.807 219.44C188.127 220.92 187.127 222.94 186.807 225.5H205.107ZM222.608 207.56C221.368 207.56 220.328 207.14 219.488 206.3C218.648 205.46 218.228 204.42 218.228 203.18C218.228 201.94 218.648 200.9 219.488 200.06C220.328 199.22 221.368 198.8 222.608 198.8C223.808 198.8 224.828 199.22 225.668 200.06C226.508 200.9 226.928 201.94 226.928 203.18C226.928 204.42 226.508 205.46 225.668 206.3C224.828 207.14 223.808 207.56 222.608 207.56ZM225.968 211.94V245H219.128V211.94H225.968ZM251.778 211.4C254.378 211.4 256.698 211.94 258.738 213.02C260.818 214.1 262.438 215.7 263.598 217.82C264.758 219.94 265.338 222.5 265.338 225.5V245H258.558V226.52C258.558 223.56 257.818 221.3 256.338 219.74C254.858 218.14 252.838 217.34 250.278 217.34C247.718 217.34 245.678 218.14 244.158 219.74C242.678 221.3 241.938 223.56 241.938 226.52V245H235.098V211.94H241.938V215.72C243.058 214.36 244.478 213.3 246.198 212.54C247.958 211.78 249.818 211.4 251.778 211.4ZM287.533 211.4C290.093 211.4 292.353 211.92 294.313 212.96C296.313 213.96 297.873 215.22 298.993 216.74V211.94H305.893V245.54C305.893 248.58 305.253 251.28 303.973 253.64C302.693 256.04 300.833 257.92 298.393 259.28C295.993 260.64 293.113 261.32 289.753 261.32C285.273 261.32 281.553 260.26 278.593 258.14C275.633 256.06 273.953 253.22 273.553 249.62H280.333C280.853 251.34 281.953 252.72 283.633 253.76C285.353 254.84 287.393 255.38 289.753 255.38C292.513 255.38 294.733 254.54 296.413 252.86C298.133 251.18 298.993 248.74 298.993 245.54V240.02C297.833 241.58 296.253 242.9 294.253 243.98C292.293 245.02 290.053 245.54 287.533 245.54C284.653 245.54 282.013 244.82 279.613 243.38C277.253 241.9 275.373 239.86 273.973 237.26C272.613 234.62 271.933 231.64 271.933 228.32C271.933 225 272.613 222.06 273.973 219.5C275.373 216.94 277.253 214.96 279.613 213.56C282.013 212.12 284.653 211.4 287.533 211.4ZM298.993 228.44C298.993 226.16 298.513 224.18 297.553 222.5C296.633 220.82 295.413 219.54 293.893 218.66C292.373 217.78 290.733 217.34 288.973 217.34C287.213 217.34 285.573 217.78 284.053 218.66C282.533 219.5 281.293 220.76 280.333 222.44C279.413 224.08 278.953 226.04 278.953 228.32C278.953 230.6 279.413 232.6 280.333 234.32C281.293 236.04 282.533 237.36 284.053 238.28C285.613 239.16 287.253 239.6 288.973 239.6C290.733 239.6 292.373 239.16 293.893 238.28C295.413 237.4 296.633 236.12 297.553 234.44C298.513 232.72 298.993 230.72 298.993 228.44ZM317.787 245.42C316.547 245.42 315.507 245 314.667 244.16C313.827 243.32 313.407 242.28 313.407 241.04C313.407 239.8 313.827 238.76 314.667 237.92C315.507 237.08 316.547 236.66 317.787 236.66C318.987 236.66 320.007 237.08 320.847 237.92C321.687 238.76 322.107 239.8 322.107 241.04C322.107 242.28 321.687 243.32 320.847 244.16C320.007 245 318.987 245.42 317.787 245.42Z" fill="black"/>
</g>
<defs>
<radialGradient id="paint0_radial_1076_5745" cx="0" cy="0" r="1" gradientUnits="userSpaceOnUse" gradientTransform="translate(296.288 162.288) rotate(90) scale(155.288)">
<stop stop-color="#76FFAD"/>
<stop offset="0.53125" stop-color="#A2FBD0"/>
<stop offset="1" stop-color="white"/>
</radialGradient>
<clipPath id="clip0_1076_5745">
<rect width="468" height="469" fill="white"/>
</clipPath>
</defs>
</svg>
