<svg width="104" height="96" viewBox="0 0 104 96" fill="none" xmlns="http://www.w3.org/2000/svg">
<g clip-path="url(#clip0_2147_2318)">
<path d="M27.36 93.3C26.97 93.62 26.47 93.8 25.93 93.8C24.66 93.8 23.61 92.77 23.61 91.48L26.04 76.32C11.96 70.59 2 56.75 2 40.57C2 19.27 19.27 2 40.57 2C61.87 2 79.16 19.27 79.16 40.57C79.16 60.43 64.18 76.78 44.86 78.91L30.83 90.58L27.35 93.3H27.36Z" fill="#80D4C2" stroke="#005442" stroke-width="4" stroke-linecap="round" stroke-linejoin="round"/>
<path d="M84.14 67.3599L87.16 77.3599C87.23 77.5399 87.3 77.6999 87.32 77.9099C87.34 78.0399 87.36 78.1799 87.36 78.3199C87.36 79.6199 86.31 80.6399 85.04 80.6399C84.72 80.6399 84.42 80.5699 84.13 80.4599L83.42 79.9799C83.42 79.9799 83.4 79.9799 83.4 79.9599L66.92 68.7599C66.92 68.7599 45.03 60.4699 44.67 40.8099C44.67 24.9899 57.49 12.1499 73.33 12.1499C89.17 12.1499 101.99 24.9899 101.99 40.8099C101.99 52.8299 94.6 63.0999 84.13 67.3799L84.14 67.3599Z" fill="#FFEB81" stroke="#806B02" stroke-width="4" stroke-linecap="round" stroke-linejoin="round"/>
<path d="M60.75 41.4799C60.75 39.3899 62.18 37.8899 64.23 37.8899C66.28 37.8899 67.67 39.3599 67.67 41.4799C67.67 43.5999 66.28 45.0299 64.19 45.0299C62.1 45.0299 60.75 43.5199 60.75 41.4799Z" fill="#806B02"/>
<path d="M70.8 41.4799C70.8 39.3899 72.23 37.8899 74.28 37.8899C76.33 37.8899 77.72 39.3599 77.72 41.4799C77.72 43.5999 76.33 45.0299 74.24 45.0299C72.15 45.0299 70.8 43.5199 70.8 41.4799Z" fill="#806B02"/>
<path d="M80.84 41.4799C80.84 39.3899 82.27 37.8899 84.32 37.8899C86.37 37.8899 87.76 39.3599 87.76 41.4799C87.76 43.5999 86.37 45.0299 84.28 45.0299C82.19 45.0299 80.84 43.5199 80.84 41.4799Z" fill="#806B02"/>
<path d="M23.63 41.4799C23.63 39.3899 25.06 37.8899 27.11 37.8899C29.16 37.8899 30.55 39.3599 30.55 41.4799C30.55 43.5999 29.16 45.0299 27.07 45.0299C24.98 45.0299 23.63 43.5199 23.63 41.4799Z" fill="#005442"/>
<path d="M33.6801 41.4799C33.6801 39.3899 35.1101 37.8899 37.1601 37.8899C39.2101 37.8899 40.6001 39.3599 40.6001 41.4799C40.6001 43.5999 39.2101 45.0299 37.1201 45.0299C35.0301 45.0299 33.6801 43.5199 33.6801 41.4799Z" fill="#005442"/>
</g>
<defs>
<clipPath id="clip0_2147_2318">
<rect width="104" height="95.8" fill="white"/>
</clipPath>
</defs>
</svg>
