<svg width="567" height="596" viewBox="0 0 567 596" fill="none" xmlns="http://www.w3.org/2000/svg">
<path d="M348.5 596C469.174 596 567 498.398 567 378C567 257.602 469.174 160 348.5 160C227.826 160 130 257.602 130 378C130 498.398 227.826 596 348.5 596Z" fill="url(#paint0_radial_1903_3644)"/>
<path d="M83.9714 576.287C191.651 576.287 278.943 489.261 278.943 381.91C278.943 274.559 191.651 187.533 83.9714 187.533C-23.7083 187.533 -111 274.559 -111 381.91C-111 489.261 -23.7083 576.287 83.9714 576.287Z" fill="url(#paint1_radial_1903_3644)"/>
<path d="M293.126 297.005C375.393 297.005 442.083 230.518 442.083 148.503C442.083 66.4869 375.393 0 293.126 0C210.86 0 144.17 66.4869 144.17 148.503C144.17 230.518 210.86 297.005 293.126 297.005Z" fill="url(#paint2_radial_1903_3644)"/>
<defs>
<radialGradient id="paint0_radial_1903_3644" cx="0" cy="0" r="1" gradientUnits="userSpaceOnUse" gradientTransform="translate(348.5 378) scale(218.5 218)">
<stop stop-color="#FFF7CD"/>
<stop offset="1" stop-color="white"/>
</radialGradient>
<radialGradient id="paint1_radial_1903_3644" cx="0" cy="0" r="1" gradientUnits="userSpaceOnUse" gradientTransform="translate(83.9715 381.91) scale(194.971 194.377)">
<stop offset="0.03" stop-color="#FFE668"/>
<stop offset="1" stop-color="white"/>
</radialGradient>
<radialGradient id="paint2_radial_1903_3644" cx="0" cy="0" r="1" gradientUnits="userSpaceOnUse" gradientTransform="translate(293.126 148.503) scale(148.957 148.503)">
<stop stop-color="#FFED93"/>
<stop offset="1" stop-color="white"/>
</radialGradient>
</defs>
</svg>
