<svg id="Layer_1" data-name="Layer 1" xmlns="http://www.w3.org/2000/svg" viewBox="0 0 500 500">
  <defs>
    <style>
      .cls-1 {
        fill: #00a783;
      }

      .cls-1, .cls-2 {
        stroke-width: 0px;
      }

      .cls-2 {
        fill: #fff;
      }
    </style>
  </defs>
  <circle class="cls-1" cx="250" cy="250" r="223.94"/>
  <path class="cls-1" d="M250,500C112.15,500,0,387.85,0,250S112.15,0,250,0s250,112.15,250,250-112.15,250-250,250ZM250,9.09C117.16,9.09,9.09,117.16,9.09,250s108.07,240.91,240.91,240.91,240.91-108.07,240.91-240.91S382.84,9.09,250,9.09Z"/>
  <path class="cls-2" d="M250,136.33c-46.07,0-83.42,37.35-83.42,83.42h0v106.92h38.56v-106.92c0-24.78,20.09-44.86,44.86-44.86s44.87,20.08,44.87,44.86c0,0,0,0,0,0v106.91h38.56v-106.92c0-46.08-37.35-83.42-83.42-83.42Z"/>
</svg>